<svg width="314" height="250" viewBox="0 0 314 250" fill="none" xmlns="http://www.w3.org/2000/svg">
<path d="M166.741 39.4299H127.932V0H156.75L166.741 7.51245V39.4299Z" fill="#EBEBEB"/>
<path d="M156.75 0L166.741 7.51245H156.75V0Z" fill="#DBDBDB"/>
<path d="M131.721 7.63219L153.301 7.63219V6.62055L131.721 6.62055V7.63219Z" fill="#DBDBDB"/>
<path d="M131.721 10.1882L153.301 10.1882V9.17655L131.721 9.17655V10.1882Z" fill="#DBDBDB"/>
<path d="M131.721 12.7442L153.301 12.7442V11.7326L131.721 11.7326V12.7442Z" fill="#DBDBDB"/>
<path d="M131.721 15.3003L163.338 15.3003V14.2886L131.721 14.2886V15.3003Z" fill="#DBDBDB"/>
<path d="M131.721 17.8563L163.338 17.8563V16.8446L131.721 16.8446V17.8563Z" fill="#DBDBDB"/>
<path d="M131.721 20.4063L163.338 20.4063V19.3947L131.721 19.3947V20.4063Z" fill="#DBDBDB"/>
<path d="M131.721 22.9624L163.338 22.9624V21.9507L131.721 21.9507V22.9624Z" fill="#DBDBDB"/>
<path d="M131.721 25.5184L163.338 25.5184V24.5068L131.721 24.5068V25.5184Z" fill="#DBDBDB"/>
<path d="M131.721 28.0744L163.338 28.0744V27.0628L131.721 27.0628V28.0744Z" fill="#DBDBDB"/>
<path d="M131.721 30.6304L163.338 30.6304V29.6188L131.721 29.6188V30.6304Z" fill="#DBDBDB"/>
<path d="M131.721 33.1865H163.338V32.1748H131.721V33.1865Z" fill="#DBDBDB"/>
<path d="M131.721 35.7425H163.338V34.7309H131.721V35.7425Z" fill="#DBDBDB"/>
<path d="M169.365 43.0211C172.835 41.8762 174.476 38.7218 173.029 35.9755C171.582 33.2292 167.597 31.9309 164.127 33.0758C160.656 34.2207 159.016 37.3751 160.463 40.1214C161.909 42.8677 165.895 44.1659 169.365 43.0211Z" fill="#C7C7C7"/>
<path d="M170.115 36.6823H163.368V41.531H170.115V36.6823Z" fill="white"/>
<path d="M169.441 38.1788H168.768V36.0358C168.785 35.8181 168.746 35.6 168.652 35.3948C168.558 35.1897 168.412 35.0019 168.224 34.843C168.035 34.6841 167.807 34.5575 167.554 34.471C167.301 34.3844 167.028 34.3398 166.753 34.3398C166.477 34.3398 166.204 34.3844 165.951 34.471C165.698 34.5575 165.47 34.6841 165.282 34.843C165.093 35.0019 164.947 35.1897 164.853 35.3948C164.76 35.6 164.72 35.8181 164.737 36.0358V38.1968H164.049V36.0358C164.049 35.469 164.333 34.9255 164.839 34.5247C165.346 34.124 166.033 33.8988 166.749 33.8988C167.465 33.8988 168.152 34.124 168.658 34.5247C169.165 34.9255 169.449 35.469 169.449 36.0358L169.441 38.1788Z" fill="white"/>
<path d="M167.029 39.1665L167.309 40.226H166.114L166.393 39.1665C166.308 39.1235 166.238 39.0642 166.189 38.9942C166.14 38.9241 166.114 38.8455 166.114 38.7654C166.114 38.64 166.176 38.5197 166.289 38.431C166.401 38.3424 166.553 38.2925 166.711 38.2925C166.87 38.2925 167.022 38.3424 167.134 38.431C167.246 38.5197 167.309 38.64 167.309 38.7654C167.308 38.8455 167.282 38.9241 167.233 38.9942C167.184 39.0642 167.114 39.1235 167.029 39.1665Z" fill="#C7C7C7"/>
<path d="M217.251 55.4784L217.35 86.1567C217.352 86.5647 217.252 86.969 217.057 87.3465C216.861 87.7241 216.574 88.0674 216.211 88.357C215.848 88.6466 215.416 88.8768 214.94 89.0344C214.465 89.192 213.955 89.2739 213.439 89.2754L151.962 89.4011C151.446 89.4019 150.936 89.3224 150.459 89.167C149.982 89.0116 149.549 88.7834 149.184 88.4954C148.819 88.2075 148.529 87.8655 148.33 87.4888C148.132 87.1122 148.03 86.7084 148.029 86.3004L147.93 55.6221C147.928 55.2427 148.021 54.8667 148.203 54.5156C148.385 54.1646 148.652 53.8454 148.99 53.5762C149.328 53.3071 149.73 53.0934 150.172 52.9473C150.615 52.8012 151.089 52.7256 151.569 52.7248L213.591 52.5991C214.07 52.5975 214.545 52.6708 214.989 52.8147C215.432 52.9586 215.836 53.1704 216.176 53.4378C216.516 53.7053 216.786 54.0232 216.97 54.3733C217.155 54.7235 217.25 55.099 217.251 55.4784Z" fill="#EBEBEB"/>
<path d="M207.343 81.8588C207.345 82.4235 207.134 82.9759 206.739 83.4461C206.344 83.9163 205.782 84.2832 205.123 84.5004C204.464 84.7176 203.739 84.7754 203.039 84.6664C202.339 84.5574 201.695 84.2865 201.189 83.888C200.684 83.4895 200.339 82.9813 200.198 82.4277C200.057 81.874 200.127 81.2998 200.399 80.7776C200.671 80.2554 201.132 79.8087 201.724 79.494C202.317 79.1792 203.014 79.0106 203.728 79.0094C204.201 79.0086 204.671 79.0817 205.109 79.2245C205.547 79.3673 205.945 79.5769 206.281 79.8415C206.617 80.1061 206.883 80.4204 207.066 80.7665C207.248 81.1127 207.342 81.4838 207.343 81.8588Z" fill="#DBDBDB"/>
<path d="M211.79 81.8468C211.792 82.4113 211.582 82.9634 211.187 83.4335C210.792 83.9036 210.23 84.2705 209.572 84.4879C208.914 84.7053 208.189 84.7634 207.489 84.6548C206.789 84.5463 206.145 84.276 205.639 83.8781C205.133 83.4802 204.788 82.9726 204.646 82.4193C204.505 81.8661 204.574 81.2921 204.844 80.7698C205.115 80.2475 205.575 79.8004 206.166 79.4849C206.758 79.1695 207.454 78.9998 208.167 78.9975C208.642 78.9959 209.112 79.0684 209.551 79.2108C209.99 79.3532 210.389 79.5627 210.726 79.8274C211.062 80.0921 211.329 80.4067 211.512 80.7532C211.695 81.0997 211.789 81.4713 211.79 81.8468Z" fill="#91235B"/>
<path d="M163.592 57.9647L156.936 57.9785C155.181 57.9822 153.763 59.1107 153.767 60.4992L153.774 62.5884C153.779 63.9769 155.205 65.0995 156.959 65.0959L163.615 65.0821C165.37 65.0785 166.788 63.9499 166.784 62.5614L166.777 60.4723C166.772 59.0838 165.346 57.9611 163.592 57.9647Z" fill="#91235B"/>
<path d="M209.257 61.7757H203.372C203.048 61.7765 202.726 61.7266 202.426 61.6289C202.126 61.5311 201.853 61.3875 201.624 61.2062C201.394 61.0249 201.211 60.8096 201.087 60.5724C200.963 60.3353 200.899 60.081 200.899 59.8242C200.898 59.5683 200.961 59.3146 201.084 59.0779C201.207 58.8412 201.388 58.626 201.616 58.4447C201.844 58.2634 202.116 58.1196 202.414 58.0215C202.713 57.9233 203.033 57.8728 203.357 57.8728H209.241C209.566 57.8712 209.887 57.9204 210.187 58.0174C210.487 58.1145 210.76 58.2575 210.989 58.4384C211.219 58.6192 211.402 58.8342 211.526 59.071C211.651 59.3078 211.715 59.5618 211.715 59.8182C211.716 60.0745 211.653 60.3284 211.53 60.5655C211.407 60.8026 211.226 61.0181 210.998 61.1999C210.77 61.3816 210.498 61.5261 210.2 61.6249C209.901 61.7236 209.58 61.7749 209.257 61.7757Z" fill="white"/>
<path d="M186.747 79.3287L153.83 79.3969L153.834 80.6779L186.751 80.6097L186.747 79.3287Z" fill="#DBDBDB"/>
<path d="M177.15 82.1979L153.847 82.2462L153.851 83.5272L177.155 83.4789L177.15 82.1979Z" fill="#DBDBDB"/>
<path d="M198.634 57.8922L182.213 57.9262L182.217 59.2072L198.638 59.1732L198.634 57.8922Z" fill="#DBDBDB"/>
<path d="M155.29 72.5146H155.063V74.4601H155.29V72.5146Z" fill="#C7C7C7"/>
<path d="M156.402 73.4005H153.943V73.5801H156.402V73.4005Z" fill="#C7C7C7"/>
<path d="M155.966 72.7335L154.223 74.1134L154.383 74.2404L156.127 72.8605L155.966 72.7335Z" fill="#C7C7C7"/>
<path d="M154.39 72.7395L154.23 72.8665L155.974 74.2464L156.134 74.1194L154.39 72.7395Z" fill="#C7C7C7"/>
<path d="M158.247 72.5146H158.02V74.4601H158.247V72.5146Z" fill="#C7C7C7"/>
<path d="M159.367 73.4005H156.908V73.5801H159.367V73.4005Z" fill="#C7C7C7"/>
<path d="M158.927 72.7366L157.189 74.1123L157.349 74.2393L159.087 72.8636L158.927 72.7366Z" fill="#C7C7C7"/>
<path d="M157.343 72.7323L157.183 72.8593L158.921 74.2351L159.081 74.1082L157.343 72.7323Z" fill="#C7C7C7"/>
<path d="M161.212 72.5146H160.985V74.4601H161.212V72.5146Z" fill="#C7C7C7"/>
<path d="M162.324 73.4005H159.866V73.5801H162.324V73.4005Z" fill="#C7C7C7"/>
<path d="M160.305 74.2386L160.146 74.1129L161.885 72.7361L162.052 72.8618L160.305 74.2386Z" fill="#C7C7C7"/>
<path d="M161.885 74.2386L160.146 72.8618L160.305 72.7361L162.052 74.1129L161.885 74.2386Z" fill="#C7C7C7"/>
<path d="M164.17 72.5146H163.943V74.4601H164.17V72.5146Z" fill="#C7C7C7"/>
<path d="M165.289 73.4005H162.831V73.5801H165.289V73.4005Z" fill="#C7C7C7"/>
<path d="M163.269 74.2386L163.111 74.1129L164.85 72.7361L165.009 72.8618L163.269 74.2386Z" fill="#C7C7C7"/>
<path d="M164.85 74.2386L163.111 72.8618L163.269 72.7361L165.009 74.1129L164.85 74.2386Z" fill="#C7C7C7"/>
<path d="M170.637 72.5146H170.41V74.4601H170.637V72.5146Z" fill="#C7C7C7"/>
<path d="M171.748 73.4005H169.29V73.5801H171.748V73.4005Z" fill="#C7C7C7"/>
<path d="M169.736 74.2386L169.57 74.1129L171.31 72.7361L171.476 72.8618L169.736 74.2386Z" fill="#C7C7C7"/>
<path d="M171.31 74.2386L169.57 72.8618L169.736 72.7361L171.476 74.1129L171.31 74.2386Z" fill="#C7C7C7"/>
<path d="M173.594 72.5146H173.367V74.4601H173.594V72.5146Z" fill="#C7C7C7"/>
<path d="M174.713 73.4005H172.255V73.5801H174.713V73.4005Z" fill="#C7C7C7"/>
<path d="M172.694 74.2386L172.535 74.1129L174.275 72.7361L174.434 72.8618L172.694 74.2386Z" fill="#C7C7C7"/>
<path d="M174.275 74.2386L172.535 72.8618L172.694 72.7361L174.434 74.1129L174.275 74.2386Z" fill="#C7C7C7"/>
<path d="M176.559 72.5146H176.332V74.4601H176.559V72.5146Z" fill="#C7C7C7"/>
<path d="M177.671 73.4005H175.213V73.5801H177.671V73.4005Z" fill="#C7C7C7"/>
<path d="M175.659 74.2386L175.492 74.1129L177.232 72.7361L177.398 72.8618L175.659 74.2386Z" fill="#C7C7C7"/>
<path d="M177.232 74.2386L175.492 72.8618L175.659 72.7361L177.398 74.1129L177.232 74.2386Z" fill="#C7C7C7"/>
<path d="M179.524 72.5146H179.297V74.4601H179.524V72.5146Z" fill="#C7C7C7"/>
<path d="M180.636 73.4005H178.178V73.5801H180.636V73.4005Z" fill="#C7C7C7"/>
<path d="M178.616 74.2386L178.457 74.1129L180.197 72.7361L180.356 72.8618L178.616 74.2386Z" fill="#C7C7C7"/>
<path d="M180.197 74.2386L178.457 72.8618L178.616 72.7361L180.356 74.1129L180.197 74.2386Z" fill="#C7C7C7"/>
<path d="M185.983 72.5146H185.756V74.4601H185.983V72.5146Z" fill="#C7C7C7"/>
<path d="M187.103 73.4005H184.645V73.5801H187.103V73.4005Z" fill="#C7C7C7"/>
<path d="M185.083 74.2386L184.924 74.1129L186.664 72.7361L186.823 72.8618L185.083 74.2386Z" fill="#C7C7C7"/>
<path d="M186.664 74.2386L184.924 72.8618L185.083 72.7361L186.823 74.1129L186.664 74.2386Z" fill="#C7C7C7"/>
<path d="M188.948 72.5146H188.721V74.4601H188.948V72.5146Z" fill="#C7C7C7"/>
<path d="M190.06 73.4005H187.602V73.5801H190.06V73.4005Z" fill="#C7C7C7"/>
<path d="M188.04 74.2386L187.882 74.1129L189.621 72.7361L189.788 72.8618L188.04 74.2386Z" fill="#C7C7C7"/>
<path d="M189.621 74.2386L187.882 72.8618L188.04 72.7361L189.788 74.1129L189.621 74.2386Z" fill="#C7C7C7"/>
<path d="M191.906 72.5146H191.679V74.4601H191.906V72.5146Z" fill="#C7C7C7"/>
<path d="M193.025 73.4005H190.567V73.5801H193.025V73.4005Z" fill="#C7C7C7"/>
<path d="M191.005 74.2386L190.847 74.1129L192.586 72.7361L192.745 72.8618L191.005 74.2386Z" fill="#C7C7C7"/>
<path d="M192.586 74.2386L190.847 72.8618L191.005 72.7361L192.745 74.1129L192.586 74.2386Z" fill="#C7C7C7"/>
<path d="M194.87 72.5146H194.644V74.4601H194.87V72.5146Z" fill="#C7C7C7"/>
<path d="M195.982 73.4005H193.524V73.5801H195.982V73.4005Z" fill="#C7C7C7"/>
<path d="M193.963 74.2386L193.804 74.1129L195.544 72.7361L195.71 72.8618L193.963 74.2386Z" fill="#C7C7C7"/>
<path d="M195.544 74.2386L193.804 72.8618L193.963 72.7361L195.71 74.1129L195.544 74.2386Z" fill="#C7C7C7"/>
<path d="M201.33 72.5146H201.103V74.4601H201.33V72.5146Z" fill="#C7C7C7"/>
<path d="M202.449 73.4005H199.991V73.5801H202.449V73.4005Z" fill="#C7C7C7"/>
<path d="M200.43 74.2386L200.271 74.1129L202.011 72.7361L202.169 72.8618L200.43 74.2386Z" fill="#C7C7C7"/>
<path d="M202.011 74.2386L200.271 72.8618L200.43 72.7361L202.169 74.1129L202.011 74.2386Z" fill="#C7C7C7"/>
<path d="M204.295 72.5146H204.068V74.4601H204.295V72.5146Z" fill="#C7C7C7"/>
<path d="M205.407 73.4005H202.948V73.5801H205.407V73.4005Z" fill="#C7C7C7"/>
<path d="M203.395 74.2386L203.228 74.1129L204.976 72.7361L205.134 72.8618L203.395 74.2386Z" fill="#C7C7C7"/>
<path d="M204.976 74.2386L203.228 72.8618L203.395 72.7361L205.134 74.1129L204.976 74.2386Z" fill="#C7C7C7"/>
<path d="M207.26 72.5146H207.033V74.4601H207.26V72.5146Z" fill="#C7C7C7"/>
<path d="M208.372 73.4005H205.913V73.5801H208.372V73.4005Z" fill="#C7C7C7"/>
<path d="M206.352 74.2386L206.193 74.1129L207.933 72.7361L208.092 72.8618L206.352 74.2386Z" fill="#C7C7C7"/>
<path d="M207.933 74.2386L206.193 72.8618L206.352 72.7361L208.092 74.1129L207.933 74.2386Z" fill="#C7C7C7"/>
<path d="M210.217 72.5146H209.99V74.4601H210.217V72.5146Z" fill="#C7C7C7"/>
<path d="M211.329 73.4005H208.871V73.5801H211.329V73.4005Z" fill="#C7C7C7"/>
<path d="M209.317 74.2386L209.151 74.1129L210.89 72.7361L211.057 72.8618L209.317 74.2386Z" fill="#C7C7C7"/>
<path d="M210.89 74.2386L209.151 72.8618L209.317 72.7361L211.057 74.1129L210.89 74.2386Z" fill="#C7C7C7"/>
<path d="M224.053 90.105C224.657 87.1682 222.138 84.4002 218.427 83.9224C214.716 83.4446 211.219 85.4381 210.615 88.3749C210.011 91.3116 212.53 94.0797 216.241 94.5574C219.952 95.0352 223.449 93.0417 224.053 90.105Z" fill="#C7C7C7"/>
<path d="M220.723 87.8867H213.976V92.7354H220.723V87.8867Z" fill="white"/>
<path d="M220.05 89.3832H219.369V87.2163C219.338 86.8101 219.112 86.4287 218.737 86.1498C218.363 85.871 217.868 85.7158 217.354 85.7158C216.839 85.7158 216.344 85.871 215.97 86.1498C215.595 86.4287 215.369 86.8101 215.338 87.2163V89.3832H214.65V87.2163C214.65 86.6495 214.934 86.1059 215.44 85.7052C215.947 85.3044 216.634 85.0792 217.35 85.0792C218.066 85.0792 218.753 85.3044 219.259 85.7052C219.765 86.1059 220.05 86.6495 220.05 87.2163V89.3832Z" fill="white"/>
<path d="M217.637 90.3709L217.917 91.4304H216.722L217.002 90.3709C216.916 90.3279 216.846 90.2686 216.797 90.1986C216.748 90.1285 216.723 90.0499 216.722 89.9698C216.722 89.8444 216.785 89.7241 216.897 89.6354C217.009 89.5468 217.161 89.4969 217.319 89.4969C217.478 89.4969 217.63 89.5468 217.742 89.6354C217.854 89.7241 217.917 89.8444 217.917 89.9698C217.916 90.0499 217.89 90.1285 217.842 90.1986C217.793 90.2686 217.722 90.3279 217.637 90.3709Z" fill="#C7C7C7"/>
<path d="M56.6996 37.5639L102.615 43.6449L108.189 17.2839L62.2735 11.2029L56.6996 37.5639Z" fill="#EBEBEB"/>
<path d="M58.9213 36.3045L101.025 41.8806L105.96 18.5424L63.8561 12.9663L58.9213 36.3045Z" fill="white"/>
<path d="M67.415 20.2507C67.3005 20.7959 67.3928 21.3557 67.6802 21.8595C67.9676 22.3632 68.4373 22.7882 69.0298 23.0807C69.6223 23.3732 70.3111 23.5202 71.0091 23.5031C71.7071 23.4859 72.3831 23.3054 72.9515 22.9843C73.5199 22.6632 73.9553 22.216 74.2027 21.6991C74.45 21.1822 74.4982 20.6189 74.3412 20.0804C74.1842 19.5419 73.829 19.0522 73.3205 18.6734C72.8119 18.2946 72.173 18.0436 71.4842 17.9521C70.5596 17.8308 69.612 18.0047 68.8492 18.4356C68.0864 18.8665 67.5706 19.5193 67.415 20.2507Z" fill="#DBDBDB"/>
<path d="M78.6851 33.7551L102.102 36.8619L93.0485 22.7469L78.6851 33.7551Z" fill="#DBDBDB"/>
<path d="M69.5103 32.546L88.8354 35.108L80.9011 25.6501L69.5103 32.546Z" fill="#EBEBEB"/>
<path d="M102.103 36.8477L59.9993 31.2715L58.9357 36.3017L101.04 41.8778L102.103 36.8477Z" fill="#EBEBEB"/>
<path d="M43.514 45.8948L90.0684 45.8948V19.1672L43.514 19.1672L43.514 45.8948Z" fill="#EBEBEB"/>
<path d="M45.4427 44.3564L88.1321 44.3564V20.6936L45.4427 20.6936L45.4427 44.3564Z" fill="white"/>
<path d="M50.427 27.4219C50.4255 27.9763 50.6318 28.5185 51.0199 28.98C51.4079 29.4415 51.9603 29.8015 52.6069 30.0144C53.2536 30.2274 53.9656 30.2837 54.6527 30.1763C55.3399 30.0689 55.9713 29.8025 56.4671 29.411C56.9629 29.0194 57.3008 28.5203 57.438 27.9767C57.5752 27.4331 57.5056 26.8695 57.2379 26.3573C56.9702 25.845 56.5165 25.4071 55.9342 25.099C55.3519 24.7909 54.6672 24.6265 53.9668 24.6265C53.0293 24.6265 52.1301 24.9208 51.4665 25.4449C50.8028 25.969 50.429 26.68 50.427 27.4219Z" fill="#DBDBDB"/>
<path d="M64.3972 39.2683H88.1396L76.2646 26.53L64.3972 39.2683Z" fill="#DBDBDB"/>
<path d="M55.0864 39.2743H74.6915L64.8889 30.9776L55.0864 39.2743Z" fill="#EBEBEB"/>
<path d="M88.132 39.2623H45.4426V44.3624H88.132V39.2623Z" fill="#EBEBEB"/>
<path d="M115.634 145.945H48.8918V219.04H115.634V145.945Z" fill="#EBEBEB"/>
<path d="M118.871 143.233H45.6619V145.945H118.871V143.233Z" fill="#DBDBDB"/>
<path d="M141.887 143.233H118.863V145.945H141.887V143.233Z" fill="#EBEBEB"/>
<path d="M138.249 145.945H115.633V219.04H138.249V145.945Z" fill="#DBDBDB"/>
<path d="M108.456 179.784H56.0696V156.355H108.456V179.784ZM56.2662 179.634H108.259V156.492H56.2587L56.2662 179.634Z" fill="#C7C7C7"/>
<path d="M85.1521 163.197H74.9563V167.836H85.1521V163.197Z" fill="#C7C7C7"/>
<path d="M88.2606 167.561H77.8757V163.472H88.2606V167.561ZM78.0648 167.411H88.0716V163.622H78.0648V167.411Z" fill="#C7C7C7"/>
<path d="M108.456 209.211H56.0696V185.77H108.456V209.211ZM56.2662 209.062H108.259V185.92H56.2587L56.2662 209.062Z" fill="#C7C7C7"/>
<path d="M85.1521 192.624H74.9563V197.263H85.1521V192.624Z" fill="#C7C7C7"/>
<path d="M88.2606 196.988H77.8757V192.899H88.2606V196.988ZM78.0648 196.838H88.0716V193.049H78.0648V196.838Z" fill="#C7C7C7"/>
<path d="M7.31396 219.064L44.8449 218.915L82.3682 218.867L157.423 218.765L232.477 218.861L270 218.915L307.531 219.064L270 219.208L232.477 219.262L157.423 219.364L82.3682 219.262L44.8449 219.208L7.31396 219.064Z" fill="#333333"/>
<path d="M46.4636 245.331C64.9607 245.331 79.9555 243.053 79.9555 240.243C79.9555 237.433 64.9607 235.155 46.4636 235.155C27.9665 235.155 12.9717 237.433 12.9717 240.243C12.9717 243.053 27.9665 245.331 46.4636 245.331Z" fill="#EBEBEB"/>
<path d="M171.015 250C243.29 250 301.881 245.452 301.881 239.842C301.881 234.231 243.29 229.683 171.015 229.683C98.7389 229.683 40.1479 234.231 40.1479 239.842C40.1479 245.452 98.7389 250 171.015 250Z" fill="#EBEBEB"/>
<path d="M207.063 151.237L204.862 161.7L189.924 225.529H187.518L198.38 161.7L199.983 151.237H207.063Z" fill="#C7C7C7"/>
<path d="M199.983 151.237H207.063L204.862 161.7H198.38L199.983 151.237Z" fill="#A6A6A6"/>
<path d="M253.965 225.529H251.56L236.622 161.7L234.421 151.237H241.5L243.104 161.7L253.965 225.529Z" fill="#C7C7C7"/>
<path d="M241.5 151.237L243.104 161.7H236.622L234.421 151.237H241.5Z" fill="#A6A6A6"/>
<path d="M298.765 225.529H296.352L281.421 161.7L279.213 151.237H286.292L287.904 161.7L298.765 225.529Z" fill="#C7C7C7"/>
<path d="M287.904 161.7H281.421L279.213 151.237H286.292L287.904 161.7Z" fill="#A6A6A6"/>
<path d="M294.945 156.151H185.507V147.029H226.471L247.809 52.4375H305.897L294.945 156.151Z" fill="#C7C7C7"/>
<path d="M294.476 147.029H185.507V156.151H294.885L294.476 147.029Z" fill="#DBDBDB"/>
<path d="M294.945 156.151H288.978L300.217 52.4375H305.897L294.945 156.151Z" fill="#DBDBDB"/>
<path d="M296.299 39.1964C294.612 37.7299 287.707 33.6294 281.739 31.4146C278.85 30.3192 270.121 27.8829 268.881 29.5769C267.64 31.271 270.129 32.1629 270.129 32.1629C270.129 32.1629 266.241 31.5643 265.205 33.3601C264.169 35.1559 268.064 36.4429 268.064 36.4429C268.064 36.4429 264.025 36.0658 263.148 37.9094C262.27 39.7531 266.468 40.5313 266.468 40.5313C266.468 40.5313 262.792 40.0524 262.883 41.8123C262.989 43.9314 269.887 44.2067 273.011 45.5536C273.722 45.8529 286.837 52.5034 286.837 52.5034L296.299 39.1964Z" fill="#EB9481"/>
<path d="M266.521 40.5493C271.596 40.7648 273.775 41.5609 277.867 43.8536C277.95 43.8955 278.048 43.8117 277.973 43.7578C274.236 41.2257 271.687 39.9207 266.536 40.3517C266.272 40.3757 266.279 40.5373 266.521 40.5493Z" fill="#333333"/>
<path d="M267.852 36.3531C273.101 36.9517 275.469 37.7837 279.954 39.9447C280.022 39.9447 280.09 39.8908 280.03 39.8549C275.839 37.4605 273.268 36.1974 267.928 36.1555C267.708 36.1436 267.633 36.3231 267.852 36.3531Z" fill="#333333"/>
<path d="M270.56 32.1988C275.59 33.0608 278.237 33.8928 282.261 36.4249C282.359 36.4848 282.48 36.383 282.389 36.3172C278.608 33.4139 275.31 32.3544 270.613 32.0791C270.288 32.0611 270.242 32.1449 270.56 32.1988Z" fill="#333333"/>
<path d="M289.03 54.7541C289.03 54.7541 282.707 54.1136 280.007 53.3474C277.307 52.5812 268.609 46.8107 270.068 45.2423C271.967 43.225 277.836 45.7751 280.506 47.3195C280.506 47.3195 284.893 42.6504 289.583 43.7578C294.272 44.8652 289.03 54.7541 289.03 54.7541Z" fill="#EB9481"/>
<path d="M270.817 44.8233C274.228 43.9733 277.564 46.1821 280.294 47.529C280.334 47.5504 280.379 47.564 280.427 47.5684C280.474 47.5729 280.522 47.5681 280.567 47.5546C280.612 47.541 280.652 47.5191 280.683 47.4906C280.715 47.4622 280.737 47.4281 280.748 47.3913C282.753 45.5297 286.262 43.3687 289.507 43.6201C289.527 43.6201 289.546 43.6138 289.56 43.6026C289.575 43.5914 289.583 43.5761 289.583 43.5603C289.583 43.5444 289.575 43.5292 289.56 43.5179C289.546 43.5067 289.527 43.5004 289.507 43.5004C286.073 42.8599 282.405 44.7635 280.37 46.9124C277.602 45.4937 274.13 43.3986 270.779 44.7994C270.787 44.8054 270.802 44.8293 270.817 44.8233Z" fill="#333333"/>
<path d="M235.578 34.1323C237.847 33.3361 246.659 31.2171 253.262 31.0794C256.461 31.0136 265.689 31.5942 265.946 33.5397C266.203 35.4851 263.48 35.5031 263.48 35.5031C263.48 35.5031 267.33 36.2094 267.361 38.1788C267.391 40.1482 263.163 40.0764 263.163 40.0764C263.163 40.0764 267.05 41.0282 266.907 42.9976C266.763 44.967 262.52 44.3265 262.52 44.3265C262.52 44.3265 266.128 45.0687 265.144 46.649C263.957 48.5526 257.505 46.5892 253.965 46.8047C253.164 46.8526 237.771 48.7082 237.771 48.7082L235.578 34.1323Z" fill="#EB9481"/>
<path d="M262.459 44.3504C257.709 42.9197 255.312 42.9437 250.41 43.7518C250.312 43.7518 250.259 43.662 250.357 43.6381C255.077 42.5247 258.072 42.1535 262.558 44.2067C262.777 44.2726 262.686 44.4163 262.459 44.3504Z" fill="#333333"/>
<path d="M263.375 40.0824C258.277 38.9331 255.682 38.939 250.471 39.4838C250.395 39.4838 250.373 39.394 250.471 39.382C255.531 38.532 258.526 38.1848 263.435 39.8968C263.632 39.9447 263.609 40.1362 263.375 40.0824Z" fill="#333333"/>
<path d="M263.057 35.4372C258.019 34.6052 255.176 34.5154 250.199 35.533C250.187 35.5361 250.175 35.5375 250.163 35.5369C250.151 35.5364 250.139 35.5339 250.128 35.5298C250.117 35.5256 250.108 35.5198 250.1 35.5126C250.092 35.5055 250.085 35.4971 250.081 35.4881C250.077 35.4791 250.076 35.4695 250.076 35.4599C250.077 35.4504 250.08 35.441 250.085 35.4324C250.091 35.4238 250.098 35.4161 250.107 35.4097C250.116 35.4034 250.127 35.3985 250.138 35.3953C255.092 33.9647 258.64 34.0545 263.08 35.3115C263.375 35.3833 263.375 35.4731 263.057 35.4372Z" fill="#333333"/>
<path d="M234.572 50.085C234.572 50.085 240.676 51.5336 243.527 51.7012C246.379 51.8688 257.331 49.4026 256.794 47.511C256.091 45.0568 249.42 45.4997 246.205 46.0564C246.205 46.0564 244.594 40.3757 239.723 39.8729C234.852 39.37 234.572 50.085 234.572 50.085Z" fill="#EB9481"/>
<path d="M256.333 46.8765C253.655 44.9969 249.472 45.9427 246.288 46.2779C246.241 46.2853 246.193 46.2835 246.147 46.2727C246.101 46.2619 246.059 46.2423 246.025 46.2158C245.99 46.1893 245.965 46.1565 245.95 46.1204C245.935 46.0843 245.932 46.0459 245.94 46.0086C245.07 43.668 242.975 40.5613 239.889 39.7472C239.799 39.7472 239.829 39.6155 239.889 39.6334C243.361 40.1482 245.736 43.0634 246.485 45.6853C249.745 45.2783 253.996 44.4881 256.318 46.8346C256.371 46.8705 256.355 46.8885 256.333 46.8765Z" fill="#333333"/>
<path d="M252.974 70.8804C235.669 67.1811 208.417 54.796 210.92 48.8339C213.348 43.0395 223.567 36.9816 236.637 33.7611C238.543 33.2883 238.15 36.4549 239.035 41.974C239.466 44.5839 245.252 51.6174 242.461 51.5995C241.002 51.6345 239.565 51.8885 238.225 52.3477C237.204 52.659 249.48 59.1479 256.34 63.2183C265.583 68.6776 260.364 72.4548 252.974 70.8804Z" fill="#EB9481"/>
<path d="M227.992 66.6783L247.173 57.1725C247.173 57.1725 258.693 62.7155 261.544 65.7863C264.396 68.8572 262.149 72.1794 253.224 72.1854C242.96 72.1914 227.992 66.6783 227.992 66.6783Z" fill="#91235B"/>
<g opacity="0.1">
<path opacity="0.1" d="M252.082 59.6746H242.136L243.906 58.8006H250.426L252.082 59.6746Z" fill="#333333"/>
<path opacity="0.1" d="M257.142 62.5479H236.327L238.089 61.6739H255.682L257.142 62.5479Z" fill="#333333"/>
<path opacity="0.1" d="M261.158 65.4152H230.541L232.303 64.5412H260.107C260.508 64.8465 260.863 65.1398 261.158 65.4152Z" fill="#333333"/>
<path opacity="0.1" d="M262.694 68.2885H232.832C231.781 67.9652 230.858 67.6899 230.109 67.4145H262.558C262.657 67.6989 262.703 67.9934 262.694 68.2885Z" fill="#333333"/>
<path opacity="0.1" d="M261.605 70.2878C261.164 70.641 260.653 70.9342 260.092 71.1558H244.027C242.68 70.8924 241.349 70.5991 240.056 70.2878H261.605Z" fill="#333333"/>
</g>
<path d="M233.059 67.8455C240.782 64.1102 248.429 59.8961 249.699 59.076C249.752 59.0401 249.699 58.9742 249.624 58.9982C243.86 61.655 238.303 64.5834 232.984 67.7677C232.971 67.7756 232.962 67.7874 232.96 67.8003C232.958 67.8132 232.962 67.8262 232.972 67.8365C232.982 67.8469 232.997 67.8536 233.013 67.8553C233.03 67.857 233.046 67.8535 233.059 67.8455Z" fill="#333333"/>
<path d="M253.209 72.1854C249.44 72.0904 245.703 71.6095 242.09 70.7547C247.105 68.091 253.065 64.9483 257.429 62.7275C258.95 63.612 260.329 64.6391 261.537 65.7863C264.38 68.8512 262.142 72.1794 253.209 72.1854Z" fill="#333333"/>
<path d="M189.742 237.693C191.875 237.854 249.82 226.918 251.643 225.445C251.87 225.278 250.728 221.111 249.056 215.425V215.311C248.005 211.719 231.131 182.568 231.131 182.568L193.569 190.852L210.633 217.891C210.633 217.891 203.561 221.932 197.51 225.793C193.766 228.151 190.536 230.264 189.856 230.952C188.033 232.73 187.624 237.543 189.742 237.693Z" fill="#EB9481"/>
<path d="M189.75 237.687C191.868 237.848 249.813 226.912 251.651 225.445C251.87 225.278 250.728 221.111 249.056 215.425V215.317C248.678 213.976 246.076 209.074 243.006 203.465C236.826 204.776 214.664 209.517 206.617 211.486L210.663 217.897C210.663 217.897 203.561 221.938 197.51 225.793C193.766 228.145 190.536 230.264 189.856 230.946C188.033 232.73 187.617 237.549 189.75 237.687Z" fill="#EBEBEB"/>
<path d="M189.553 237.908C191.747 238.058 249.73 227.014 251.575 225.487C252.286 224.889 251.008 217.67 247.831 209.995L210.459 217.179C210.459 217.179 191.376 229.151 189.546 230.982C187.715 232.814 187.367 237.765 189.553 237.908Z" fill="#91235B"/>
<path d="M189.825 235.915C199.492 233.874 238.709 226.337 248.451 224.931C248.535 224.931 248.55 224.961 248.451 224.978C238.936 227.163 199.643 234.424 189.848 236.041C189.659 236.077 189.621 235.969 189.825 235.915Z" fill="#333333"/>
<path d="M192.798 228.6C193.872 228.371 194.995 228.321 196.095 228.453C197.195 228.585 198.249 228.896 199.189 229.366C200.885 230.205 202.108 231.527 202.608 233.06C202.608 233.107 202.517 233.131 202.495 233.06C201.7 231.599 200.328 230.382 198.585 229.591C196.842 228.8 194.822 228.477 192.828 228.672C192.819 228.669 192.812 228.665 192.805 228.66C192.799 228.655 192.794 228.649 192.791 228.642C192.788 228.635 192.787 228.627 192.788 228.62C192.789 228.613 192.793 228.606 192.798 228.6Z" fill="#333333"/>
<path d="M207.676 218.502C211.556 217.717 216.397 217.945 219.581 220.004C219.702 220.088 219.581 220.22 219.43 220.196C215.596 219.434 211.671 218.999 207.721 218.897C207.663 218.89 207.61 218.869 207.57 218.836C207.53 218.802 207.505 218.759 207.5 218.713C207.494 218.668 207.509 218.622 207.541 218.583C207.573 218.545 207.62 218.516 207.676 218.502Z" fill="#333333"/>
<path d="M204.953 220.004C208.833 219.22 213.674 219.447 216.858 221.507C216.979 221.584 216.858 221.722 216.707 221.698C212.876 220.939 208.953 220.506 205.006 220.405C204.972 220.408 204.939 220.405 204.907 220.398C204.875 220.39 204.845 220.378 204.819 220.361C204.793 220.345 204.771 220.324 204.755 220.301C204.739 220.277 204.729 220.252 204.726 220.226C204.722 220.199 204.725 220.173 204.735 220.147C204.745 220.122 204.76 220.098 204.781 220.078C204.802 220.057 204.828 220.04 204.858 220.027C204.887 220.015 204.919 220.007 204.953 220.004Z" fill="#333333"/>
<path d="M202.23 221.501C206.11 220.716 210.951 220.944 214.135 223.003C214.256 223.081 214.135 223.219 213.984 223.195C210.154 222.43 206.231 221.995 202.283 221.896C202.225 221.89 202.17 221.87 202.129 221.837C202.088 221.804 202.062 221.761 202.056 221.715C202.05 221.669 202.064 221.623 202.095 221.584C202.127 221.545 202.174 221.515 202.23 221.501Z" fill="#333333"/>
<path d="M199.515 223.003C203.387 222.219 208.228 222.446 211.412 224.5C211.533 224.583 211.412 224.721 211.261 224.697C207.43 223.936 203.508 223.5 199.56 223.398C199.494 223.403 199.428 223.387 199.377 223.353C199.326 223.319 199.294 223.271 199.288 223.219C199.282 223.166 199.302 223.114 199.345 223.074C199.387 223.033 199.448 223.008 199.515 223.003Z" fill="#333333"/>
<path d="M243.754 218.095C248.126 217.274 249.745 222.644 245.373 223.482C241.001 224.32 239.383 218.915 243.754 218.095Z" fill="#333333"/>
<path d="M202.653 215.544C205.407 217.286 209.014 218.029 212.244 219.016C212.318 219.033 212.396 219.036 212.472 219.025C212.548 219.013 212.62 218.988 212.681 218.951C212.742 218.913 212.791 218.865 212.824 218.81C212.857 218.755 212.874 218.694 212.872 218.633C212.888 218.633 212.904 218.63 212.918 218.624C212.933 218.618 212.945 218.609 212.954 218.599C212.963 218.588 212.968 218.576 212.97 218.563C212.971 218.55 212.969 218.537 212.963 218.526C211.82 215.76 209.774 213.282 207.033 211.342C205.414 210.229 202.548 209.439 200.982 211.109C199.484 212.665 201.05 214.527 202.653 215.544ZM201.7 213.024C201.065 209.6 205.671 211.45 206.821 212.306C207.557 212.867 208.244 213.467 208.878 214.102C210.158 215.434 211.352 216.817 212.456 218.244C210.905 217.682 209.309 217.227 207.736 216.712C205.83 216.107 202.048 214.916 201.7 213.024Z" fill="#333333"/>
<path d="M226.184 213.928C225.269 211.977 222.236 212.091 220.284 212.797C216.959 214.05 214.11 215.974 212.025 218.376C212.016 218.386 212.01 218.399 212.008 218.411C212.006 218.424 212.007 218.437 212.012 218.449C212.017 218.461 212.026 218.472 212.037 218.481C212.049 218.49 212.062 218.497 212.078 218.502C212.054 218.56 212.048 218.621 212.06 218.681C212.072 218.742 212.101 218.799 212.146 218.848C212.191 218.898 212.25 218.938 212.318 218.966C212.386 218.994 212.462 219.01 212.539 219.01C215.988 218.783 219.717 218.879 222.977 217.813C224.883 217.203 227.054 215.772 226.184 213.928ZM217.682 217.819C215.988 217.963 214.294 218.041 212.607 218.232C214.177 217.109 215.818 216.051 217.524 215.06C218.354 214.584 219.229 214.157 220.141 213.785C221.547 213.222 226.623 212.48 224.792 215.622C223.786 217.352 219.702 217.646 217.682 217.819Z" fill="#333333"/>
<path d="M207.282 214.371L247.166 205.919C247.166 205.919 212.116 148.399 214.944 145.233C216.359 143.652 253.738 142.318 265.334 134.051C280.393 123.318 269.433 107.712 269.433 107.712H227.636C227.636 107.712 228.393 114.614 226.804 115.692C225.76 116.41 176.128 120.894 171.158 134.314C165.07 150.77 207.282 214.371 207.282 214.371Z" fill="#333333"/>
<path d="M206.587 209.744C207.645 209.355 208.737 209.027 209.854 208.762C211.011 208.445 212.176 208.128 213.333 207.823C215.602 207.224 217.932 206.661 220.246 206.134C224.913 205.069 229.58 204.027 234.285 203.058C236.735 202.555 241.977 201.459 242.31 201.495C242.461 201.495 242.499 201.723 242.363 201.765C237.824 203.07 233.211 204.189 228.604 205.326C223.998 206.464 219.392 207.571 214.725 208.523C213.432 208.786 212.131 209.026 210.837 209.277C209.484 209.594 208.104 209.834 206.708 209.995C206.587 210.001 206.435 209.798 206.587 209.744Z" fill="#455A64"/>
<path d="M207.698 142.659C208.523 142.06 209.778 141.976 210.822 141.809L228.816 138.995C234.428 138.115 240.078 137.313 245.66 136.32C250.282 135.499 254.971 134.434 258.92 132.339C262.783 130.28 265.583 127.191 266.808 123.635C268.087 120.097 268.041 116.326 267.466 112.705C267.323 111.819 267.081 110.939 266.839 110.065C266.839 109.999 266.96 109.975 266.975 110.065C268.76 116.805 269.191 124.671 262.981 130.22C259.956 132.925 255.713 134.578 251.371 135.679C246.462 136.93 241.319 137.589 236.244 138.379L218.25 141.192C215.36 141.641 212.426 142.012 209.567 142.557C208.986 142.63 208.446 142.838 208.016 143.156C207.817 143.4 207.695 143.679 207.662 143.969C207.629 144.259 207.686 144.551 207.827 144.82C208.16 145.933 208.583 147.041 209.03 148.13C212.66 156.953 238.089 198.73 238.778 199.694C238.853 199.795 238.649 199.879 238.573 199.777C232.749 192.103 213.795 159.851 209.831 151.518C208.79 149.386 207.923 147.202 207.237 144.981C206.995 144.179 206.844 143.281 207.698 142.659Z" fill="#455A64"/>
<path d="M87.6782 238.842C89.6598 239.471 149.148 241.877 151.432 240.853C151.705 240.746 152.09 236.49 152.499 230.677L152.801 225.182C152.907 223.326 183.533 196.311 183.533 196.311L140.836 194.27L114.726 224.494C114.726 224.494 106.504 226.798 99.3262 229.133C94.8788 230.581 91.0364 231.868 90.1061 232.377C87.837 233.7 85.6889 238.231 87.6782 238.842Z" fill="#EB9481"/>
<path d="M160.607 217.059C156.16 221.249 152.839 224.559 152.809 225.17L152.499 230.665C152.09 236.49 151.705 240.746 151.432 240.841C149.163 241.865 89.6598 239.459 87.6705 238.836C85.6813 238.213 87.7915 233.688 90.1363 232.365C91.0363 231.862 94.8863 230.569 99.311 229.115C106.481 226.786 114.703 224.482 114.703 224.482L122.267 215.754L160.607 217.059Z" fill="#EBEBEB"/>
<path d="M87.4133 239.01C89.4631 239.644 149.035 241.931 151.379 240.883C152.272 240.488 153.648 233.257 153.285 225.188L114.877 223.745C114.877 223.745 92.3146 230.976 89.9169 232.341C87.5192 233.706 85.3711 238.363 87.4133 239.01Z" fill="#91235B"/>
<path d="M88.389 237.166C98.3882 237.352 138.687 238.866 148.55 239.656C148.634 239.656 148.634 239.704 148.55 239.704C138.634 239.704 98.3503 237.908 88.3814 237.31C88.1696 237.274 88.1772 237.166 88.389 237.166Z" fill="#333333"/>
<path d="M93.8348 230.797C94.9478 230.816 96.0438 231.017 97.0529 231.389C98.0621 231.761 98.9624 232.296 99.6966 232.958C101.028 234.138 101.733 235.68 101.663 237.262C101.663 237.31 101.55 237.304 101.542 237.262C101.299 235.684 100.417 234.212 99.0273 233.064C97.6378 231.917 95.8159 231.157 93.8348 230.899C93.8177 230.899 93.8014 230.893 93.7893 230.884C93.7773 230.874 93.7705 230.861 93.7705 230.848C93.7705 230.834 93.7773 230.821 93.7893 230.812C93.8014 230.802 93.8177 230.797 93.8348 230.797Z" fill="#333333"/>
<path d="M111.7 224.416C115.694 224.524 120.262 225.822 122.584 228.504C122.675 228.606 122.486 228.708 122.372 228.654C118.966 227.071 115.355 225.78 111.602 224.805C111.549 224.786 111.505 224.753 111.478 224.712C111.452 224.671 111.444 224.624 111.455 224.579C111.466 224.534 111.497 224.493 111.541 224.464C111.586 224.434 111.642 224.417 111.7 224.416Z" fill="#333333"/>
<path d="M108.554 225.248C112.555 225.362 117.116 226.655 119.445 229.336C119.529 229.438 119.347 229.54 119.226 229.486C115.822 227.903 112.214 226.612 108.463 225.637C108.398 225.627 108.34 225.598 108.302 225.555C108.265 225.511 108.25 225.458 108.262 225.406C108.274 225.355 108.312 225.309 108.367 225.279C108.421 225.25 108.488 225.238 108.554 225.248Z" fill="#333333"/>
<path d="M105.407 226.086C109.408 226.194 113.977 227.487 116.299 230.168C116.39 230.276 116.201 230.372 116.087 230.324C112.682 228.736 109.071 227.444 105.317 226.469C105.261 226.453 105.214 226.422 105.185 226.381C105.156 226.341 105.146 226.293 105.157 226.247C105.168 226.201 105.199 226.16 105.245 226.13C105.291 226.101 105.348 226.085 105.407 226.086Z" fill="#333333"/>
<path d="M102.261 226.918C106.262 227.026 110.83 228.319 113.152 231.006C113.243 231.108 113.054 231.21 112.941 231.156C109.546 229.573 105.948 228.281 102.208 227.301C102.154 227.286 102.109 227.258 102.078 227.22C102.048 227.182 102.035 227.137 102.041 227.093C102.047 227.048 102.072 227.007 102.112 226.975C102.152 226.943 102.204 226.923 102.261 226.918Z" fill="#333333"/>
<path d="M146.47 232.048C150.956 232.228 150.6 237.747 146.107 237.561C141.615 237.375 141.978 231.862 146.47 232.048Z" fill="#333333"/>
<path d="M107.926 220.459C109.953 222.746 113.152 224.254 115.906 225.924C115.971 225.96 116.047 225.983 116.126 225.99C116.205 225.998 116.285 225.99 116.359 225.968C116.434 225.945 116.5 225.909 116.553 225.862C116.606 225.815 116.643 225.758 116.662 225.697C116.678 225.699 116.694 225.699 116.71 225.696C116.725 225.693 116.74 225.688 116.752 225.68C116.764 225.672 116.774 225.661 116.781 225.65C116.788 225.638 116.791 225.626 116.791 225.613C116.662 222.707 115.572 219.88 113.629 217.412C112.472 215.987 109.998 214.587 107.896 215.838C105.793 217.089 106.746 219.124 107.926 220.459ZM107.926 217.831C108.539 214.407 112.298 217.197 113.1 218.28C113.607 218.983 114.052 219.713 114.431 220.465C115.188 222.034 115.844 223.632 116.397 225.254C115.111 224.368 113.735 223.578 112.411 222.734C110.808 221.71 107.57 219.717 107.903 217.831H107.926Z" fill="#333333"/>
<path d="M131.086 224.14C130.897 222.063 127.947 221.501 125.791 221.746C122.156 222.212 118.739 223.426 115.883 225.266C115.87 225.274 115.86 225.284 115.853 225.295C115.846 225.306 115.843 225.319 115.843 225.332C115.843 225.344 115.846 225.357 115.853 225.368C115.86 225.38 115.87 225.39 115.883 225.397C115.836 225.448 115.805 225.506 115.793 225.568C115.781 225.63 115.789 225.693 115.815 225.752C115.841 225.811 115.885 225.864 115.943 225.907C116.001 225.949 116.071 225.98 116.148 225.996C119.544 226.553 123.084 227.475 126.586 227.193C128.681 226.99 131.26 226.104 131.086 224.14ZM121.548 225.984C119.869 225.745 118.213 225.439 116.526 225.254C118.432 224.524 120.383 223.871 122.373 223.296C123.339 223.029 124.327 222.815 125.33 222.656C126.888 222.428 132.024 222.847 129.15 225.457C127.569 226.894 123.545 226.271 121.548 225.984Z" fill="#333333"/>
<path d="M112.903 218.16L160.607 222.8C160.607 222.8 207.781 178.132 211.594 175.157C223.408 165.938 265.765 150.016 278.403 135.23C289.749 121.935 278.26 107.73 278.26 107.73H231.683C232.877 111.657 234.465 115.503 236.433 119.229C236.433 119.229 197.744 142.282 177.126 158.737C163.837 169.35 112.903 218.16 112.903 218.16Z" fill="#333333"/>
<path d="M228.151 116.847C229.511 117.054 230.845 117.359 232.137 117.757C233.483 118.128 234.814 118.559 236.123 119.02C238.686 119.953 241.183 120.996 243.603 122.145C243.679 122.181 243.603 122.264 243.535 122.234C240.978 121.259 238.346 120.391 235.707 119.559L231.925 118.362C230.615 118.002 229.33 117.588 228.075 117.122C227.886 117.086 227.969 116.847 228.151 116.847Z" fill="#455A64"/>
<path d="M230.601 107.718C231.199 109.388 231.728 111.071 232.394 112.723C232.704 113.477 233.006 114.249 233.4 114.985C233.732 115.584 234.224 116.302 235.147 116.422C236.206 116.56 236.486 115.823 236.372 115.153C236.212 114.383 236.003 113.62 235.744 112.866C235.495 111.998 234.232 107.784 234.232 107.76C234.232 107.736 234.232 107.682 234.285 107.635C234.297 107.626 234.313 107.621 234.33 107.621C234.347 107.621 234.363 107.626 234.375 107.635C234.58 107.718 235.888 110.957 236.16 111.759C236.433 112.561 236.728 113.369 237.008 114.153C237.295 114.746 237.392 115.386 237.287 116.015C237.201 116.314 236.996 116.584 236.702 116.784C236.408 116.985 236.041 117.105 235.654 117.128C235.691 117.182 235.737 117.23 235.775 117.29C235.873 117.452 235.949 117.625 236.032 117.793C236.115 117.96 236.198 118.14 236.274 118.314C236.304 118.398 236.327 118.484 236.342 118.571C236.342 118.673 236.342 118.769 236.342 118.864C236.359 118.898 236.358 118.937 236.34 118.97C236.321 119.004 236.287 119.03 236.244 119.044C236.2 119.057 236.152 119.057 236.11 119.042C236.067 119.028 236.034 119 236.017 118.966C235.956 118.882 235.873 118.816 235.805 118.733C235.74 118.646 235.687 118.553 235.646 118.457C235.57 118.29 235.502 118.122 235.442 117.954C235.381 117.787 235.306 117.613 235.26 117.446C235.235 117.343 235.218 117.239 235.207 117.134C234.762 117.113 234.333 116.995 233.967 116.793C233.355 116.402 232.896 115.881 232.643 115.291C232.295 114.596 232.023 113.878 231.743 113.166C231.027 111.409 230.508 109.607 230.193 107.778C230.183 107.735 230.195 107.691 230.226 107.655C230.257 107.619 230.305 107.595 230.359 107.587C230.413 107.579 230.469 107.588 230.515 107.613C230.56 107.638 230.591 107.676 230.601 107.718Z" fill="#455A64"/>
<path d="M258.428 111.184C258.655 112.01 258.806 112.848 259.078 113.674C259.351 114.501 259.653 115.279 260.024 116.069C260.351 116.83 260.814 117.549 261.4 118.206C262.005 118.824 262.721 119.369 263.526 119.822C265.06 120.729 266.772 121.43 268.593 121.899C269.509 122.146 270.444 122.346 271.392 122.498C271.884 122.57 272.375 122.63 272.905 122.665C273.315 122.668 273.72 122.733 274.1 122.857C274.136 122.874 274.166 122.898 274.186 122.927C274.207 122.956 274.218 122.988 274.218 123.022C274.218 123.055 274.207 123.087 274.186 123.116C274.166 123.145 274.136 123.169 274.1 123.186C273.39 123.372 272.632 123.409 271.899 123.294C269.476 123.157 267.124 122.591 265.016 121.636C263.595 121.041 262.315 120.255 261.234 119.313C260.205 118.322 259.478 117.156 259.108 115.907C258.563 114.386 258.286 112.813 258.284 111.232C258.289 111.221 258.297 111.211 258.307 111.203C258.317 111.194 258.329 111.188 258.343 111.183C258.356 111.179 258.371 111.177 258.385 111.177C258.4 111.177 258.414 111.179 258.428 111.184Z" fill="#455A64"/>
<path d="M123.386 212.623C124.674 212.597 125.962 212.637 127.244 212.743C128.597 212.815 129.944 212.881 131.29 212.965C133.945 213.138 136.585 213.33 139.232 213.563C144.527 214.042 149.882 214.539 155.184 215.12C157.952 215.425 163.89 216.053 164.207 216.191C164.239 216.208 164.264 216.232 164.277 216.26C164.291 216.289 164.292 216.319 164.282 216.349C164.272 216.378 164.251 216.404 164.221 216.423C164.191 216.442 164.155 216.453 164.116 216.454C158.822 216.233 153.527 215.826 148.233 215.431C142.938 215.036 137.644 214.623 132.349 214.042C130.897 213.88 129.445 213.689 127.985 213.515C126.436 213.386 124.9 213.176 123.386 212.887C123.242 212.839 123.212 212.623 123.386 212.623Z" fill="#455A64"/>
<path d="M226.078 166.531C223.605 167.788 221.215 169.141 218.817 170.482C216.528 171.661 214.33 172.949 212.236 174.337C211.204 175.106 210.232 175.923 209.324 176.785L206.48 179.389C204.582 181.119 202.699 182.867 200.83 184.621C199.772 185.606 198.72 186.604 197.676 187.614C196.587 188.649 195.574 189.739 194.477 190.774C194.464 190.787 194.457 190.804 194.459 190.82C194.46 190.837 194.47 190.852 194.485 190.863C194.5 190.875 194.52 190.881 194.541 190.881C194.562 190.881 194.582 190.875 194.598 190.864C196.534 189.134 198.592 187.476 200.528 185.74C202.464 184.004 204.4 182.268 206.314 180.508C208.228 178.748 209.937 177.054 211.904 175.444C213.915 173.939 216.097 172.585 218.424 171.398C221.071 169.901 223.718 168.405 226.312 166.842C226.532 166.711 226.328 166.423 226.078 166.531Z" fill="#455A64"/>
<path d="M235.684 119.487C227.727 123.905 219.498 128.843 212.017 133.746C204.537 138.648 197.132 143.652 189.901 148.8C187.884 150.237 185.867 151.694 183.85 153.17C181.838 154.655 179.872 156.516 177.86 158.001C177.754 158.079 177.92 158.204 178.026 158.127C181.664 155.547 185.423 152.739 189.107 150.201C192.79 147.663 196.444 145.173 200.127 142.677C207.529 137.66 215.025 132.73 222.614 127.885C226.819 125.186 231.69 122.456 235.85 119.672C236.009 119.583 235.82 119.403 235.684 119.487Z" fill="#455A64"/>
<path d="M276.845 112.058C276.392 110.999 275.908 109.945 275.408 108.892C275.408 108.832 275.257 108.892 275.287 108.922C277.163 113.303 279.069 117.793 279.281 122.462C279.412 124.698 279.002 126.933 278.071 129.047C277.099 131.066 275.657 132.924 273.82 134.524C270.114 137.834 265.402 140.444 260.962 143.084C256.121 145.953 251.202 148.747 246.205 151.464C241.228 154.17 236.123 156.75 230.964 159.246C225.806 161.742 220.587 163.993 215.459 166.429C212.972 167.592 210.645 168.956 208.515 170.5C206.367 172.092 204.446 173.858 202.51 175.612C198.365 179.359 194.26 183.134 190.196 186.937C182.032 194.52 174.033 202.216 166.197 210.025C165.239 210.975 164.28 211.931 163.322 212.893C163.277 212.941 163.322 213.006 163.406 212.959C171.474 205.141 179.63 197.379 187.874 189.673C191.969 185.842 196.086 182.031 200.226 178.24C204.196 174.612 208.016 170.763 213.084 168.063C215.527 166.747 218.136 165.627 220.7 164.472C223.388 163.275 226.05 162.041 228.688 160.772C233.947 158.27 239.12 155.676 244.208 152.991C249.268 150.309 254.26 147.561 259.162 144.694C261.602 143.265 264.028 141.809 266.438 140.324C268.523 139.076 270.52 137.739 272.421 136.32C274.301 134.913 275.916 133.301 277.216 131.531C278.524 129.659 279.335 127.596 279.599 125.467C280.173 120.9 278.668 116.332 276.845 112.058Z" fill="#455A64"/>
<path d="M224.149 114.207C224.981 115.464 283.146 126.107 283.554 125.898C284.568 125.299 287.903 83.1458 272.557 64.2898C269.857 60.9676 263.291 60.351 259.91 61.0454C258.224 61.3926 251.288 66.0677 248.111 70.7427C244.934 75.4178 223.635 113.405 224.149 114.207Z" fill="#91235B"/>
<g opacity="0.1">
<path opacity="0.1" d="M270.401 62.5479H257.006C257.535 62.2007 258.027 61.9074 258.458 61.6739H268.404C269.111 61.9019 269.781 62.1952 270.401 62.5479Z" fill="#333333"/>
<path opacity="0.1" d="M273.427 65.4152H253.148C253.504 65.1099 253.867 64.8166 254.222 64.5412H272.753C272.988 64.8285 273.207 65.1159 273.427 65.4152Z" fill="#333333"/>
<path opacity="0.1" d="M275.348 68.2885H250.1C250.373 67.9892 250.66 67.6899 250.947 67.4145H274.803C274.992 67.7018 275.166 67.9952 275.348 68.2885Z" fill="#333333"/>
<path opacity="0.1" d="M276.929 71.1558H247.846L248.111 70.7427C248.217 70.5931 248.323 70.4375 248.436 70.2878H276.467C276.618 70.5751 276.77 70.8625 276.929 71.1558Z" fill="#333333"/>
<path opacity="0.1" d="M278.229 74.0291H246.084C246.273 73.7178 246.447 73.4305 246.606 73.1551H277.851C277.98 73.4424 278.108 73.7477 278.229 74.0291Z" fill="#333333"/>
<path opacity="0.1" d="M279.349 76.9024H244.405L244.911 76.0284H279.024C279.137 76.3157 279.243 76.609 279.349 76.9024Z" fill="#333333"/>
<path opacity="0.1" d="M280.302 79.7696H242.748C242.915 79.4703 243.081 79.171 243.247 78.8957H280.03L280.302 79.7696Z" fill="#333333"/>
<path opacity="0.1" d="M281.126 82.6429H241.099C241.266 82.3496 241.44 82.0443 241.599 81.769H280.884C280.967 82.0563 281.051 82.3496 281.126 82.6429Z" fill="#333333"/>
<path opacity="0.1" d="M281.822 85.5162H239.466C239.632 85.2229 239.791 84.9176 239.957 84.6423H281.618C281.694 84.9296 281.762 85.2229 281.822 85.5162Z" fill="#333333"/>
<path opacity="0.1" d="M282.435 88.3835H237.855C238.021 88.0902 238.18 87.7849 238.346 87.5096H282.223L282.435 88.3835Z" fill="#333333"/>
<path opacity="0.1" d="M282.98 91.2568H236.244C236.402 90.9695 236.569 90.6582 236.728 90.3829H282.798C282.851 90.6762 282.896 90.9635 282.98 91.2568Z" fill="#333333"/>
<path opacity="0.1" d="M283.38 94.1002H234.648C234.807 93.8069 234.965 93.5016 235.132 93.2262H283.252C283.297 93.5435 283.335 93.8308 283.38 94.1002Z" fill="#333333"/>
<path opacity="0.1" d="M283.736 96.9974H233.059C233.211 96.7101 233.377 96.3988 233.536 96.1235H283.63C283.668 96.4168 283.736 96.7041 283.736 96.9974Z" fill="#333333"/>
<path opacity="0.1" d="M284.023 99.8707H231.478C231.63 99.5834 231.796 99.2721 231.955 98.9967H283.94C283.97 99.29 284.001 99.5774 284.023 99.8707Z" fill="#333333"/>
<path opacity="0.1" d="M284.25 102.738H229.913L230.382 101.864H284.19C284.212 102.157 284.227 102.481 284.25 102.738Z" fill="#333333"/>
<path opacity="0.1" d="M284.409 105.611H228.362L228.831 104.737H284.371C284.386 105.031 284.401 105.324 284.409 105.611Z" fill="#333333"/>
<path opacity="0.1" d="M284.492 108.467H226.842L227.303 107.593H284.492V108.467Z" fill="#333333"/>
<path opacity="0.1" d="M284.568 111.352H225.375C225.503 111.077 225.654 110.783 225.806 110.478H284.56C284.568 110.771 284.568 111.065 284.568 111.352Z" fill="#333333"/>
<path opacity="0.1" d="M284.568 113.351C284.568 113.645 284.568 113.95 284.568 114.225H224.164C224.187 113.929 224.28 113.639 224.437 113.369L284.568 113.351Z" fill="#333333"/>
<path opacity="0.1" d="M284.492 116.248C284.492 116.548 284.492 116.847 284.492 117.122H236.085C234.572 116.817 233.203 116.524 231.925 116.248H284.492Z" fill="#333333"/>
<path opacity="0.1" d="M284.402 119.092C284.402 119.391 284.402 119.69 284.356 119.966H250.683C249.17 119.672 247.657 119.367 246.145 119.092H284.402Z" fill="#333333"/>
<path opacity="0.1" d="M284.205 121.959C284.205 122.264 284.152 122.558 284.122 122.833H265.969L261.241 121.959H284.205Z" fill="#333333"/>
<path opacity="0.1" d="M283.857 124.832C283.82 125.127 283.754 125.42 283.66 125.706H282.147C281.013 125.527 279.251 125.221 277.034 124.832H283.857Z" fill="#333333"/>
</g>
<path d="M269.932 73.9872C280.393 73.3167 297.729 70.3477 307.161 66.2053C312.818 63.7032 313.673 60.345 313.968 57.9985C314.724 51.9287 301.942 42.0757 295.225 38.4003C294.34 37.9154 293.054 41.4831 288.985 45.4877C285.544 48.8818 279.054 52.7129 280.03 53.3653C281.467 54.3231 288.13 57.9566 287.813 58.3936C287.268 59.1419 281.089 61.219 271.831 64.7687C259.411 69.5096 262.558 74.466 269.932 73.9872Z" fill="#EB9481"/>
<path d="M297.449 71.6466L279.508 60.7281C279.508 60.7281 267.368 65.3733 264.169 68.2107C260.969 71.048 262.792 74.5259 271.687 75.2143C281.883 75.9985 297.449 71.6466 297.449 71.6466Z" fill="#91235B"/>
<path d="M292.933 71.9878C286.126 67.2409 278.827 62.6915 277.458 61.9613C277.397 61.9313 277.337 62.0032 277.382 62.0391C282.284 65.6247 287.454 68.9729 292.865 72.0657C292.918 72.0956 292.986 72.0237 292.933 71.9878Z" fill="#333333"/>
<path d="M282.064 74.1069C280.711 74.2897 279.422 74.6978 278.283 75.3041C277.741 75.6236 277.256 75.9979 276.838 76.4175C276.622 76.6187 276.429 76.8351 276.263 77.064C276.094 77.2808 275.95 77.5092 275.832 77.7464C275.832 77.8003 275.908 77.8302 275.945 77.7943C276.165 77.6207 276.346 77.4172 276.573 77.2436C276.8 77.07 277.004 76.8844 277.239 76.7168C277.715 76.3615 278.22 76.0315 278.751 75.7291C279.752 75.0792 280.892 74.5765 282.117 74.2446C282.129 74.2418 282.139 74.2373 282.149 74.2313C282.158 74.2253 282.165 74.2179 282.171 74.2096C282.177 74.2013 282.18 74.1921 282.181 74.1827C282.183 74.1733 282.181 74.1638 282.178 74.1548C282.174 74.1457 282.169 74.1373 282.161 74.13C282.153 74.1227 282.144 74.1167 282.134 74.1123C282.123 74.1078 282.112 74.105 282.1 74.1041C282.088 74.1032 282.076 74.1042 282.064 74.1069Z" fill="#333333"/>
<g opacity="0.1">
<path opacity="0.1" d="M282.495 62.5479H275.022C275.779 62.2246 276.535 61.9493 277.125 61.6739H281.058L282.495 62.5479Z" fill="#333333"/>
<path opacity="0.1" d="M287.208 65.4152H268.76C269.335 65.1219 269.94 64.8166 270.545 64.5412H285.77L287.208 65.4152Z" fill="#333333"/>
<path opacity="0.1" d="M291.927 68.2885H264.07L264.154 68.2106C264.483 67.9264 264.837 67.6604 265.212 67.4145H290.483L291.927 68.2885Z" fill="#333333"/>
<path opacity="0.1" d="M296.64 71.1558H262.724C262.683 70.8663 262.698 70.5735 262.769 70.2878H295.218L296.64 71.1558Z" fill="#333333"/>
<path opacity="0.1" d="M291.194 73.1491C289.847 73.4365 288.342 73.7477 286.746 74.0231H265.764C265.166 73.7908 264.609 73.4969 264.108 73.1491H291.194Z" fill="#333333"/>
</g>
<path d="M258.352 68.8332C261.378 69.8269 267.497 66.762 270.257 63.9845C270.439 63.793 271.112 55.2689 271.468 53.5868C271.536 53.2456 257.619 54.3889 257.619 54.3889C257.936 56.5879 257.91 58.8094 257.543 61.0035C257.49 61.2489 255.455 67.8694 258.352 68.8332Z" fill="#EB9481"/>
<path d="M257.309 61.6799C257.309 61.7158 257.309 61.7518 257.263 61.7937H257.331C257.753 61.8993 258.186 61.9754 258.625 62.0211C265.886 62.8472 269.804 56.1309 271.052 53.515C268.783 53.4611 257.619 54.377 257.619 54.377C257.936 56.576 257.91 58.7975 257.543 60.9915C257.543 61.0753 257.505 61.1532 257.49 61.225C257.448 61.3808 257.387 61.5331 257.309 61.6799Z" fill="#333333"/>
<path d="M255.796 34.7608C255.796 34.7608 251.257 36.2094 250.38 39.8369C249.503 43.4645 250.501 47.2835 250.894 47.4751C251.288 47.6667 255.796 34.7608 255.796 34.7608Z" fill="#333333"/>
<path d="M273.291 40.1841C274.735 43.9733 272.186 54.9037 268.752 57.3401C263.813 60.8658 255.743 61.1891 251.961 56.49C248.293 51.9407 251.961 37.7418 255.743 35.539C261.37 32.2766 271.142 34.5932 273.291 40.1841Z" fill="#EB9481"/>
<path d="M251 44.3504C250.711 45.3537 250.534 46.3753 250.471 47.4033C250.38 48.4628 250.365 49.5223 250.373 50.5818C250.373 50.6417 250.494 50.6357 250.494 50.5818C250.494 49.5403 250.584 48.4987 250.698 47.4631C250.811 46.4275 251.023 45.398 251.091 44.3624C251.099 44.3145 251.015 44.3145 251 44.3504Z" fill="#333333"/>
<path d="M259.532 46.8107C259.532 46.7807 259.6 46.8526 259.593 46.8825C259.396 47.6188 259.328 48.4808 260.115 48.8459C260.115 48.8459 260.115 48.8938 260.115 48.8878C259.109 48.6065 259.214 47.4572 259.532 46.8107Z" fill="#333333"/>
<path d="M260.561 46.1342C262.073 46.2599 261.65 48.6483 260.243 48.5286C258.836 48.4089 259.283 46.0325 260.561 46.1342Z" fill="#333333"/>
<path d="M254.359 46.3258C254.359 46.2959 254.275 46.3258 254.275 46.3797C254.17 47.1279 253.897 47.966 253.005 48.1216V48.1635C254.064 48.1575 254.412 47.0441 254.359 46.3258Z" fill="#333333"/>
<path d="M253.655 45.4578C252.142 45.2004 251.628 47.5769 253.005 47.8163C254.381 48.0558 254.903 45.6733 253.655 45.4578Z" fill="#333333"/>
<path d="M261.945 45.1705C261.564 45.0357 261.192 44.8838 260.833 44.7156C260.412 44.5979 260.051 44.3752 259.804 44.081C259.752 43.9766 259.745 43.8617 259.783 43.7536C259.821 43.6455 259.903 43.5503 260.016 43.4824C260.268 43.3755 260.552 43.3235 260.837 43.332C261.123 43.3404 261.401 43.4088 261.642 43.5303C262.176 43.7161 262.603 44.0536 262.837 44.4761C262.882 44.5742 262.891 44.6804 262.861 44.7822C262.832 44.8839 262.767 44.9769 262.673 45.05C262.579 45.1231 262.46 45.1734 262.331 45.1947C262.202 45.2161 262.068 45.2077 261.945 45.1705Z" fill="#333333"/>
<path d="M252.725 44.1229C253.141 44.1027 253.555 44.0648 253.965 44.0092C254.412 44.0174 254.85 43.9103 255.213 43.7039C255.301 43.6219 255.355 43.5203 255.367 43.4132C255.38 43.306 255.349 43.1984 255.281 43.1053C255.097 42.9376 254.86 42.8112 254.595 42.7388C254.329 42.6663 254.044 42.6502 253.769 42.6923C253.183 42.7165 252.63 42.9129 252.218 43.243C252.14 43.3215 252.091 43.4155 252.076 43.5145C252.061 43.6136 252.081 43.714 252.134 43.8048C252.186 43.8956 252.269 43.9733 252.373 44.0294C252.477 44.0855 252.599 44.1178 252.725 44.1229Z" fill="#333333"/>
<path d="M259.456 53.7784C259.199 53.928 258.935 54.1435 258.587 54.1316C258.239 54.0846 257.907 53.9828 257.611 53.8323C257.611 53.8323 257.55 53.8323 257.566 53.8622C257.673 54.024 257.834 54.1596 258.031 54.2545C258.228 54.3494 258.454 54.4001 258.685 54.4009C258.887 54.3798 259.076 54.3116 259.228 54.205C259.38 54.0983 259.489 53.9581 259.54 53.8023C259.532 53.7844 259.487 53.7604 259.456 53.7784Z" fill="#333333"/>
<path d="M258.859 51.4498C258.57 51.7181 258.214 51.936 257.813 52.0895C257.412 52.243 256.975 52.3289 256.529 52.3417C256.143 52.3555 255.756 52.3273 255.38 52.2579L255.16 52.21C255.093 52.1996 255.027 52.1836 254.964 52.1622C254.914 52.1511 254.871 52.1264 254.841 52.0924C254.812 52.0584 254.799 52.0174 254.805 51.9766C254.801 51.9527 254.801 51.9286 254.805 51.9048V51.8389C254.881 51.2403 255.107 50.4023 255.107 50.4023C254.828 50.4801 253.398 50.8093 253.474 50.516C254.009 47.9511 254.874 45.436 256.053 43.0095C256.091 42.9317 256.25 42.9676 256.227 43.0455C255.743 45.4399 254.714 47.7086 254.207 50.085C254.717 49.9597 255.247 49.8932 255.781 49.8875C255.879 49.9234 255.312 51.5456 255.297 51.809C255.878 51.9224 256.483 51.9417 257.074 51.8655C257.666 51.7894 258.232 51.6195 258.738 51.366C258.859 51.3421 258.927 51.4019 258.859 51.4498Z" fill="#333333"/>
<path d="M255.856 52.0125C256.178 52.4637 256.642 52.8411 257.203 53.1079C257.515 53.2482 257.875 53.3069 258.231 53.2755C258.988 53.2037 259.124 52.6769 259.063 52.1801C259.035 51.925 258.966 51.6736 258.859 51.4319C257.961 51.8731 256.91 52.0765 255.856 52.0125Z" fill="#333333"/>
<path d="M257.203 53.1079C257.514 53.2482 257.875 53.3069 258.231 53.2756C258.988 53.2037 259.124 52.6769 259.063 52.1801C258.666 52.1471 258.267 52.2207 257.93 52.3889C257.592 52.5572 257.336 52.8105 257.203 53.1079Z" fill="#FF98B9"/>
<path d="M272.171 49.0494C270.59 49.229 269.562 45.4219 269.342 43.9733C269.146 42.7043 269.41 38.7774 269.388 38.5021C269.365 38.2267 262.127 41.112 258.488 39.7591C254.85 38.4063 252.846 35.3834 253.043 34.1143C253.239 32.8453 258.602 30.2294 262.724 30.5706C266.846 30.9118 271.574 35.7126 271.574 35.7126C271.024 35.0273 270.543 34.3088 270.137 33.5636C270.235 33.4259 272.708 34.5872 272.905 36.1376C272.905 36.1376 272.746 34.2041 272.958 34.1921C273.17 34.1802 274.902 36.0418 274.198 37.1851C274.198 37.1851 276.248 39.1067 276.119 40.9204C275.991 42.7342 274.032 48.8399 272.171 49.0494Z" fill="#333333"/>
<path d="M255.909 38.7954C256.943 39.4137 258.087 39.906 259.305 40.256C260.688 40.5314 262.135 40.5314 263.518 40.256C264.905 40.0129 266.233 39.5945 267.451 39.0169C268.525 38.514 269.516 37.8676 270.643 37.4425C270.923 37.3348 271.165 37.658 270.968 37.8257C268.897 39.5114 266.194 40.624 263.261 40.9982C261.9 41.1738 260.505 41.0657 259.213 40.6847C257.922 40.3037 256.778 39.6628 255.894 38.8253C255.894 38.8253 255.894 38.7834 255.909 38.7954Z" fill="#333333"/>
<path d="M260.122 50.3424C259.087 50.1194 258.205 49.5813 257.669 48.8456C257.134 48.1099 256.988 47.2363 257.263 46.4156C257.46 45.8369 257.858 45.3135 258.412 44.905C258.966 44.4964 259.653 44.2191 260.397 44.1045C261.14 43.9899 261.909 44.0426 262.616 44.2567C263.323 44.4708 263.941 44.8376 264.397 45.3155C264.854 45.7934 265.133 46.3631 265.201 46.96C265.269 47.5568 265.124 48.1568 264.783 48.6917C264.441 49.2266 263.917 49.675 263.27 49.9858C262.622 50.2967 261.878 50.4576 261.121 50.4502C260.783 50.4496 260.447 50.4134 260.122 50.3424ZM257.785 46.5233C257.604 47.0537 257.626 47.6145 257.848 48.135C258.07 48.6555 258.481 49.1123 259.031 49.4475C259.581 49.7828 260.244 49.9814 260.937 50.0185C261.629 50.0555 262.32 49.9291 262.922 49.6554C263.524 49.3817 264.009 48.9729 264.318 48.4808C264.626 47.9886 264.743 47.4351 264.654 46.8904C264.564 46.3456 264.273 45.834 263.817 45.4203C263.36 45.0065 262.759 44.7092 262.089 44.5659C261.804 44.5081 261.512 44.4759 261.219 44.4701C260.44 44.4631 259.68 44.6609 259.059 45.0325C258.437 45.4041 257.989 45.9285 257.785 46.5233Z" fill="#91235B"/>
<path d="M251.651 49.4445C250.002 49.2709 248.898 47.7086 249.185 45.9547C249.296 45.1603 249.722 44.4141 250.403 43.8236C250.673 43.5543 251.027 43.3449 251.43 43.2158C251.832 43.0867 252.271 43.0423 252.702 43.0869C253.133 43.1314 253.542 43.2635 253.889 43.4703C254.236 43.677 254.51 43.9513 254.684 44.2666C255.145 44.9782 255.312 45.7865 255.16 46.5772C254.888 48.2353 253.466 49.4744 251.915 49.4565L251.651 49.4445ZM250.796 44.117C250.196 44.6448 249.82 45.3085 249.722 46.0145C249.472 47.529 250.365 48.8758 251.719 49.0075C253.073 49.1392 254.374 48.0258 254.631 46.5054C254.761 45.8047 254.613 45.0895 254.207 44.4582C254.06 44.2097 253.84 43.9929 253.565 43.8262C253.29 43.6595 252.968 43.5477 252.626 43.5004H252.422C252.112 43.5076 251.807 43.5662 251.527 43.6724C251.247 43.7786 250.998 43.93 250.796 44.117Z" fill="#91235B"/>
<path d="M257.339 46.8106L257.74 46.5173C257.195 46.0504 255.879 45.362 254.76 46.0923L255.1 46.4216C256.106 45.7511 257.263 46.7568 257.339 46.8106Z" fill="#91235B"/>
<path d="M275.091 49.4685L275.605 49.3248C275.514 49.1332 274.728 47.4811 273.555 47.1997C272.383 46.9184 265.175 46.7328 264.865 46.7209V47.1519C266.952 47.2117 272.572 47.4093 273.411 47.6128C274.251 47.8163 274.886 49.0135 275.091 49.4685Z" fill="#91235B"/>
<path d="M270.31 49.0913C270.31 49.0913 273.532 45.6134 275.537 46.5293C277.541 47.4452 275.045 52.5153 272.648 53.1917C272.347 53.2931 272.023 53.3452 271.697 53.3449C271.37 53.3447 271.047 53.2921 270.746 53.1903C270.446 53.0885 270.175 52.9396 269.949 52.7526C269.723 52.5656 269.548 52.3444 269.433 52.1023L270.31 49.0913Z" fill="#EB9481"/>
<path d="M274.781 47.9719V48.0198C273.101 48.5286 272.186 49.7378 271.536 51.0128C271.636 50.8823 271.771 50.7707 271.932 50.6856C272.092 50.6005 272.274 50.544 272.464 50.5201C272.655 50.4962 272.85 50.5054 273.036 50.5471C273.222 50.5887 273.394 50.6619 273.54 50.7614C273.586 50.7614 273.54 50.8392 273.495 50.8273C273.203 50.7512 272.889 50.7471 272.595 50.8155C272.3 50.884 272.039 51.0217 271.846 51.2104C271.532 51.5341 271.259 51.8809 271.029 52.246C270.953 52.3657 270.681 52.2938 270.742 52.1622C270.772 50.4023 272.489 48.1036 274.781 47.9719Z" fill="#333333"/>
<path d="M275.892 46.5712C275.665 46.4387 275.399 46.3529 275.119 46.3216C274.839 46.2902 274.554 46.3143 274.289 46.3916C274.213 46.3916 274.206 46.4455 274.289 46.4275C274.607 46.3529 274.946 46.3529 275.265 46.4275C275.529 46.4934 276.278 46.7388 276.271 47.9779C276.155 48.9565 275.815 49.9101 275.265 50.7913C275.265 50.8213 275.31 50.8512 275.333 50.8213C275.699 50.2697 275.993 49.6901 276.21 49.0913C276.422 48.4209 276.702 47.1159 275.892 46.5712Z" fill="#333333"/>
<path d="M271.385 64.8106C270.847 65.2835 270.371 65.7803 269.804 66.2293C269.233 66.685 268.632 67.1166 268.004 67.5223C266.788 68.3098 265.469 68.9921 264.07 69.5575C262.625 70.2385 260.942 70.5363 259.268 70.4075C258.508 70.3053 257.799 70.0411 257.215 69.6435C256.631 69.2459 256.195 68.7298 255.955 68.1508C255.251 66.6543 255.728 65.062 256.189 63.4937C256.189 63.4398 256.098 63.4158 256.076 63.4937C255.554 65.1039 255.16 66.4268 255.516 67.9413C255.632 68.5323 255.933 69.091 256.392 69.5667C256.85 70.0423 257.451 70.4198 258.141 70.6649C261.491 71.7663 265.061 69.8568 267.542 68.2226C268.268 67.7427 268.958 67.229 269.607 66.6842C270.302 66.1301 270.935 65.5292 271.498 64.8884C271.521 64.8166 271.43 64.7687 271.385 64.8106Z" fill="#333333"/>
<path d="M299.068 122.953H27.8799V130.585H299.068V122.953Z" fill="#37474F"/>
<path d="M299.068 127.604H27.8799V130.585H299.068V127.604Z" fill="#455A64"/>
<path d="M37.6067 237.675H33.7114L45.0569 130.585H55.0031L37.6067 237.675Z" fill="#455A64"/>
<path d="M55.0031 130.585L53.8383 137.75H44.3005L45.0569 130.585H55.0031Z" fill="#333333"/>
<path d="M289.341 237.675H293.236L281.891 130.585H271.944L289.341 237.675Z" fill="#455A64"/>
<path d="M271.944 130.585L273.109 137.75H282.647L281.891 130.585H271.944Z" fill="#333333"/>
<path d="M195.491 122.947H237.386V120.367L195.491 119.295V122.947Z" fill="#455A64"/>
<path d="M162.558 122.899H190.203C192.563 122.899 189.145 117.583 180.537 115.548C171.93 113.513 159.85 120.906 162.558 122.899Z" fill="#37474F"/>
<path d="M173.405 122.899C172.955 121.78 172.351 120.704 171.605 119.69C171.236 119.195 170.805 118.729 170.319 118.302C169.816 117.87 169.273 117.47 168.693 117.104C169.441 117.279 170.135 117.576 170.727 117.978C171.328 118.381 171.839 118.861 172.24 119.397C172.644 119.929 172.952 120.504 173.155 121.103C173.367 121.686 173.452 122.293 173.405 122.899Z" fill="#333333"/>
<path d="M170.13 117.841C168.677 118.589 167.225 119.259 165.864 120.032C165.182 120.405 164.54 120.822 163.943 121.277C163.33 121.726 162.856 122.281 162.558 122.899C162.578 122.188 162.912 121.506 163.504 120.971C164.053 120.425 164.7 119.945 165.425 119.547C166.141 119.15 166.9 118.806 167.694 118.517C168.473 118.224 169.29 117.997 170.13 117.841Z" fill="#333333"/>
<path d="M142.727 112.609H209.915L199.235 73.0234H132.039L142.727 112.609Z" fill="#455A64"/>
<path d="M140.245 112.609H207.434L196.746 73.0234H129.558L140.245 112.609Z" fill="#37474F"/>
<path d="M176.483 98.4161H178.056L175.666 89.5388H174.093L176.483 98.4161Z" fill="#333333"/>
<path d="M173.374 98.4161H174.948L172.557 89.5388H170.977L173.374 98.4161Z" fill="#333333"/>
<path d="M170.266 98.4161H171.839L169.449 89.5388H167.868L170.266 98.4161Z" fill="#333333"/>
<path d="M167.157 98.4161H168.73L166.34 89.5388H164.759L167.157 98.4161Z" fill="#333333"/>
<path d="M164.041 98.4161H165.622L163.232 89.5388H161.651L164.041 98.4161Z" fill="#333333"/>
<path d="M160.932 98.4161H162.513L160.115 89.5388H158.542L160.932 98.4161Z" fill="#333333"/>
<path d="M157.823 98.4161H159.404L157.007 89.5388H155.433L157.823 98.4161Z" fill="#333333"/>
<path d="M159.245 122.953H192.291V120.918L159.245 120.074V122.953Z" fill="#455A64"/>
<path d="M150.26 122.947H168.004L178.692 100.763H160.947L150.26 122.947Z" fill="#455A64"/>
<path d="M147.34 122.947H165.085L175.764 100.763H158.028L147.34 122.947Z" fill="#333333"/>
<path d="M144.111 41.2197C144.111 41.2197 140.026 67.3127 133.219 73.185C125.095 80.2246 119.203 79.171 115.921 82.8285C112.646 79.189 106.746 80.2246 98.6151 73.179C91.8078 67.3068 87.7385 41.2137 87.7385 41.2137C105.574 34.3657 115.921 26.6857 115.921 26.6857C116.238 26.9311 126.548 34.4795 144.111 41.2197Z" fill="#91235B"/>
<path opacity="0.2" d="M115.921 26.6976V82.8285C112.646 79.189 106.746 80.2246 98.6151 73.179C91.8078 67.3068 87.7385 41.2137 87.7385 41.2137C105.574 34.3657 115.921 26.6857 115.921 26.6857V26.6976Z" fill="#333333"/>
<path opacity="0.1" d="M144.111 41.2203C144.111 41.2203 140.026 67.3133 133.219 73.1856C125.096 80.2252 119.203 79.1716 115.921 82.8291V26.6982C116.238 26.9317 126.548 34.48 144.111 41.2203Z" fill="#333333"/>
<path d="M139.731 43.3208C139.731 43.3208 136.244 65.3673 130.541 70.3237C123.674 76.3097 118.689 75.4058 115.913 78.4767C113.145 75.4058 108.16 76.2858 101.293 70.3237C95.5745 65.3613 92.1028 43.3208 92.1028 43.3208C107.17 37.5323 115.913 31.0495 115.913 31.0495C115.913 31.0495 124.672 37.5323 139.731 43.3208Z" fill="#91235B"/>
<path d="M123.061 51.6354H108.773V61.8954H123.061V51.6354Z" fill="white"/>
<path d="M121.631 54.796H120.179V50.2167C120.133 49.3467 119.663 48.5244 118.869 47.9218C118.075 47.3192 117.017 46.9827 115.917 46.9827C114.817 46.9827 113.759 47.3192 112.965 47.9218C112.17 48.5244 111.701 49.3467 111.655 50.2167V54.796H110.203V50.2167C110.256 49.0457 110.882 47.9369 111.948 47.1236C113.014 46.3103 114.436 45.8558 115.917 45.8558C117.398 45.8558 118.82 46.3103 119.886 47.1236C120.952 47.9369 121.577 49.0457 121.631 50.2167V54.796Z" fill="white"/>
<path d="M116.526 56.8911L117.123 59.1358H114.582L115.18 56.8911C114.946 56.7754 114.765 56.6025 114.666 56.3987C114.568 56.1948 114.555 55.971 114.631 55.761C114.707 55.5511 114.868 55.3665 115.088 55.235C115.308 55.1036 115.577 55.0325 115.853 55.0325C116.129 55.0325 116.397 55.1036 116.618 55.235C116.838 55.3665 116.998 55.5511 117.074 55.761C117.15 55.971 117.138 56.1948 117.039 56.3987C116.94 56.6025 116.76 56.7754 116.526 56.8911Z" fill="#37474F"/>
<path d="M69.2531 113.19H27.8799V85.4983L48.5589 75.1006L69.2531 85.4983V113.19Z" fill="#91235B"/>
<path opacity="0.2" d="M69.2531 113.19H27.8799V85.4983L48.5589 75.1006L69.2531 85.4983V113.19Z" fill="#333333"/>
<path d="M66.916 108.784H30.2095V71.497H57.4614L66.916 78.6024V108.784Z" fill="#EBEBEB"/>
<path d="M57.4612 71.497L66.9158 78.6024H57.4612V71.497Z" fill="#DBDBDB"/>
<path d="M33.7946 78.7101H54.2014V77.7524H33.7946V78.7101Z" fill="#DBDBDB"/>
<path d="M33.7946 81.1285H54.2014V80.1707H33.7946V81.1285Z" fill="#DBDBDB"/>
<path d="M33.7946 83.5408H54.2014V82.5831H33.7946V83.5408Z" fill="#DBDBDB"/>
<path d="M33.7947 85.9652H63.6938V85.0074H33.7947V85.9652Z" fill="#DBDBDB"/>
<path d="M33.7947 88.3775H63.6938V87.4198H33.7947V88.3775Z" fill="#DBDBDB"/>
<path d="M33.7947 90.7959H63.6938V89.8381H33.7947V90.7959Z" fill="#DBDBDB"/>
<path d="M33.7947 93.2083H63.6938V92.2505H33.7947V93.2083Z" fill="#DBDBDB"/>
<path d="M33.7947 95.6326H63.6938V94.6748H33.7947V95.6326Z" fill="#DBDBDB"/>
<path d="M33.7947 98.045H63.6938V97.0872H33.7947V98.045Z" fill="#DBDBDB"/>
<path d="M33.7947 100.463H63.6938V99.5056H33.7947V100.463Z" fill="#DBDBDB"/>
<path d="M33.7947 102.876H63.6938V101.918H33.7947V102.876Z" fill="#DBDBDB"/>
<path d="M33.7947 105.294H63.6938V104.336H33.7947V105.294Z" fill="#DBDBDB"/>
<path d="M69.2531 92.4301V113.19H27.8799V92.4301C29.6573 93.2262 31.4046 94.0583 33.1745 94.8784C34.9443 95.6985 36.6764 96.5365 38.4161 97.3865C40.3574 98.3203 42.2937 99.2661 44.225 100.224H44.293L44.2401 100.26L48.5816 102.409C50.0263 101.69 51.471 100.966 52.9232 100.26L52.8702 100.224H52.9307C54.867 99.2721 56.7958 98.3263 58.7396 97.3865C60.4793 96.5445 62.2265 95.7104 63.9813 94.8844C65.7285 94.0583 67.4757 93.2262 69.2531 92.4301Z" fill="#91235B"/>
<path d="M69.2531 92.4301C67.5816 93.3579 65.8797 94.2259 64.193 95.1597C62.5064 96.0935 60.797 96.9555 59.0876 97.8355C57.3782 98.7154 55.51 99.6732 53.7249 100.583L53.5661 100.673L48.801 103.067L48.5589 103.181L48.332 103.067C46.7437 102.269 45.1578 101.471 43.5745 100.673C43.5163 100.648 43.4607 100.62 43.4081 100.589C41.6079 99.6792 39.8229 98.7932 38.0379 97.8355C36.2529 96.8777 34.6342 96.0397 32.94 95.1657C31.2457 94.2917 29.5515 93.3699 27.8799 92.4361C29.6573 93.2322 31.4046 94.0643 33.1745 94.8844C34.9443 95.7044 36.6764 96.5425 38.4161 97.3925C40.3574 98.3263 42.2937 99.2721 44.225 100.23L48.5665 102.379C50.0112 101.661 51.4558 100.936 52.9081 100.23C54.8444 99.2781 56.7731 98.3323 58.717 97.3925C60.4566 96.5505 62.2038 95.7164 63.9586 94.8903C65.7285 94.0583 67.4757 93.2262 69.2531 92.4301Z" fill="white"/>
<path d="M44.278 100.194L44.225 100.23L43.5746 100.667C42.5383 101.361 41.4719 102.026 40.3902 102.672C39.0742 103.468 37.7278 104.229 36.3739 104.983C35.02 105.737 33.6435 106.467 32.2442 107.174C30.8449 107.88 29.4381 108.574 27.9783 109.209C29.2338 108.341 30.5424 107.527 31.8584 106.737C33.1745 105.947 34.5284 105.174 35.8747 104.42C37.2211 103.666 38.6128 102.936 40.0045 102.229C41.1164 101.631 42.2736 101.104 43.4082 100.583L44.2099 100.224L44.278 100.194Z" fill="white"/>
<path d="M69.1471 109.209C67.6873 108.574 66.2729 107.88 64.8812 107.174C63.4895 106.467 62.1205 105.725 60.7515 104.983C59.3824 104.24 58.0512 103.468 56.7276 102.672C55.6535 102.026 54.5946 101.367 53.566 100.673C53.3391 100.523 53.1197 100.38 52.9079 100.23L52.855 100.194H52.9155L53.7248 100.559C54.882 101.08 55.9939 101.637 57.1209 102.205C58.5202 102.912 59.8892 103.648 61.2507 104.396C62.6121 105.144 63.9509 105.917 65.267 106.713C66.583 107.509 67.8915 108.341 69.1471 109.209Z" fill="white"/>
<path d="M69.1471 118.499C72.9067 118.499 75.9544 116.087 75.9544 113.112C75.9544 110.136 72.9067 107.724 69.1471 107.724C65.3876 107.724 62.3398 110.136 62.3398 113.112C62.3398 116.087 65.3876 118.499 69.1471 118.499Z" fill="#37474F"/>
<path d="M72.5207 111.753H65.7739V116.602H72.5207V111.753Z" fill="white"/>
<path d="M71.8474 113.255H71.1969V111.088C71.1654 110.682 70.9394 110.301 70.5648 110.022C70.1903 109.743 69.6954 109.588 69.1812 109.588C68.667 109.588 68.1721 109.743 67.7975 110.022C67.423 110.301 67.1969 110.682 67.1655 111.088V113.255H66.4847V111.088C66.4653 110.799 66.5207 110.509 66.6474 110.237C66.7742 109.964 66.9697 109.715 67.222 109.505C67.4743 109.294 67.7781 109.127 68.1149 109.012C68.4518 108.898 68.8146 108.838 69.1812 108.838C69.5478 108.838 69.9106 108.898 70.2474 109.012C70.5843 109.127 70.8881 109.294 71.1404 109.505C71.3927 109.715 71.5882 109.964 71.7149 110.237C71.8417 110.509 71.897 110.799 71.8776 111.088L71.8474 113.255Z" fill="white"/>
<path d="M69.4346 114.237L69.722 115.297H68.5194L68.7993 114.237C68.7145 114.194 68.6445 114.134 68.5957 114.064C68.5469 113.994 68.5207 113.916 68.5194 113.836C68.5172 113.752 68.543 113.669 68.5943 113.595C68.6456 113.521 68.7206 113.46 68.8117 113.416C68.9028 113.373 69.0067 113.349 69.1131 113.347C69.2194 113.346 69.3244 113.366 69.4175 113.407C69.5106 113.448 69.5884 113.507 69.6431 113.579C69.6979 113.652 69.7277 113.734 69.7294 113.818C69.7311 113.902 69.7048 113.985 69.653 114.059C69.6013 114.133 69.5259 114.194 69.4346 114.237Z" fill="#37474F"/>
<path d="M100.06 58.6211H30.6104V66.9536H100.06V58.6211Z" fill="white"/>
<path d="M100.43 67.2529H30.2319V58.3217H100.43V67.2529ZM30.9883 66.6543H99.674V58.9203H30.9883V66.6543Z" fill="#EBEBEB"/>
<path d="M28.757 68.1747C32.5166 68.1747 35.5643 65.7627 35.5643 62.7873C35.5643 59.8119 32.5166 57.3999 28.757 57.3999C24.9974 57.3999 21.9497 59.8119 21.9497 62.7873C21.9497 65.7627 24.9974 68.1747 28.757 68.1747Z" fill="#37474F"/>
<path d="M32.1306 61.4225H25.3838V66.2712H32.1306V61.4225Z" fill="white"/>
<path d="M31.4573 62.919H30.7691V60.7581C30.7691 60.3358 30.5571 59.9308 30.1798 59.6322C29.8025 59.3336 29.2907 59.1658 28.7571 59.1658C28.2235 59.1658 27.7118 59.3336 27.3345 59.6322C26.9571 59.9308 26.7452 60.3358 26.7452 60.7581V62.919H26.0569V60.7581C26.0569 60.1913 26.3414 59.6478 26.8478 59.247C27.3542 58.8462 28.041 58.6211 28.7571 58.6211C29.4733 58.6211 30.1601 58.8462 30.6665 59.247C31.1729 59.6478 31.4573 60.1913 31.4573 60.7581V62.919Z" fill="white"/>
<path d="M29.0446 63.9067L29.3245 64.9722H28.1218L28.4093 63.9067C28.3211 63.8657 28.2481 63.8071 28.1976 63.7367C28.1472 63.6662 28.121 63.5866 28.1218 63.5056C28.1385 63.3886 28.209 63.2805 28.3199 63.2021C28.4308 63.1236 28.5744 63.0802 28.7232 63.0802C28.8719 63.0802 29.0155 63.1236 29.1264 63.2021C29.2374 63.2805 29.3079 63.3886 29.3245 63.5056C29.3246 63.5858 29.299 63.6646 29.25 63.7348C29.2011 63.8049 29.1304 63.8641 29.0446 63.9067Z" fill="#37474F"/>
<path d="M42.6516 61.0154H41.8953V64.8285H42.6516V61.0154Z" fill="#37474F"/>
<path d="M44.6787 62.6197H39.8606V63.2183H44.6787V62.6197Z" fill="#37474F"/>
<path d="M43.7069 61.3594L40.3 64.0556L40.8349 64.4789L44.2418 61.7826L43.7069 61.3594Z" fill="#37474F"/>
<path d="M40.84 61.3594L40.3052 61.7827L43.7121 64.4789L44.2469 64.0556L40.84 61.3594Z" fill="#37474F"/>
<path d="M50.8279 61.0154H50.0715V64.8285H50.8279V61.0154Z" fill="#37474F"/>
<path d="M52.8625 62.6197H48.0444V63.2183H52.8625V62.6197Z" fill="#37474F"/>
<path d="M51.8913 61.3588L48.4844 64.0551L49.0192 64.4784L52.4261 61.7821L51.8913 61.3588Z" fill="#37474F"/>
<path d="M49.0192 61.3631L48.4844 61.7863L51.8913 64.4826L52.4261 64.0593L49.0192 61.3631Z" fill="#37474F"/>
<path d="M59.0117 61.0154H58.2554V64.8285H59.0117V61.0154Z" fill="#37474F"/>
<path d="M61.0388 62.6197H56.2207V63.2183H61.0388V62.6197Z" fill="#37474F"/>
<path d="M60.0631 61.3625L56.6562 64.0588L57.1911 64.4821L60.598 61.7858L60.0631 61.3625Z" fill="#37474F"/>
<path d="M57.1965 61.3626L56.6616 61.7858L60.0685 64.4821L60.6033 64.0588L57.1965 61.3626Z" fill="#37474F"/>
<path d="M67.1956 61.0154H66.4392V64.8285H67.1956V61.0154Z" fill="#37474F"/>
<path d="M69.2226 62.6197H64.4045V63.2183H69.2226V62.6197Z" fill="#37474F"/>
<path d="M68.2475 61.362L64.8406 64.0583L65.3754 64.4815L68.7823 61.7853L68.2475 61.362Z" fill="#37474F"/>
<path d="M65.381 61.362L64.8462 61.7853L68.2531 64.4816L68.7879 64.0583L65.381 61.362Z" fill="#37474F"/>
<path d="M75.3721 61.0154H74.6157V64.8285H75.3721V61.0154Z" fill="#37474F"/>
<path d="M77.4067 62.6197H72.5886V63.2183H77.4067V62.6197Z" fill="#37474F"/>
<path d="M76.4323 61.3615L73.0254 64.0577L73.5602 64.481L76.9671 61.7847L76.4323 61.3615Z" fill="#37474F"/>
<path d="M73.5602 61.3657L73.0254 61.789L76.4323 64.4852L76.9671 64.062L73.5602 61.3657Z" fill="#37474F"/>
<path d="M83.5559 61.0154H82.7996V64.8285H83.5559V61.0154Z" fill="#37474F"/>
<path d="M85.583 62.6197H80.7649V63.2183H85.583V62.6197Z" fill="#37474F"/>
<path d="M84.6115 61.3592L81.2046 64.0555L81.7394 64.4787L85.1463 61.7825L84.6115 61.3592Z" fill="#37474F"/>
<path d="M81.7448 61.3592L81.21 61.7825L84.6168 64.4787L85.1517 64.0554L81.7448 61.3592Z" fill="#37474F"/>
<path d="M41.3581 191.02C41.3581 191.02 24.5894 188.027 15.3996 181.31C6.20971 174.594 1.08154 162.604 1.08154 162.604C7.45363 163.577 13.7356 164.889 19.8848 166.531C21.3976 167.8 24.2415 170.416 25.5727 172.894C25.729 171.381 25.7441 169.86 25.6181 168.345C27.7628 169.081 29.7705 170.046 31.5858 171.212C39.2024 176.474 41.3581 191.02 41.3581 191.02Z" fill="#91235B"/>
<path d="M11.5497 168.441C9.28061 167.183 6.93587 165.98 4.65921 164.717C4.63747 164.7 4.62357 164.678 4.61973 164.654C4.6159 164.63 4.62235 164.606 4.63806 164.585C4.65376 164.564 4.67781 164.548 4.70634 164.54C4.73486 164.531 4.76621 164.53 4.79535 164.538C9.11421 166.579 13.3801 168.764 17.4948 171.05C18.9319 171.847 20.3463 172.679 21.738 173.523L21.4506 173.128C20.9438 172.463 20.4143 171.811 19.8849 171.158C18.8333 169.826 17.6416 168.567 16.3224 167.393C16.277 167.351 16.3224 167.291 16.4056 167.333C17.7141 168.53 19.015 169.728 20.1874 170.967C20.7547 171.565 21.2766 172.164 21.7758 172.828C22.0405 173.157 22.2901 173.493 22.5322 173.828L22.7818 174.169C24.9525 175.516 27.0628 176.923 29.0747 178.407C30.3227 179.329 31.5178 180.275 32.675 181.257C32.0321 179.652 31.4648 178.03 30.7085 176.468C30.7085 176.414 30.7992 176.396 30.8219 176.468C31.5783 178.126 32.3347 179.79 32.9171 181.496C34.2029 182.589 35.4257 183.729 36.5854 184.914C36.5854 184.842 36.5855 184.77 36.5249 184.699C36.3359 184.1 36.1392 183.447 35.9274 182.831C35.519 181.634 35.0727 180.436 34.5584 179.239C33.5877 176.793 32.0487 174.511 30.0202 172.511C29.9748 172.463 30.0202 172.403 30.1034 172.445C33.3785 175.516 35.2996 179.197 36.5249 183.058C36.6989 183.627 36.8729 184.19 37.0317 184.758C37.1225 185.058 37.2208 185.357 37.2889 185.674C37.7956 186.219 38.2873 186.764 38.8016 187.326C41.6601 190.785 44.0388 194.478 45.8963 198.341C47.995 202.677 49.7903 207.101 51.2741 211.594C51.2741 211.683 51.1379 211.713 51.1001 211.63C47.8175 203.848 44.4744 195.988 38.8545 189.05C37.6702 187.585 36.3928 186.169 35.0273 184.806C32.2501 184.665 29.5085 184.234 26.8737 183.525C23.9966 182.758 21.2523 181.708 18.7049 180.401C17.2632 179.625 15.8723 178.792 14.5374 177.904C14.5293 177.901 14.5223 177.896 14.5168 177.891C14.5114 177.885 14.5076 177.878 14.5058 177.871C14.504 177.864 14.5042 177.857 14.5064 177.85C14.5087 177.843 14.5128 177.837 14.5186 177.831C14.5244 177.826 14.5317 177.821 14.54 177.818C14.5482 177.815 14.5572 177.814 14.5662 177.814C14.5753 177.814 14.5842 177.816 14.5923 177.819C14.6004 177.822 14.6075 177.827 14.613 177.833C16.9539 179.323 19.5389 180.555 22.2977 181.496C25.0081 182.479 27.8427 183.232 30.7539 183.741C31.9943 183.956 33.2499 184.112 34.5357 184.25C32.9843 182.733 31.3358 181.281 29.5966 179.898C29.0293 179.455 28.4469 179.024 27.8645 178.593C25.909 177.51 23.8331 176.57 21.6623 175.785C18.9167 174.732 16.2165 173.618 13.4936 172.523C11.9808 171.924 10.4681 171.272 8.8873 170.679C8.82679 170.649 8.8873 170.578 8.94781 170.601C11.7085 171.655 14.5071 172.637 17.2678 173.648C19.8924 174.594 22.5624 175.546 25.0509 176.641L25.3685 176.791C23.0944 175.227 20.7522 173.728 18.3419 172.296C16.0955 170.991 13.8415 169.692 11.5497 168.441Z" fill="#333333"/>
<path d="M12.5025 175.277C13.864 175.749 15.2557 176.168 16.602 176.671C17.9484 177.174 19.3023 177.785 20.6259 178.401C20.6788 178.431 20.6259 178.491 20.5654 178.473C19.2342 177.964 17.8803 177.491 16.5566 176.965C15.233 176.438 13.8564 175.845 12.4647 175.366C12.4042 175.342 12.4344 175.253 12.5025 175.277Z" fill="#333333"/>
<path d="M95.824 124.15C92.7262 127.313 90.9734 131.17 90.8168 135.17C90.7563 136.367 90.9984 138.014 91.1723 139.959C84.9172 142.587 80.2277 147.376 80.2277 147.376C83.7826 145.688 88.6536 144.981 91.2858 145.281C91.2001 146.613 90.9851 147.937 90.6429 149.243C89.4856 149.189 87.2392 149.315 83.533 150.357C85.7357 150.339 87.9194 150.681 89.947 151.362C86.9594 158.893 78.0721 166.621 53.5431 169.919C50.937 160.686 52.472 151.022 57.8846 142.587C65.2365 131.136 95.824 124.15 95.824 124.15Z" fill="#91235B"/>
<path d="M45.049 202.1C45.4726 198.883 46.002 195.677 46.6374 192.48C47.8806 186.085 49.5316 179.744 51.584 173.481C52.5457 170.54 53.7277 167.648 55.1238 164.819C55.0544 164.302 55.0266 163.782 55.0406 163.263C55.0406 162.664 55.0406 162.018 55.0406 161.401C55.0406 160.156 55.1163 158.913 55.2675 157.672C55.5181 155.217 56.024 152.782 56.7803 150.393C57.2265 149.01 57.7484 147.651 58.293 146.28C58.293 146.226 58.4216 146.25 58.3989 146.28C57.5889 148.667 56.9849 151.095 56.5912 153.547C56.1535 155.964 55.8783 158.398 55.7667 160.838C55.7667 161.503 55.7213 162.167 55.7213 162.838C55.7213 163.119 55.7213 163.406 55.7213 163.694C56.9227 161.382 58.3019 159.131 59.8511 156.953C62.3443 153.484 65.1501 150.161 68.2468 147.011C68.2547 146.644 68.3233 146.28 68.451 145.927C68.5645 145.49 68.6855 145.059 68.8065 144.628C69.0561 143.742 69.3359 142.832 69.6461 141.982C70.2512 140.222 71.0605 138.522 71.7563 136.786C71.7563 136.727 71.8849 136.757 71.8622 136.786C71.2117 138.504 70.7806 140.288 70.289 142.036C70.0394 142.904 69.8049 143.772 69.5326 144.64C69.4116 145.071 69.2906 145.502 69.1771 145.939V146.035C70.168 145.047 71.1815 144.065 72.2026 143.108C76.8845 138.762 82.0353 134.727 87.1938 130.771C87.8291 130.28 88.4796 129.801 89.1225 129.316C89.1341 129.31 89.1477 129.308 89.1612 129.309C89.1747 129.31 89.1873 129.315 89.1969 129.323C89.2065 129.331 89.2126 129.34 89.2142 129.351C89.2158 129.362 89.2128 129.373 89.2057 129.382C84.2666 133.464 79.3729 137.589 74.7894 141.904C73.7002 142.934 72.6186 143.97 71.5597 145.023C72.1194 144.724 72.6791 144.425 73.2312 144.149C74.6608 143.407 76.1054 142.689 77.5955 142.03C79.0855 141.372 80.5831 140.725 82.1337 140.121C83.6842 139.516 85.3936 139.001 86.9064 138.325C86.9744 138.295 87.0274 138.379 86.9669 138.403C85.4156 138.97 83.919 139.626 82.4892 140.366C80.9764 141.066 79.4637 141.773 78.0342 142.509C76.6046 143.245 75.1448 143.946 73.7153 144.682C72.5203 145.281 71.3479 145.963 70.1074 146.532C67.263 149.422 64.6388 152.445 62.2488 155.583C60.7629 157.559 59.4072 159.595 58.1871 161.682L59.0645 161.383L61.3336 160.593C62.7782 160.084 64.2305 159.587 65.6751 159.09C68.4283 158.145 71.2193 157.295 73.9195 156.235C75.4403 155.67 76.911 155.024 78.3216 154.302C78.3821 154.266 78.435 154.343 78.3821 154.379C73.3523 157.121 67.7098 159.054 62.1429 161.006L59.7301 161.85C59.0645 162.083 58.3989 162.341 57.7182 162.544C56.0723 165.457 54.6848 168.458 53.5657 171.523C51.3868 177.707 49.6195 183.977 48.2711 190.307C46.8643 196.647 45.9113 203.034 45.1776 209.463C45.0793 210.265 44.9885 211.061 44.875 211.857C44.875 211.924 44.8416 211.988 44.782 212.035C44.7224 212.082 44.6416 212.109 44.5574 212.109C44.4731 212.109 44.3923 212.082 44.3327 212.035C44.2732 211.988 44.2397 211.924 44.2397 211.857C44.2019 208.595 44.6179 205.332 45.049 202.1Z" fill="#333333"/>
<path d="M59.9721 148.483C60.4259 146.508 61.0915 144.58 61.7647 142.647C61.7647 142.587 61.8857 142.617 61.8706 142.647C61.2504 144.544 60.8041 146.478 60.3578 148.405C59.9116 150.333 59.488 152.338 59.1401 154.314C59.1401 154.343 59.072 154.349 59.072 154.314C59.2361 152.358 59.5365 150.412 59.9721 148.483Z" fill="#333333"/>
<path d="M70.5464 153.835C72.2529 152.938 74.0373 152.138 75.8863 151.44C76.7788 151.075 77.6865 150.728 78.5865 150.381C79.4866 150.034 80.4926 149.722 81.4153 149.357C81.4278 149.355 81.441 149.355 81.4529 149.359C81.4649 149.363 81.4749 149.37 81.4817 149.378C81.4884 149.387 81.4915 149.397 81.4905 149.407C81.4894 149.418 81.4843 149.427 81.4759 149.435C80.5758 149.788 79.7287 150.219 78.8437 150.602C77.9588 150.985 77.036 151.392 76.1208 151.799C74.3282 152.56 72.5659 153.404 70.6825 154.026C70.6504 154.04 70.6125 154.044 70.577 154.036C70.5415 154.028 70.5115 154.01 70.4934 153.984C70.4754 153.959 70.4708 153.929 70.4807 153.901C70.4907 153.873 70.5143 153.849 70.5464 153.835Z" fill="#333333"/>
<path opacity="0.1" d="M41.0555 168.033C41.0555 168.033 25.5348 165.1 18.4174 156.864C11.6101 148.998 9.40907 135.589 9.23511 134.41C9.51496 135.487 12.722 147.208 23.2808 152.667C31.3664 156.852 39.1797 160.288 41.0555 168.033Z" fill="#333333"/>
<path d="M41.0555 168.033C41.0555 168.033 25.5348 165.1 18.4174 156.864C11.6101 148.998 9.40908 135.589 9.23512 134.41C9.23217 134.382 9.23217 134.354 9.23512 134.326C9.23512 134.326 16.6778 142.707 24.4986 144.832C32.3194 146.957 43.2943 154.349 41.0555 168.033Z" fill="#91235B"/>
<path d="M11.9732 138.941C13.3519 141.197 14.9449 143.366 16.7383 145.43C18.5482 147.39 20.6942 149.141 23.1145 150.632C25.2248 151.955 27.4561 153.158 29.589 154.451L29.5361 154.391C29.1352 153.924 28.7116 153.463 28.2654 153.021C27.3804 152.123 26.4123 151.273 25.429 150.435C23.5078 148.776 21.5337 147.154 19.8092 145.364C18.8463 144.376 18.0125 143.313 17.3207 142.192C17.3207 142.138 17.3964 142.108 17.4266 142.192C19.9453 146.34 24.9903 148.998 28.5604 152.5C29.0696 152.999 29.5467 153.519 29.9899 154.056C30.3444 154.444 30.6437 154.861 30.8824 155.301C32.8466 156.546 34.6232 157.966 36.177 159.533C36.0431 158.724 35.8358 157.924 35.5567 157.139C35.1944 156.047 34.6393 155.001 33.9079 154.032C33.9079 153.984 33.9684 153.93 34.0062 153.978C34.7573 154.951 35.3639 155.99 35.8139 157.073C36.1473 157.928 36.3454 158.813 36.4039 159.707C37.1704 160.531 37.8702 161.393 38.499 162.287C38.4309 162.024 38.3704 161.76 38.3024 161.497C37.9998 160.3 37.6594 159.054 37.2586 157.851C36.5267 155.405 35.2679 153.076 33.5373 150.967C33.5341 150.957 33.535 150.947 33.5399 150.938C33.5447 150.928 33.5532 150.92 33.5642 150.915C33.5752 150.909 33.588 150.907 33.6008 150.908C33.6137 150.909 33.6258 150.913 33.6356 150.919C35.4135 153.006 36.8042 155.284 37.7653 157.684C38.2645 158.881 38.6579 160.114 39.0058 161.353C39.1797 161.952 39.331 162.55 39.4747 163.149C39.5504 163.46 39.6411 163.783 39.7016 164.107C41.2432 166.778 42.4418 169.566 43.2793 172.427C44.806 177.541 45.9126 182.728 46.5921 187.955C47.3898 193.427 47.746 198.933 47.6586 204.44C47.6586 205.129 47.5981 205.817 47.5452 206.512C47.5452 206.685 47.1972 206.715 47.1897 206.512C47.0384 203.788 46.9476 201.064 46.7434 198.341C46.5392 195.617 46.2366 192.899 45.8736 190.182C45.1658 184.849 44.0851 179.551 42.6363 174.313C41.3808 169.823 39.747 165.304 36.6459 161.371C35.1043 159.415 33.2198 157.641 31.0488 156.103C28.878 154.559 26.5106 153.206 24.2415 151.775C21.9177 150.378 19.8083 148.771 17.9561 146.987C16.0365 145.007 14.3623 142.887 12.9565 140.653C12.5935 140.097 12.2001 139.546 11.8447 138.989C11.8371 138.941 11.9354 138.894 11.9732 138.941Z" fill="#333333"/>
<path d="M14.6506 140.743C15.6631 142.4 16.818 144 18.1072 145.532C18.1072 145.568 18.0618 145.604 18.0315 145.568C16.7013 144.051 15.5325 142.449 14.5371 140.779C14.5068 140.719 14.6127 140.689 14.6506 140.743Z" fill="#333333"/>
<path d="M97.9873 162.604C97.9873 162.604 98.2369 180.053 85.0534 185.088C71.87 190.122 64.7979 185.932 55.8425 187.62C56.1905 187.207 62.5818 179.934 72.7549 177.928C83.223 175.851 94.8181 169.871 97.9873 162.604Z" fill="#91235B"/>
<path opacity="0.1" d="M97.9873 162.604C97.9873 162.604 98.2369 180.053 85.0534 185.088C71.87 190.122 64.7979 185.932 55.8425 187.62C60.5767 185.839 65.6357 184.659 70.8337 184.124C79.1613 183.292 95.0375 179.03 97.9873 162.604Z" fill="#333333"/>
<path d="M54.9726 187.931C56.5407 186.799 58.3059 185.852 60.2142 185.118C60.5016 185.01 60.7891 184.926 61.0765 184.83C61.2152 184.69 61.3642 184.556 61.5227 184.429C61.9138 184.1 62.3279 183.788 62.7632 183.495C63.5866 182.929 64.4726 182.422 65.4105 181.981C67.5964 180.963 69.994 180.251 72.2178 179.311C72.2242 179.308 72.2313 179.307 72.2386 179.306C72.2459 179.305 72.2533 179.306 72.2603 179.308C72.2673 179.309 72.2738 179.312 72.2795 179.316C72.2852 179.319 72.2899 179.324 72.2934 179.329C72.2969 179.334 72.299 179.34 72.2998 179.346C72.3005 179.351 72.2998 179.357 72.2977 179.363C72.2956 179.368 72.2921 179.373 72.2875 179.378C72.2829 179.382 72.2772 179.386 72.2707 179.389C71.1664 179.844 70.0999 180.341 69.0259 180.838C67.9518 181.334 66.9156 181.783 65.8945 182.298C64.9773 182.763 64.105 183.281 63.2851 183.849C63.0582 184.01 62.8312 184.184 62.6119 184.363C64.0688 183.972 65.5571 183.658 67.0669 183.424C69.4797 183.04 71.9152 182.765 74.328 182.358C75.5094 182.16 76.676 181.91 77.8224 181.61C78.9192 180.915 80.0083 180.221 81.0446 179.467C82.3023 178.56 83.4448 177.557 84.4558 176.474C84.5011 176.426 84.5995 176.474 84.5541 176.522C82.9546 178.235 81.143 179.817 79.1461 181.245C79.7133 181.071 80.2806 180.891 80.8328 180.688C85.3605 179.08 89.2471 176.524 92.0724 173.295C92.1178 173.247 92.2161 173.295 92.1707 173.337C89.7776 176.109 86.6878 178.461 83.0943 180.245C81.2902 181.136 79.361 181.857 77.3459 182.394C75.0108 182.97 72.6274 183.416 70.2134 183.729C67.8472 184.036 65.5117 184.476 63.2246 185.046C61.1221 185.61 59.1461 186.434 57.3703 187.488C54.0037 189.557 51.2945 192.22 49.4587 195.264C46.9627 199.221 45.7752 203.644 45.1096 208.02C45.1096 208.206 44.7163 208.206 44.7314 208.02C45.3516 200.651 47.8325 193.025 54.9726 187.931Z" fill="#333333"/>
<path d="M70.2738 182.238C70.9634 181.425 71.8927 180.758 72.9816 180.293C74.233 179.78 75.3315 179.062 76.2037 178.186C76.2491 178.138 76.3474 178.186 76.302 178.234C75.5116 179.033 74.5488 179.716 73.4581 180.251C72.2594 180.752 71.2038 181.443 70.357 182.28C70.3192 182.322 70.236 182.28 70.2738 182.238Z" fill="#333333"/>
<path d="M63.2774 200.807L62.6799 210.402L60.8419 239.716H33.1816L31.3436 210.402L30.7461 200.807H63.2774Z" fill="#37474F"/>
<path d="M63.2774 200.807L62.6799 210.402H31.3436L30.7461 200.807H63.2774Z" fill="#333333"/>
<path d="M65.2137 196.802H28.8022V205.955H65.2137V196.802Z" fill="#37474F"/>
</svg>
