<svg width="32" height="32" viewBox="0 0 32 32" fill="none" xmlns="http://www.w3.org/2000/svg">
<path fill-rule="evenodd" clip-rule="evenodd" d="M16 32C7.163 32 0 24.837 0 16C0 7.163 7.163 0 16 0C24.837 0 32 7.163 32 16C32 24.837 24.837 32 16 32ZM21.236 10.691C20.459 8.719 18.514 8.541 16.248 8.981L15.441 6.168L13.729 6.659L14.514 9.399C14.064 9.527 13.607 9.668 13.152 9.809L12.362 7.051L10.65 7.541L11.456 10.354C11.087 10.468 10.726 10.579 10.37 10.681L10.368 10.673L8.006 11.349L8.531 13.178C8.531 13.178 9.788 12.791 9.774 12.821C10.467 12.621 10.809 12.96 10.974 13.288L11.894 16.493C11.941 16.48 12.004 16.463 12.078 16.453L11.897 16.505L13.184 20.995C13.216 21.222 13.187 21.607 12.703 21.747C12.73 21.76 11.458 22.103 11.458 22.103L11.704 24.246L13.933 23.606C14.347 23.488 14.757 23.378 15.159 23.266L15.975 26.111L17.685 25.621L16.879 22.806C17.3374 22.6843 17.7944 22.5576 18.25 22.426L19.053 25.229L20.765 24.738L19.952 21.898C22.783 20.907 24.59 19.604 24.065 16.828C23.643 14.594 22.34 13.916 20.593 13.992C21.441 13.202 21.807 12.133 21.236 10.691ZM20.585 17.461C21.195 19.588 17.485 20.39 16.325 20.724L15.245 16.954C16.405 16.621 19.949 15.244 20.585 17.462V17.461ZM18.263 12.371C18.817 14.306 15.716 14.951 14.75 15.228L13.77 11.809C14.736 11.532 17.684 10.354 18.263 12.371Z" fill="#27AE60"/>
</svg>
