<svg width="32" height="32" viewBox="0 0 32 32" fill="none" xmlns="http://www.w3.org/2000/svg">
<path d="M16 32C7.163 32 0 24.837 0 16C0 7.163 7.163 0 16 0C24.837 0 32 7.163 32 16C32 24.837 24.837 32 16 32ZM19.086 8.004H11.81L11.208 11.371L17.77 11.381C21.001 11.381 21.96 12.554 21.929 14.501C21.915 15.499 21.48 17.187 21.296 17.731C20.799 19.191 19.775 20.853 15.937 20.848L9.559 20.844L8.957 24.215H16.214C18.773 24.215 19.863 23.916 21.014 23.385C23.568 22.207 25.089 19.684 25.7 16.391C26.606 11.491 25.476 8.004 19.085 8.004H19.086ZM15.806 15.798C16.044 14.813 16.119 14.418 16.119 14.418H8.673C6.769 14.418 6.497 15.658 6.316 16.408C6.079 17.389 6.004 17.789 6.004 17.789H13.451C15.354 17.789 15.626 16.549 15.807 15.798H15.806Z" fill="#4189F7"/>
</svg>
