<svg width="32" height="32" viewBox="0 0 32 32" fill="none" xmlns="http://www.w3.org/2000/svg">
<path fill-rule="evenodd" clip-rule="evenodd" d="M16 32C7.163 32 0 24.837 0 16C0 7.163 7.163 0 16 0C24.837 0 32 7.163 32 16C32 24.837 24.837 32 16 32ZM22.732 16L16 12.19L9.268 16L16 19.781L22.732 15.998V16ZM16 21.047C13.668 19.7273 11.3347 18.41 9 17.095C11.079 20.343 13.66 24.355 16 27.999C18.34 24.356 20.921 20.343 23 17.095C20.6653 18.41 18.332 19.7273 16 21.047ZM16 10.958L23 14.865L16 4L9 14.866L16 10.959V10.958Z" fill="#08515B"/>
<path d="M22.71 15.976L15.989 16.553V12.174L22.709 15.976H22.71ZM15.989 21.014C17.969 19.894 20.526 18.45 22.977 17.07C20.901 20.312 18.325 24.316 15.989 27.952V21.014ZM15.989 10.945V4L22.977 14.845L15.989 10.945Z" fill="#333333"/>
<path fill-rule="evenodd" clip-rule="evenodd" d="M15.989 16.5531L22.709 15.9761L15.989 19.7511V16.5531Z" fill="#333333"/>
<path opacity="0.311" fill-rule="evenodd" clip-rule="evenodd" d="M15.988 16.5531L9.26703 15.9761L15.988 19.7511V16.5531Z" fill="#08515B"/>
</svg>
