<svg width="32" height="32" viewBox="0 0 32 32" fill="none" xmlns="http://www.w3.org/2000/svg">
<path d="M16 0C24.837 0 32 7.163 32 16C32 24.837 24.837 32 16 32C7.163 32 0 24.837 0 16C0 7.163 7.163 0 16 0ZM25.969 13.122H23.269L21.634 16.162C21.5933 16.2356 21.5293 16.2937 21.452 16.327L21.427 16.337C21.3905 16.3508 21.352 16.3589 21.313 16.361L21.297 16.363H11.372L12.727 18.721L19.537 18.711L19.601 18.718C19.6619 18.7286 19.7194 18.7537 19.7685 18.7911C19.8177 18.8285 19.8572 18.8772 19.8837 18.933C19.9101 18.9889 19.9228 19.0503 19.9206 19.1121C19.9184 19.1738 19.9014 19.2342 19.871 19.288V19.287L15.875 26.499H17.182L17.419 26.5H18.447C18.473 26.5 18.552 26.5 18.613 26.39L25.969 13.122ZM18.884 19.485L16.244 19.488L13.899 23.734C13.857 23.811 13.866 23.89 13.886 23.922L14.544 25.012L14.718 25.3L14.888 25.582L15.211 26.116L18.884 19.485ZM8.734 19.65H6L6.909 21.155L7.336 21.862C7.372 21.922 7.451 21.968 7.516 21.968H10.032L8.734 19.65ZM10.718 16.766L9.395 19.259L10.708 21.603L12.045 19.075L10.718 16.765V16.766ZM16.133 5.5H13.53C13.495 5.504 13.434 5.522 13.386 5.61L13.359 5.659C12.912 6.463 7.169 16.822 6.031 18.879H8.726L10.362 15.796C10.3942 15.7357 10.442 15.6852 10.5004 15.6496C10.5588 15.6141 10.6257 15.5949 10.694 15.594C10.6983 15.5929 10.7026 15.5922 10.707 15.592H20.587C20.4083 15.2809 20.2306 14.9693 20.054 14.657C19.775 14.166 19.447 13.587 19.271 13.281L12.633 13.291H12.459C12.4296 13.2906 12.4004 13.2866 12.372 13.279L12.349 13.272C12.3276 13.2656 12.3069 13.2572 12.287 13.247L12.273 13.241L12.261 13.231C12.25 13.225 12.239 13.217 12.228 13.209C12.2084 13.1945 12.1907 13.1777 12.175 13.159L12.162 13.144L12.151 13.129C12.1437 13.1195 12.137 13.1094 12.131 13.099C12.1176 13.078 12.1074 13.0551 12.101 13.031L12.095 13.013L12.09 12.995C12.087 12.9832 12.085 12.9711 12.084 12.959C12.0817 12.9451 12.0804 12.9311 12.08 12.917L12.078 12.903L12.08 12.884C12.08 12.87 12.081 12.855 12.084 12.841L12.092 12.806C12.0986 12.7805 12.1077 12.7558 12.119 12.732L12.127 12.712L16.133 5.5ZM21.29 10.395C20.974 10.974 20.22 12.365 19.933 12.889C20.084 13.152 20.353 13.624 20.72 14.271C20.906 14.599 21.104 14.949 21.264 15.228L22.604 12.74L21.29 10.395ZM16.793 5.893L13.116 12.513L15.756 12.51L18.099 8.266C18.141 8.189 18.132 8.11 18.112 8.078L17.458 6.994L17.284 6.706L17.034 6.29L16.794 5.893H16.793ZM21.967 10.032L23.265 12.35H26L25.154 10.95L24.664 10.139C24.6443 10.1081 24.6175 10.0824 24.5858 10.0639C24.5542 10.0455 24.5186 10.0349 24.482 10.033L21.967 10.032Z" fill="#751C49"/>
</svg>
