<svg width="32" height="32" viewBox="0 0 32 32" fill="none" xmlns="http://www.w3.org/2000/svg">
<path fill-rule="evenodd" clip-rule="evenodd" d="M24.176 17.184L15.806 22.366L7.019 17.976V15.396L16.303 9.59L24.618 13.646V14.009L15.805 19.485L9.056 16.139L8.612 17.035L15.859 20.628L25.618 14.565V13.021L16.243 8.448L6.02 14.842V18.594L15.859 23.51L24.731 18.017L24.516 18.879L25.486 19.121L26.107 16.636L23.622 16.015L23.38 16.985L24.176 17.184ZM16 32C7.163 32 0 24.837 0 16C0 7.163 7.163 0 16 0C24.837 0 32 7.163 32 16C32 24.837 24.837 32 16 32Z" fill="#125618"/>
</svg>
