<svg width="32" height="32" viewBox="0 0 32 32" fill="none" xmlns="http://www.w3.org/2000/svg">
<path fill-rule="evenodd" clip-rule="evenodd" d="M16 32C7.163 32 0 24.837 0 16C0 7.163 7.163 0 16 0C24.837 0 32 7.163 32 16C32 24.837 24.837 32 16 32ZM15.096 19.846C15.6206 19.2694 16.1268 18.6765 16.614 18.068C17.8617 16.5492 19.0998 15.0225 20.328 13.488C20.715 13.008 21.296 12.53 21.393 11.983C21.587 10.957 21.458 9.863 21.458 8.735H17.55V6H14.418V8.803H10.833V12.153H16.872C16.322 12.803 15.839 13.35 15.354 13.932C14.1063 15.4508 12.8682 16.9774 11.64 18.512C11.285 18.992 10.704 19.47 10.607 20.017C10.413 21.043 10.542 22.137 10.542 23.231H14.418V26H17.679C17.615 25.043 17.582 24.154 17.518 23.197H21.393V19.847H15.096V19.846Z" fill="#2F80ED"/>
</svg>
