<svg width="32" height="32" viewBox="0 0 32 32" fill="none" xmlns="http://www.w3.org/2000/svg">
<path d="M16 0C24.837 0 32 7.163 32 16C32 24.837 24.837 32 16 32C7.163 32 0 24.837 0 16C0 7.163 7.163 0 16 0ZM24.8 9.568L23.02 12.338C23.5879 13.4509 23.8814 14.6836 23.876 15.933C23.876 20.333 20.316 23.876 15.933 23.876C14.6893 23.8816 13.4624 23.588 12.356 23.02L9.568 24.817C11.365 26.093 13.548 26.866 15.916 26.866C21.945 26.866 26.849 21.979 26.849 15.933C26.8548 13.7742 26.2147 11.6631 25.011 9.871L24.8 9.568ZM15.933 5C14.4969 4.99868 13.0746 5.28058 11.7476 5.82955C10.4205 6.37851 9.21475 7.18378 8.19927 8.19927C7.18378 9.21475 6.37851 10.4205 5.82955 11.7476C5.28058 13.0746 4.99868 14.4969 5 15.933C5 18.368 5.79 20.602 7.133 22.415C7.653 21.475 8.275 20.618 8.997 19.845C8.997 19.845 10.072 18.721 10.895 18.15C13.1359 16.5087 15.8423 15.6259 18.62 15.63C19.418 15.63 20.192 15.7 20.953 15.84L21.408 15.933C21.4075 14.4766 20.8287 13.08 19.7988 12.0502C18.769 11.0203 17.3724 10.4415 15.916 10.441C15.1544 10.4417 14.4012 10.6011 13.7046 10.9091C13.0081 11.2172 12.3833 11.667 11.8703 12.23C11.3573 12.7929 10.9673 13.4567 10.7252 14.1788C10.483 14.9009 10.3941 15.6656 10.464 16.424L10.492 16.672C9.115 17.73 8.46 18.552 8.426 18.586C8.12905 17.7387 7.97593 16.8478 7.973 15.95C7.973 11.55 11.533 8.006 15.916 8.006C17.209 8.006 18.418 8.308 19.493 8.863L22.264 7.066C20.4285 5.71877 18.2098 4.99475 15.933 5ZM18.687 16.621C15.967 16.621 13.431 17.495 11.382 18.973C11.8827 19.7195 12.5599 20.3309 13.3537 20.7527C14.1475 21.1745 15.0331 21.3938 15.932 21.391C17.2131 21.3914 18.4538 20.9431 19.4388 20.124C20.4238 19.3049 21.0908 18.1667 21.324 16.907C20.4577 16.7179 19.5737 16.622 18.687 16.621Z" fill="black"/>
</svg>
