<svg width="12" height="12" viewBox="0 0 12 12" fill="none" xmlns="http://www.w3.org/2000/svg">
<path fill-rule="evenodd" clip-rule="evenodd" d="M6 0C2.68636 0 0 2.68636 0 6C0 9.31364 2.68636 12 6 12C9.31364 12 12 9.31364 12 6C12 2.68636 9.31364 0 6 0ZM5.72727 2.72727C5.58261 2.72727 5.44387 2.78474 5.34158 2.88703C5.23929 2.98933 5.18182 3.12806 5.18182 3.27273C5.18182 3.41739 5.23929 3.55613 5.34158 3.65842C5.44387 3.76071 5.58261 3.81818 5.72727 3.81818H6C6.14466 3.81818 6.2834 3.76071 6.38569 3.65842C6.48799 3.55613 6.54545 3.41739 6.54545 3.27273C6.54545 3.12806 6.48799 2.98933 6.38569 2.88703C6.2834 2.78474 6.14466 2.72727 6 2.72727H5.72727ZM4.90909 4.90909C4.76443 4.90909 4.62569 4.96656 4.5234 5.06885C4.4211 5.17114 4.36364 5.30988 4.36364 5.45455C4.36364 5.59921 4.4211 5.73795 4.5234 5.84024C4.62569 5.94253 4.76443 6 4.90909 6H5.45455V7.63636H4.90909C4.76443 7.63636 4.62569 7.69383 4.5234 7.79612C4.4211 7.89842 4.36364 8.03716 4.36364 8.18182C4.36364 8.32648 4.4211 8.46522 4.5234 8.56751C4.62569 8.66981 4.76443 8.72727 4.90909 8.72727H7.09091C7.23557 8.72727 7.37431 8.66981 7.4766 8.56751C7.5789 8.46522 7.63636 8.32648 7.63636 8.18182C7.63636 8.03716 7.5789 7.89842 7.4766 7.79612C7.37431 7.69383 7.23557 7.63636 7.09091 7.63636H6.54545V5.45455C6.54545 5.30988 6.48799 5.17114 6.38569 5.06885C6.2834 4.96656 6.14466 4.90909 6 4.90909H4.90909Z" fill="#751C49"/>
</svg>
