<svg width="24" height="24" viewBox="0 0 24 24" fill="none" xmlns="http://www.w3.org/2000/svg">
<path d="M9.25 12.8125C9.25 13.1606 9.11172 13.4944 8.86558 13.7406C8.61944 13.9867 8.2856 14.125 7.9375 14.125C7.5894 14.125 7.25556 13.9867 7.00942 13.7406C6.76328 13.4944 6.625 13.1606 6.625 12.8125C6.625 12.4644 6.76328 12.1306 7.00942 11.8844C7.25556 11.6383 7.5894 11.5 7.9375 11.5C8.2856 11.5 8.61944 11.6383 8.86558 11.8844C9.11172 12.1306 9.25 12.4644 9.25 12.8125ZM9.25 16.75C9.25 17.0981 9.11172 17.4319 8.86558 17.6781C8.61944 17.9242 8.2856 18.0625 7.9375 18.0625C7.5894 18.0625 7.25556 17.9242 7.00942 17.6781C6.76328 17.4319 6.625 17.0981 6.625 16.75C6.625 16.4019 6.76328 16.0681 7.00942 15.8219C7.25556 15.5758 7.5894 15.4375 7.9375 15.4375C8.2856 15.4375 8.61944 15.5758 8.86558 15.8219C9.11172 16.0681 9.25 16.4019 9.25 16.75ZM15.8125 14.125C16.1606 14.125 16.4944 13.9867 16.7406 13.7406C16.9867 13.4944 17.125 13.1606 17.125 12.8125C17.125 12.4644 16.9867 12.1306 16.7406 11.8844C16.4944 11.6383 16.1606 11.5 15.8125 11.5C15.4644 11.5 15.1306 11.6383 14.8844 11.8844C14.6383 12.1306 14.5 12.4644 14.5 12.8125C14.5 13.1606 14.6383 13.4944 14.8844 13.7406C15.1306 13.9867 15.4644 14.125 15.8125 14.125ZM17.125 16.75C17.125 17.0981 16.9867 17.4319 16.7406 17.6781C16.4944 17.9242 16.1606 18.0625 15.8125 18.0625C15.4644 18.0625 15.1306 17.9242 14.8844 17.6781C14.6383 17.4319 14.5 17.0981 14.5 16.75C14.5 16.4019 14.6383 16.0681 14.8844 15.8219C15.1306 15.5758 15.4644 15.4375 15.8125 15.4375C16.1606 15.4375 16.4944 15.5758 16.7406 15.8219C16.9867 16.0681 17.125 16.4019 17.125 16.75ZM11.875 14.125C12.2231 14.125 12.5569 13.9867 12.8031 13.7406C13.0492 13.4944 13.1875 13.1606 13.1875 12.8125C13.1875 12.4644 13.0492 12.1306 12.8031 11.8844C12.5569 11.6383 12.2231 11.5 11.875 11.5C11.5269 11.5 11.1931 11.6383 10.9469 11.8844C10.7008 12.1306 10.5625 12.4644 10.5625 12.8125C10.5625 13.1606 10.7008 13.4944 10.9469 13.7406C11.1931 13.9867 11.5269 14.125 11.875 14.125ZM13.1875 16.75C13.1875 17.0981 13.0492 17.4319 12.8031 17.6781C12.5569 17.9242 12.2231 18.0625 11.875 18.0625C11.5269 18.0625 11.1931 17.9242 10.9469 17.6781C10.7008 17.4319 10.5625 17.0981 10.5625 16.75C10.5625 16.4019 10.7008 16.0681 10.9469 15.8219C11.1931 15.5758 11.5269 15.4375 11.875 15.4375C12.2231 15.4375 12.5569 15.5758 12.8031 15.8219C13.0492 16.0681 13.1875 16.4019 13.1875 16.75ZM8.59375 3.625C8.07161 3.625 7.57085 3.83242 7.20163 4.20163C6.83242 4.57085 6.625 5.07161 6.625 5.59375V6.90625C6.625 7.42839 6.83242 7.92915 7.20163 8.29837C7.57085 8.66758 8.07161 8.875 8.59375 8.875H15.1563C15.6784 8.875 16.1792 8.66758 16.5484 8.29837C16.9176 7.92915 17.125 7.42839 17.125 6.90625V5.59375C17.125 5.07161 16.9176 4.57085 16.5484 4.20163C16.1792 3.83242 15.6784 3.625 15.1563 3.625H8.59375ZM7.9375 5.59375C7.9375 5.4197 8.00664 5.25278 8.12971 5.12971C8.25278 5.00664 8.4197 4.9375 8.59375 4.9375H15.1563C15.3303 4.9375 15.4972 5.00664 15.6203 5.12971C15.7434 5.25278 15.8125 5.4197 15.8125 5.59375V6.90625C15.8125 7.0803 15.7434 7.24722 15.6203 7.37029C15.4972 7.49336 15.3303 7.5625 15.1563 7.5625H8.59375C8.4197 7.5625 8.25278 7.49336 8.12971 7.37029C8.00664 7.24722 7.9375 7.0803 7.9375 6.90625V5.59375ZM19.75 18.7188C19.75 19.589 19.4043 20.4236 18.7889 21.0389C18.1736 21.6543 17.339 22 16.4688 22H7.28125C6.41101 22 5.57641 21.6543 4.96106 21.0389C4.3457 20.4236 4 19.589 4 18.7188V4.28125C4 3.41101 4.3457 2.57641 4.96106 1.96106C5.57641 1.3457 6.41101 1 7.28125 1H16.4688C17.339 1 18.1736 1.3457 18.7889 1.96106C19.4043 2.57641 19.75 3.41101 19.75 4.28125V18.7188ZM18.4375 4.28125C18.4375 3.7591 18.2301 3.25835 17.8609 2.88913C17.4917 2.51992 16.9909 2.3125 16.4688 2.3125H7.28125C6.75911 2.3125 6.25835 2.51992 5.88913 2.88913C5.51992 3.25835 5.3125 3.7591 5.3125 4.28125V18.7188C5.3125 19.2409 5.51992 19.7417 5.88913 20.1109C6.25835 20.4801 6.75911 20.6875 7.28125 20.6875H16.4688C16.9909 20.6875 17.4917 20.4801 17.8609 20.1109C18.2301 19.7417 18.4375 19.2409 18.4375 18.7188V4.28125Z" fill="#4F4F4F"/>
</svg>
