<svg width="151" height="151" viewBox="0 0 151 151" fill="none" xmlns="http://www.w3.org/2000/svg">
<path d="M117.204 103.119V101.984C117.204 96.1424 124.6 95.8884 124.6 91.7298C124.6 89.9248 123.131 88.7463 120.943 88.7463C118.549 88.7463 117.035 90.0501 117.035 91.8991V92.3631C117.035 92.8236 116.784 93.0404 116.32 93.0404L111.827 92.8711C111.407 92.8711 111.112 92.6611 111.112 92.3699V91.9059C111.112 86.8262 115.145 83.3347 121.072 83.3347C126.869 83.3347 130.608 86.6128 130.608 91.5266C130.608 98.5028 123.087 98.5468 123.087 102.363V103.119C123.098 103.215 123.087 103.313 123.056 103.405C123.024 103.497 122.971 103.58 122.903 103.649C122.834 103.718 122.75 103.77 122.659 103.802C122.567 103.834 122.469 103.845 122.372 103.833H117.919C117.822 103.845 117.724 103.834 117.632 103.802C117.541 103.77 117.457 103.718 117.388 103.649C117.32 103.58 117.267 103.497 117.235 103.405C117.204 103.313 117.193 103.215 117.204 103.119ZM116.825 109.892C116.825 108.042 118.464 106.529 120.438 106.529C122.331 106.529 124.011 108.042 124.011 109.892C124.011 111.741 122.318 113.254 120.398 113.254C118.478 113.254 116.825 111.734 116.825 109.885V109.892Z" fill="#263238"/>
<path d="M28.4105 54.9966V54.0111C28.4105 48.9314 34.8448 48.7181 34.8448 45.1047C34.8448 43.5334 33.5681 42.514 31.6717 42.514C29.589 42.514 28.2852 43.6451 28.2852 45.2503V45.6533C28.2852 46.0529 28.0684 46.2358 27.6655 46.2358L23.7608 46.0902C23.3951 46.0902 23.1411 45.9073 23.1411 45.6533V45.2503C23.1411 40.8479 26.6427 37.8 31.7902 37.8C36.8259 37.8 40.0769 40.6481 40.0769 44.9117C40.0769 50.9701 33.541 51.0073 33.541 54.3295V54.9864C33.5508 55.0702 33.5415 55.1551 33.5138 55.2347C33.4861 55.3143 33.4407 55.3867 33.3811 55.4463C33.3215 55.5059 33.2491 55.5512 33.1695 55.5789C33.0899 55.6066 33.005 55.6159 32.9213 55.6062H29.0302C28.9474 55.6157 28.8635 55.6065 28.7847 55.5794C28.7059 55.5523 28.6342 55.5078 28.5748 55.4494C28.5153 55.391 28.4698 55.32 28.4413 55.2416C28.4129 55.1633 28.4024 55.0796 28.4105 54.9966ZM28.0718 60.8722C28.0718 59.267 29.4942 57.953 31.2077 57.953C32.8502 57.953 34.3131 59.267 34.3131 60.8722C34.3131 62.4773 32.8502 63.7913 31.1738 63.7913C30.3775 63.8114 29.6056 63.5158 29.0263 62.9689C28.4471 62.422 28.1077 61.6683 28.082 60.8722H28.0718Z" fill="#175CF4"/>
<path d="M110.147 16.1366V15.6388C110.147 13.0753 113.391 12.9635 113.391 11.1382C113.391 10.3458 112.744 9.82763 111.786 9.82763C110.736 9.82763 110.072 10.3999 110.072 11.2127V11.4159C110.072 11.6191 109.961 11.7105 109.758 11.7105L107.787 11.636C107.6 11.636 107.472 11.5446 107.472 11.4159V11.2127C107.472 8.98101 109.243 7.45032 111.844 7.45032C114.387 7.45032 116.029 8.88957 116.029 11.0468C116.029 14.0946 112.728 14.1251 112.728 15.7878V16.1265C112.732 16.1689 112.728 16.2119 112.714 16.2522C112.699 16.2925 112.676 16.329 112.646 16.3591C112.616 16.3891 112.579 16.4118 112.538 16.4255C112.498 16.4392 112.455 16.4435 112.413 16.438H110.459C110.417 16.4433 110.375 16.4392 110.336 16.4261C110.296 16.4129 110.26 16.3911 110.23 16.3622C110.2 16.3332 110.177 16.2979 110.163 16.2589C110.149 16.2199 110.143 16.1781 110.147 16.1366ZM109.981 19.1066C109.959 18.7899 110.033 18.4741 110.194 18.2001C110.354 17.9261 110.593 17.7066 110.879 17.5702C111.166 17.4338 111.487 17.3868 111.801 17.4353C112.114 17.4838 112.406 17.6256 112.638 17.8422C112.87 18.0587 113.032 18.3401 113.101 18.6497C113.171 18.9593 113.147 19.2828 113.03 19.5781C112.914 19.8734 112.711 20.1268 112.449 20.3054C112.187 20.4841 111.877 20.5796 111.559 20.5797C111.359 20.5869 111.159 20.5546 110.971 20.4844C110.783 20.4142 110.611 20.3076 110.464 20.1708C110.318 20.0339 110.2 19.8695 110.117 19.6868C110.034 19.5042 109.988 19.307 109.981 19.1066Z" fill="#175CF4"/>
<path d="M15.0443 84.625V83.9985C15.0443 80.7678 19.1351 80.629 19.1351 78.3262C19.1351 77.3272 18.3224 76.677 17.1032 76.677C15.7791 76.677 14.9427 77.3983 14.9427 78.421V78.675C14.9427 78.9324 14.8038 79.0475 14.5464 79.0475L12.0608 78.9561C11.8271 78.9561 11.6646 78.8375 11.6646 78.675V78.421C11.6646 75.6102 13.8962 73.6799 17.1744 73.6799C20.3814 73.6799 22.4471 75.4917 22.4471 78.211C22.4471 82.0683 18.2885 82.092 18.2885 84.2085V84.625C18.2951 84.6787 18.2894 84.7331 18.2718 84.7841C18.2542 84.8352 18.2252 84.8816 18.187 84.9198C18.1488 84.958 18.1024 84.9869 18.0514 85.0045C18.0003 85.0221 17.9459 85.0278 17.8923 85.0213H15.4337C15.3806 85.0267 15.327 85.0202 15.2768 85.0021C15.2266 84.984 15.1811 84.9549 15.1437 84.9168C15.1063 84.8787 15.0779 84.8328 15.0607 84.7823C15.0435 84.7318 15.0379 84.678 15.0443 84.625V84.625ZM14.8343 88.3671C14.8078 87.9681 14.902 87.5704 15.1047 87.2257C15.3073 86.8811 15.6091 86.6054 15.9706 86.4346C16.3322 86.2638 16.7368 86.2058 17.1317 86.2682C17.5267 86.3305 17.8937 86.5104 18.185 86.7842C18.4764 87.0581 18.6785 87.4133 18.7651 87.8037C18.8518 88.1941 18.8188 88.6014 18.6707 88.9728C18.5225 89.3442 18.266 89.6624 17.9345 89.886C17.603 90.1096 17.2119 90.2281 16.812 90.2263C16.3024 90.2427 15.807 90.0561 15.4349 89.7075C15.0628 89.3589 14.8443 88.8767 14.8275 88.3671H14.8343Z" stroke="#263238" stroke-miterlimit="10"/>
<path d="M46.1998 26.1676V25.7375C46.1998 23.5159 49.014 23.4177 49.014 21.8362C49.014 21.1589 48.4552 20.7018 47.6221 20.7018C46.7112 20.7018 46.1355 21.1962 46.1355 21.9006V22.0767C46.1355 22.2528 46.0406 22.3307 45.8645 22.3307L44.1713 22.2663C44.0121 22.2663 43.9004 22.1884 43.9004 22.0767V21.9006C43.9004 19.9669 45.4345 18.6394 47.6865 18.6394C49.9385 18.6394 51.2795 19.8856 51.2795 21.755C51.2795 24.41 48.418 24.4269 48.418 25.8797V26.1676C48.4223 26.2042 48.4183 26.2413 48.4062 26.2762C48.3942 26.311 48.3743 26.3427 48.3482 26.3688C48.3222 26.3948 48.2905 26.4147 48.2557 26.4267C48.2208 26.4388 48.1837 26.4428 48.147 26.4385H46.4538C46.4185 26.4402 46.3833 26.4342 46.3506 26.4209C46.3178 26.4077 46.2884 26.3875 46.2642 26.3617C46.2401 26.3359 46.2218 26.3052 46.2107 26.2717C46.1996 26.2382 46.1958 26.2026 46.1998 26.1676ZM46.0576 28.7413C46.0427 28.4707 46.1093 28.2018 46.2488 27.9695C46.3883 27.7372 46.5942 27.552 46.8401 27.438C47.0859 27.3239 47.3603 27.2862 47.6278 27.3298C47.8953 27.3733 48.1435 27.4961 48.3405 27.6822C48.5375 27.8684 48.6741 28.1093 48.7327 28.3739C48.7913 28.6385 48.7692 28.9146 48.6692 29.1665C48.5692 29.4184 48.396 29.6345 48.1719 29.7869C47.9478 29.9393 47.6832 30.021 47.4122 30.0214C47.0624 30.0333 46.7222 29.9058 46.4663 29.6671C46.2104 29.4283 46.0598 29.0978 46.0474 28.7481L46.0576 28.7413Z" fill="#263238"/>
<path d="M96.3199 119.008V118.578C96.3199 116.356 99.1341 116.261 99.1341 114.677C99.1341 113.999 98.5753 113.542 97.7423 113.542C96.8313 113.542 96.2556 114.037 96.2556 114.741V114.917C96.2556 115.093 96.1608 115.174 95.9847 115.174L94.2914 115.11C94.1323 115.11 94.0205 115.029 94.0205 114.917V114.741C94.0205 112.807 95.5546 111.48 97.8066 111.48C100.059 111.48 101.437 112.726 101.437 114.599C101.437 117.25 98.5753 117.267 98.5753 118.72V119.008C98.5796 119.045 98.5755 119.082 98.5635 119.117C98.5514 119.152 98.5316 119.184 98.5056 119.21C98.4796 119.236 98.4481 119.256 98.4132 119.269C98.3784 119.281 98.3412 119.286 98.3044 119.282H96.6112C96.5728 119.289 96.5333 119.288 96.4958 119.277C96.4584 119.266 96.4241 119.246 96.3956 119.219C96.3672 119.193 96.3456 119.159 96.3324 119.123C96.3192 119.086 96.315 119.047 96.3199 119.008V119.008ZM96.1777 121.582C96.1628 121.311 96.2294 121.042 96.3689 120.81C96.5084 120.578 96.7144 120.392 96.9602 120.278C97.206 120.164 97.4804 120.127 97.7479 120.17C98.0154 120.214 98.2637 120.336 98.4606 120.523C98.6576 120.709 98.7942 120.95 98.8528 121.214C98.9114 121.479 98.8893 121.755 98.7893 122.007C98.6893 122.259 98.5161 122.475 98.292 122.627C98.0679 122.78 97.8033 122.861 97.5323 122.862C97.1837 122.87 96.846 122.74 96.5929 122.5C96.3397 122.26 96.1917 121.93 96.1811 121.582H96.1777Z" stroke="#263238" stroke-miterlimit="10"/>
<path d="M83.0616 126.716C83.0378 126.644 83.0141 126.573 82.9871 126.502C82.96 126.431 82.9396 126.357 82.9125 126.286C82.8855 126.214 82.8651 126.143 82.838 126.072C82.811 126.001 82.7906 125.927 82.7635 125.855C82.7365 125.784 82.7161 125.713 82.689 125.642C82.6619 125.571 82.6416 125.496 82.6145 125.425L82.54 125.212C82.5163 125.138 82.4892 125.066 82.4655 124.995L82.391 124.782C82.3673 124.707 82.3402 124.636 82.3165 124.565L82.242 124.352C82.2183 124.277 82.1912 124.206 82.1675 124.135L82.0964 123.908C82.0727 123.834 82.0456 123.763 82.0219 123.691L81.944 123.478C81.9203 123.404 81.8966 123.333 81.8695 123.261C81.8424 123.19 81.8221 123.119 81.795 123.048C81.7679 122.977 81.7476 122.902 81.7205 122.831C81.6934 122.76 81.6731 122.689 81.646 122.618C80.542 119.259 77.1284 116.793 73.3728 116.793C69.7324 116.793 66.566 118.913 65.2453 121.9C65.2114 121.968 65.1809 122.039 65.1504 122.107L65.059 122.317C65.0251 122.384 64.9947 122.452 64.9642 122.523C64.9337 122.594 64.8998 122.662 64.8694 122.73L64.7779 122.936C64.7441 123.007 64.7136 123.075 64.6831 123.146C64.6526 123.217 64.6188 123.282 64.5883 123.353C64.5578 123.424 64.5239 123.488 64.4935 123.559L64.402 123.766C64.3682 123.834 64.3377 123.905 64.3072 123.973C64.2767 124.04 64.2429 124.111 64.2124 124.179L64.121 124.389C64.0871 124.457 64.0566 124.525 64.0261 124.596C63.9957 124.667 63.9618 124.735 63.9313 124.802L63.8399 125.009C63.806 125.08 63.7755 125.148 63.7451 125.219C63.7146 125.29 63.6807 125.354 63.6502 125.425L63.5588 125.632C63.5249 125.7 63.4945 125.771 63.464 125.839C63.4335 125.906 63.3996 125.977 63.3692 126.048C62.7881 127.286 62.4897 128.637 62.4954 130.004C62.4954 135.456 67.2027 139.913 73.024 139.913C78.7201 139.913 83.6745 135.456 83.6745 130.004C83.6734 128.964 83.4912 127.933 83.1361 126.956C83.1124 126.858 83.0886 126.787 83.0616 126.716Z" fill="#263238"/>
<path d="M75.0051 51.7084C57.5411 51.7084 45.6511 61.9863 45.6511 76.9749V78.3295C45.6543 78.5534 45.7152 78.7726 45.8279 78.966C45.9406 79.1594 46.1013 79.3204 46.2946 79.4335C46.3676 79.5038 46.447 79.5673 46.5316 79.6232C46.605 79.6945 46.6856 79.758 46.772 79.8128C46.8454 79.8841 46.926 79.9477 47.0125 80.0024C47.0852 80.0745 47.1659 80.1382 47.2529 80.1921C47.3251 80.2634 47.4046 80.3269 47.49 80.3817C47.5633 80.4542 47.6439 80.5188 47.7304 80.5748C47.8047 80.6451 47.8851 80.7086 47.9709 80.7644C48.0444 80.8355 48.125 80.8991 48.2113 80.954C48.2837 81.0251 48.3631 81.0887 48.4484 81.1437C48.5279 81.2204 48.6153 81.2885 48.7091 81.3469C48.7782 81.4098 48.8517 81.4675 48.9292 81.5196C49.0035 81.5899 49.084 81.6534 49.1697 81.7092C49.2427 81.7795 49.3221 81.843 49.4067 81.8989C49.481 81.9692 49.5615 82.0327 49.6472 82.0885C49.7207 82.1596 49.8013 82.2232 49.8876 82.2782C49.96 82.3493 50.0394 82.4128 50.1247 82.4678C50.1982 82.5389 50.2788 82.6025 50.3651 82.6574C50.4375 82.7285 50.5169 82.7921 50.6022 82.8471C50.6764 82.9174 50.7569 82.9809 50.8426 83.0367C50.915 83.1078 50.9944 83.1714 51.0797 83.2264C51.471 83.5707 51.9815 83.7481 52.502 83.7208L63.3929 84.1272C64.5138 84.1272 65.1234 83.6192 65.1234 82.4983V81.3807C65.1234 76.9004 68.7876 73.7476 74.6055 73.7476C79.8986 73.7476 83.4612 76.5956 83.4612 80.9744C83.4613 81.4733 83.4137 81.9711 83.319 82.461C77.8532 89.6268 63.6266 92.7864 63.6266 106.695V110.041C63.6266 111.395 64.3682 112.144 65.733 112.144H78.8454C80.2 112.144 80.9518 111.402 80.9518 110.041V107.809C80.9518 96.5386 103.123 96.4133 103.123 75.854C103.123 61.3666 92.0967 51.7084 75.0051 51.7084Z" fill="#263238"/>
<path d="M63.6097 110.047V106.701C63.6097 89.4846 85.4085 88.7531 85.4085 76.4805C85.4085 71.1536 81.0738 67.6757 74.6327 67.6757C67.5719 67.6757 63.1186 71.5159 63.1186 76.9648V78.3194C63.1186 79.674 62.3736 80.3039 61.0122 80.3039L47.7575 79.806C46.5215 79.806 45.6545 79.1863 45.6545 78.3194V76.9648C45.6545 61.9762 57.5445 51.6982 75.0086 51.6982C92.1001 51.6982 103.116 61.3565 103.116 75.8506C103.116 96.41 80.9451 96.5353 80.9451 107.805V110.037C80.9451 111.392 80.2001 112.14 78.8387 112.14H65.7161C64.3513 112.15 63.6097 111.409 63.6097 110.047ZM62.4955 130.004C62.4955 124.555 67.3246 120.095 73.146 120.095C78.7202 120.095 83.6746 124.555 83.6746 130.004C83.6746 135.453 78.71 139.896 73.0241 139.896C67.196 139.896 62.4955 135.439 62.4955 130.004Z" fill="#175CF4" stroke="#175CF4" stroke-miterlimit="10"/>
<path d="M72.4824 151C82.6961 151 90.9759 149.149 90.9759 146.865C90.9759 144.581 82.6961 142.73 72.4824 142.73C62.2686 142.73 53.9888 144.581 53.9888 146.865C53.9888 149.149 62.2686 151 72.4824 151Z" fill="#263238"/>
<path d="M58.3473 53.0798L57.6395 54.6241C57.6395 54.6241 53.5283 55.0677 53.5283 55.3759C53.5283 55.684 53.5723 57.8074 53.7959 57.8954C53.9657 57.9616 54.1543 57.9616 54.3241 57.8954L60.3792 56.3478L60.9549 53.6081L58.3473 53.0798Z" fill="white" stroke="#263238" stroke-linecap="round" stroke-linejoin="round"/>
<path d="M57.1958 55.8398C56.4439 56.4558 55.6328 56.9958 54.7744 57.4518C53.7958 57.892 53.7585 58.5592 54.0701 58.5592C54.3816 58.5592 57.145 57.401 57.145 57.401C57.145 57.401 59.6544 56.744 60.0167 56.5442C60.3791 56.3444 60.4197 55.2336 60.4197 55.2336" fill="white"/>
<path d="M57.1958 55.8398C56.4439 56.4558 55.6328 56.9958 54.7744 57.4518C53.7958 57.892 53.7585 58.5592 54.0701 58.5592C54.3816 58.5592 57.145 57.401 57.145 57.401C57.145 57.401 59.6544 56.744 60.0167 56.5442C60.3791 56.3444 60.4197 55.2336 60.4197 55.2336" stroke="#263238" stroke-linecap="round" stroke-linejoin="round"/>
<path d="M61.9641 23.4075L59.4378 42.7714L57.6802 53.2559L61.5814 54.177L64.4904 41.7757L65.8687 33.9699L61.9641 23.4075Z" fill="#7D7D7D" stroke="#263238" stroke-linecap="round" stroke-linejoin="round"/>
<path d="M82.3505 9.3875L80.8097 9.14367L77.6535 7.94824L77.5383 11.6971L82.4318 12.1475L82.3505 9.3875Z" fill="white" stroke="#263238" stroke-linecap="round" stroke-linejoin="round"/>
<path d="M64.3379 78.0552C63.1895 79.3942 62.1166 80.7961 61.1241 82.2544C59.8203 84.2457 60.2809 86.386 61.8894 86.9244C63.498 87.4629 65.5604 86.0033 66.0988 84.8553C66.6373 83.7072 66.4815 83.0977 67.3214 81.9497C68.1612 80.8016 68.852 79.6536 68.5473 78.1229C68.2425 76.5922 65.1642 76.9851 64.3379 78.0552Z" fill="#7D7D7D" stroke="#263238" stroke-linecap="round" stroke-linejoin="round"/>
<path d="M65.9432 85.1431C65.8348 84.9128 65.7095 84.669 65.5605 84.4082C64.3312 82.2442 62.174 82.417 60.8194 82.8199C59.9288 84.6385 60.4368 86.4469 61.8964 86.9345C63.3559 87.4222 65.2388 86.2301 65.9432 85.1431Z" fill="white" stroke="#263238" stroke-linecap="round" stroke-linejoin="round"/>
<path d="M65.5604 84.4082C65.1032 85.0855 64.4903 86.9345 62.1163 86.1692C61.4543 85.9992 60.8622 85.6262 60.4231 85.1024C60.4744 85.5154 60.6402 85.9058 60.9017 86.2296C61.1632 86.5533 61.51 86.7975 61.903 86.9345C63.5082 87.4696 65.5739 86.0134 66.1124 84.8654C66.6508 83.7174 66.4951 83.1078 67.3349 81.9598C68.1748 80.8118 68.8656 79.6637 68.5608 78.1331C68.5608 79.9685 67.8835 80.2733 67.0301 81.2689C66.1767 82.2646 66.021 83.7174 65.5604 84.4082Z" fill="white" stroke="#263238" stroke-linecap="round" stroke-linejoin="round"/>
<path d="M86.9224 78.0552C88.0708 79.3942 89.1437 80.7961 90.1362 82.2544C91.44 84.2457 90.9794 86.386 89.3708 86.9244C87.7622 87.4629 85.6999 86.0033 85.1614 84.8553C84.623 83.7072 84.7788 83.0977 83.9389 81.9497C83.0991 80.8016 82.4082 79.6536 82.713 78.1229C83.0178 76.5922 86.0825 76.9851 86.9224 78.0552Z" fill="#7D7D7D" stroke="#263238" stroke-linecap="round" stroke-linejoin="round"/>
<path d="M85.3206 85.1431C85.4255 84.9128 85.5508 84.669 85.6999 84.4082C86.9291 82.2442 89.0863 82.417 90.4409 82.8199C91.3316 84.6385 90.8236 86.4469 89.364 86.9345C87.9044 87.4222 86.0216 86.2301 85.3206 85.1431Z" fill="white" stroke="#263238" stroke-linecap="round" stroke-linejoin="round"/>
<path d="M85.6998 84.4082C86.1569 85.0855 86.7699 86.9345 89.1438 86.1692C89.8058 85.9992 90.3979 85.6262 90.837 85.1024C90.7857 85.5154 90.62 85.9058 90.3584 86.2296C90.0969 86.5533 89.7501 86.7975 89.3572 86.9345C87.752 87.4696 85.6862 86.0134 85.1478 84.8654C84.6093 83.7174 84.7651 83.1078 83.9252 81.9598C83.0854 80.8118 82.3945 79.6637 82.6993 78.1331C82.6993 79.9685 83.3766 80.2733 84.23 81.2689C85.0834 82.2646 85.2392 83.7174 85.6998 84.4082Z" fill="white" stroke="#263238" stroke-linecap="round" stroke-linejoin="round"/>
<path d="M90.512 51.6507C90.512 50.2724 88.1414 48.7417 88.1414 48.7417C84.5687 45.108 78.1208 45.5889 75.7401 45.914C73.3696 45.5753 66.915 45.108 63.3422 48.7417C63.3422 48.7417 60.9717 50.2724 60.9717 51.6507C60.9717 53.029 63.9586 77.9027 63.9586 77.9027C63.9586 77.9027 63.8807 79.2031 66.0243 79.3555C68.168 79.5079 69.0721 78.2854 69.0721 78.2854L69.9154 57.2384C69.9154 57.2384 73.3594 54.7866 73.9792 54.7121C74.2027 54.6816 74.4939 54.6342 74.819 54.5935V54.6342C75.4254 54.5077 76.0514 54.5077 76.6579 54.6342V54.5935C76.9965 54.6342 77.2708 54.6816 77.4977 54.7121C78.1107 54.7866 81.5615 57.2384 81.5615 57.2384L82.4047 78.2854C82.4047 78.2854 83.3225 79.5079 85.4526 79.3555C87.5827 79.2031 87.5183 77.9027 87.5183 77.9027C87.5183 77.9027 90.512 53.029 90.512 51.6507Z" fill="#263238" stroke="#263238" stroke-linecap="round" stroke-linejoin="round"/>
<path d="M81.5581 57.2385C81.5581 57.2385 81.0976 52.1858 83.3191 50.2725" stroke="#707070" stroke-linecap="round" stroke-linejoin="round"/>
<path d="M69.9254 57.2385C69.9254 57.2385 70.1557 53.0291 69.6951 51.4984C69.2346 49.9677 68.4692 49.3547 68.4692 49.3547" stroke="#707070" stroke-linecap="round" stroke-linejoin="round"/>
<path d="M72.7566 47.2111C72.7566 47.2111 75.205 50.0422 75.6656 52.4161" stroke="#707070" stroke-linecap="round" stroke-linejoin="round"/>
<path d="M78.1139 47.3737C78.1139 47.3737 76.7356 48.9043 76.5833 50.0524" stroke="#707070" stroke-linecap="round" stroke-linejoin="round"/>
<path d="M74.6699 17.5929C74.6699 17.5929 72.4518 17.2848 71.6864 18.0501C70.9211 18.8155 68.3169 21.6364 68.3169 21.6364L69.6952 45.975C69.6952 45.975 72.8345 47.201 75.5132 47.201C78.1919 47.201 81.2533 46.2053 81.9475 45.6703C82.6417 45.1352 82.0254 19.0356 82.0254 19.0356C82.0254 19.0356 76.3395 17.3627 74.6699 17.5929Z" fill="#175CF4" stroke="#263238" stroke-linecap="round" stroke-linejoin="round"/>
<path d="M78.727 18.128C79.8922 17.951 81.0674 17.8481 82.2456 17.8198C83.7763 17.8198 85.2934 17.8977 85.2934 17.8977L89.1201 14.2234L81.4193 12.4624L82.0322 8.94383C82.0322 8.94383 87.6944 8.56116 90.5255 9.09622C93.3566 9.63129 97.7963 11.0096 98.0266 11.0096C98.2569 11.0096 98.5616 11.8528 98.3314 12.4624C98.1011 13.072 90.9014 21.037 88.751 23.1027C87.3443 24.4813 86.0159 25.9375 84.7719 27.4645L83.7898 44.5324C83.7898 44.5324 86.3161 45.9107 86.7767 46.3678C87.2372 46.825 87.7723 48.6639 87.7723 48.6639C87.7723 48.6639 83.1023 46.7505 81.8764 46.5981C80.6505 46.4457 79.8886 46.3678 79.6583 45.9208C79.428 45.4738 77.5146 25.0262 77.5146 25.0262L77.5925 18.5208C77.5925 18.5208 77.579 18.128 78.727 18.128Z" fill="#7D7D7D" stroke="#263238" stroke-linecap="round" stroke-linejoin="round"/>
<path d="M83.3192 28.6125L79.1843 29.1476L79.567 30.6783L81.6361 31.2134L83.624 30.2956L83.3192 28.6125Z" stroke="#263238" stroke-linecap="round" stroke-linejoin="round"/>
<path d="M85.6897 19.4283L84.772 27.4645L87.1459 20.6542" stroke="#263238" stroke-linecap="round" stroke-linejoin="round"/>
<path d="M89.1338 14.2234C89.1338 14.2234 91.0471 14.606 93.9561 13.458" stroke="#263238" stroke-linecap="round" stroke-linejoin="round"/>
<path d="M91.125 14.7584C92.382 14.7934 93.639 14.6912 94.8738 14.4536" stroke="#263238" stroke-linecap="round" stroke-linejoin="round"/>
<path d="M72.0693 17.515L72.452 23.1027C72.8009 23.5615 73.2526 23.932 73.7708 24.1844C74.289 24.4367 74.8592 24.5638 75.4355 24.5555C77.3489 24.481 77.5791 23.1027 77.5791 23.1027V18.5106L72.0693 17.515Z" fill="white" stroke="#263238" stroke-linecap="round" stroke-linejoin="round"/>
<path d="M77.6536 20.4241L77.5012 25.0229L79.1098 22.4966C79.1098 22.4966 80.8708 24.7147 81.328 24.6402C81.7851 24.5657 81.0232 23.6446 80.8708 22.8048C80.7184 21.9649 79.4146 18.9746 79.2622 18.1348C79.1098 17.2949 77.6536 17.1392 77.569 17.5218C77.5265 17.8524 77.5265 18.187 77.569 18.5175L77.6536 20.4241Z" fill="#7D7D7D" stroke="#263238" stroke-linecap="round" stroke-linejoin="round"/>
<path d="M72.3739 24.5555C72.3739 24.5555 72.6787 45.9852 71.9133 46.229C71.148 46.4729 68.0866 46.5372 66.1563 47.4549C64.226 48.3727 63.3252 48.7553 63.3252 48.7553C63.3252 48.7553 64.243 46.5372 65.3165 45.5416C66.03 44.9003 66.8275 44.3591 67.687 43.933L65.6992 33.6787C65.6992 33.6787 62.0248 23.9561 61.9469 23.4211C61.869 22.886 68.9129 18.9069 70.3657 18.2161C71.8185 17.5252 72.2046 18.1415 72.2046 18.1415L72.3739 24.5555Z" fill="#7D7D7D" stroke="#263238" stroke-linecap="round" stroke-linejoin="round"/>
<path d="M70.4607 17.1324C70.4607 17.1324 68.6252 22.9504 68.4695 23.7157C68.3137 24.4811 68.4695 24.4811 69.0079 23.9426C69.5464 23.4042 70.9213 22.1072 70.9213 22.1072L72.3741 24.5556L72.2962 20.0414V17.4372C72.2962 17.4372 72.2217 16.3671 70.4607 17.1324Z" fill="#7D7D7D" stroke="#263238" stroke-linecap="round" stroke-linejoin="round"/>
<path d="M66.864 29.686H71.3782L71.3037 31.5215L69.3125 32.209L66.7861 31.5215L66.864 29.686Z" stroke="#263238" stroke-linecap="round" stroke-linejoin="round"/>
<path d="M79.2621 9.55683C79.2621 9.55683 80.3322 14.2234 80.5625 14.9752C80.7928 15.727 79.34 18.7274 78.8692 19.4149C78.6901 19.713 78.4437 19.9651 78.1497 20.1509C77.8556 20.3368 77.5222 20.4512 77.176 20.485C76.6409 20.485 73.732 19.4928 73.0411 19.0322C72.3503 18.5716 71.6662 18.0366 71.6662 18.0366C71.3406 18.185 70.9788 18.2353 70.6251 18.1811C70.2714 18.127 69.9412 17.9708 69.675 17.7318C68.7572 16.8886 67.5313 15.8929 67.8361 15.2055C67.9846 14.8681 68.2331 14.5846 68.5481 14.3932C68.8631 14.2018 69.2292 14.1118 69.5971 14.1354C70.4403 14.1354 70.1355 14.0575 70.1355 14.0575C70.1355 14.0575 68.6048 11.8393 68.6048 10.0784C68.6048 8.31738 71.8931 7.03052 73.8065 7.03052C75.1294 7.08565 76.4291 7.39734 77.6332 7.94826L79.2621 9.55683Z" fill="white" stroke="#263238" stroke-linecap="round" stroke-linejoin="round"/>
<path d="M76.5834 11.3145L77.9617 13.9187L76.5834 14.8364L75.9705 14.0711" stroke="#263238" stroke-linecap="round" stroke-linejoin="round"/>
<path d="M79.1096 13.6882C79.1096 13.6882 79.1841 14.3012 78.2664 15.2968" stroke="#263238" stroke-linecap="round" stroke-linejoin="round"/>
<path d="M75.1307 12.2728C75.1307 12.6317 74.9749 12.923 74.792 12.923C74.6091 12.923 74.4534 12.6317 74.4534 12.2728C74.4534 11.9138 74.6091 11.6226 74.792 11.6226C74.9749 11.6226 75.1307 11.9138 75.1307 12.2728Z" fill="#263238"/>
<path d="M77.5383 11.697C77.7291 11.697 77.8837 11.4059 77.8837 11.0468C77.8837 10.6877 77.7291 10.3966 77.5383 10.3966C77.3475 10.3966 77.1929 10.6877 77.1929 11.0468C77.1929 11.4059 77.3475 11.697 77.5383 11.697Z" fill="#263238"/>
<path d="M70.9958 5.57429C70.9958 5.57429 66.1802 7.33526 66.021 9.55679C65.8619 11.7783 70.3083 14.8363 70.5386 15.219C70.7689 15.6017 71.4563 14.7584 71.4563 14.7584C71.3033 14.5528 71.1965 14.3165 71.1433 14.0657C71.0901 13.815 71.0917 13.5557 71.1482 13.3056C71.3784 12.5403 72.3741 11.6124 72.3741 11.2399C72.3741 10.8674 71.226 11.5447 71.226 10.3966C71.226 9.24862 74.0571 8.56117 75.7402 8.63567C77.4233 8.71017 78.8795 11.5447 80.1054 10.1664C81.3313 8.78806 79.5669 8.40877 79.5669 8.40877C79.5669 8.40877 81.9375 8.1006 81.9375 6.87808C81.9375 5.65556 80.7116 4.80894 80.1765 4.80894C79.6414 4.80894 78.1886 5.73007 78.1886 4.73444C78.1886 3.73881 79.6414 3.27825 78.2632 1.68661C76.8849 0.0949593 75.1273 1.68661 75.1273 2.29956C75.1273 2.91251 74.6667 4.05714 74.3619 4.05714C74.0571 4.05714 73.136 2.68223 72.0659 3.44758C71.7441 3.70341 71.4818 4.02609 71.297 4.39329C71.1123 4.76049 71.0095 5.16345 70.9958 5.57429Z" fill="#263238" stroke="#263238" stroke-linecap="round" stroke-linejoin="round"/>
<path d="M72.9868 11.4702L75.4352 10.5491" stroke="#263238" stroke-linecap="round" stroke-linejoin="round"/>
<path d="M75.818 9.4788C75.7712 9.23855 75.8095 8.98948 75.9264 8.77441" stroke="#263238" stroke-linecap="round" stroke-linejoin="round"/>
<path d="M75.9265 8.7678C76.0992 8.42916 76.4887 7.9923 77.3488 7.63672" stroke="white" stroke-linecap="round" stroke-linejoin="round"/>
</svg>
