<svg width="12" height="12" viewBox="0 0 12 12" fill="none" xmlns="http://www.w3.org/2000/svg">
<path d="M0 6C0 7.18669 0.351894 8.34672 1.01118 9.33342C1.67047 10.3201 2.60754 11.0891 3.7039 11.5433C4.80025 11.9974 6.00665 12.1162 7.17054 11.8847C8.33443 11.6532 9.40352 11.0818 10.2426 10.2426C11.0818 9.40352 11.6532 8.33443 11.8847 7.17054C12.1162 6.00665 11.9974 4.80025 11.5433 3.7039C11.0891 2.60754 10.3201 1.67047 9.33342 1.01118C8.34672 0.351894 7.18669 0 6 0C4.4087 0 2.88258 0.632141 1.75736 1.75736C0.632141 2.88258 0 4.4087 0 6H0ZM5.4 8.4H6.6V9.6H5.4V8.4ZM3.696 4.434C3.69211 4.13498 3.7514 3.83852 3.87 3.564C3.97836 3.32076 4.138 3.10381 4.338 2.928C4.54124 2.7555 4.77539 2.62316 5.028 2.538C5.30642 2.4447 5.59836 2.39807 5.892 2.4C6.23189 2.39604 6.56958 2.45503 6.888 2.574C7.17443 2.68754 7.43548 2.85681 7.656 3.072C7.86978 3.29249 8.0335 3.55649 8.136 3.846C8.2524 4.1691 8.30932 4.51061 8.304 4.854H7.158C7.17809 4.4672 7.07288 4.08424 6.858 3.762C6.75054 3.62351 6.61047 3.51378 6.45029 3.44259C6.29011 3.3714 6.1148 3.34096 5.94 3.354C5.83755 3.3588 5.73641 3.37903 5.64 3.414C5.50867 3.45876 5.38779 3.5297 5.28466 3.62251C5.18153 3.71533 5.0983 3.8281 5.04 3.954C4.96937 4.11669 4.93458 4.29267 4.938 4.47C4.93337 4.61682 4.95574 4.76325 5.004 4.902C5.04458 5.02153 5.10548 5.13316 5.184 5.232C5.26072 5.32861 5.34718 5.41707 5.442 5.496C5.544 5.58 5.646 5.664 5.748 5.76C5.87562 5.86377 5.99223 5.98038 6.096 6.108C6.19655 6.22973 6.27937 6.36507 6.342 6.51C6.4175 6.68192 6.46802 6.86376 6.492 7.05C6.52961 7.29828 6.54966 7.5489 6.552 7.8H5.466C5.47076 7.59795 5.44856 7.39618 5.4 7.2C5.36383 7.04433 5.30089 6.89613 5.214 6.762C5.13669 6.63699 5.04171 6.52381 4.932 6.426C4.83 6.324 4.71 6.222 4.584 6.114L4.26 5.814C4.15157 5.71549 4.05493 5.60476 3.972 5.484C3.88355 5.34707 3.81676 5.19731 3.774 5.04C3.71763 4.84308 3.69134 4.63877 3.696 4.434Z" fill="#751C49"/>
</svg>
