<svg width="20" height="21" viewBox="0 0 20 21" fill="none" xmlns="http://www.w3.org/2000/svg">
<path d="M8.5744 0.441134C8.87404 0.157845 9.27076 0 9.68311 0C10.0955 0 10.4922 0.157845 10.7918 0.441134L18.6093 7.83096C19.0935 8.28768 19.3662 8.92516 19.3662 9.59006V18.5792C19.3662 19.2213 19.1112 19.837 18.6572 20.291C18.2032 20.745 17.5875 21 16.9454 21H13.7177C13.3997 21 13.0848 20.9373 12.791 20.8156C12.4972 20.6938 12.2302 20.5154 12.0054 20.2904C11.7806 20.0654 11.6023 19.7984 11.4808 19.5045C11.3592 19.2106 11.2968 18.8956 11.297 18.5776V14.543C11.297 14.329 11.212 14.1237 11.0606 13.9724C10.9093 13.8211 10.7041 13.7361 10.49 13.7361H8.87619C8.66218 13.7361 8.45693 13.8211 8.3056 13.9724C8.15428 14.1237 8.06926 14.329 8.06926 14.543V18.5776C8.06926 19.2196 7.81422 19.8354 7.36023 20.2894C6.90625 20.7433 6.29051 20.9984 5.64848 20.9984H2.42078C1.77875 20.9984 1.16301 20.7433 0.70903 20.2894C0.255046 19.8354 0 19.2196 0 18.5776V9.58845C0 8.92354 0.274355 8.28607 0.758511 7.82935L8.5744 0.437907V0.441134ZM9.68311 1.61279L1.86561 9.00423C1.78625 9.07947 1.72301 9.17006 1.67973 9.27048C1.63645 9.37091 1.61404 9.47909 1.61385 9.58845V18.5776C1.61385 18.7916 1.69887 18.9969 1.8502 19.1482C2.00152 19.2995 2.20677 19.3845 2.42078 19.3845H5.64848C5.86249 19.3845 6.06774 19.2995 6.21907 19.1482C6.37039 18.9969 6.45541 18.7916 6.45541 18.5776V14.543C6.45541 13.9009 6.71045 13.2852 7.16444 12.8312C7.61842 12.3772 8.23416 12.1222 8.87619 12.1222H10.49C11.1321 12.1222 11.7478 12.3772 12.2018 12.8312C12.6558 13.2852 12.9108 13.9009 12.9108 14.543V18.5776C12.9108 18.7916 12.9958 18.9969 13.1472 19.1482C13.2985 19.2995 13.5037 19.3845 13.7177 19.3845H16.9454C17.1595 19.3845 17.3647 19.2995 17.516 19.1482C17.6674 18.9969 17.7524 18.7916 17.7524 18.5776V9.58845C17.7524 9.47882 17.7301 9.37033 17.6868 9.26961C17.6435 9.16889 17.5802 9.07804 17.5006 9.00262L9.68311 1.61279Z" fill="#828282"/>
</svg>
