<svg width="24" height="24" viewBox="0 0 24 24" fill="none" xmlns="http://www.w3.org/2000/svg">
<path d="M12.7927 1.44117C12.493 1.15786 12.0962 1 11.6839 1C11.2715 1 10.8747 1.15786 10.5751 1.44117L2.75696 8.82995C2.51757 9.05648 2.32696 9.3295 2.1968 9.63228C2.06664 9.93506 1.99967 10.2612 2 10.5908V19.5807C2.00043 20.2225 2.25568 20.8378 2.70966 21.2915C3.16363 21.7452 3.77917 22 4.42097 22H6.84193C7.48401 22 8.09979 21.7449 8.55381 21.2909C9.00783 20.8369 9.2629 20.2211 9.2629 19.579V15.5441C9.2629 15.3301 9.34792 15.1248 9.49926 14.9735C9.6506 14.8221 9.85586 14.7371 10.0699 14.7371H13.2978C13.5119 14.7371 13.7171 14.8221 13.8685 14.9735C14.0198 15.1248 14.1048 15.3301 14.1048 15.5441V19.579C14.1048 20.2211 14.3599 20.8369 14.8139 21.2909C15.2679 21.7449 15.8837 22 16.5258 22H18.9468C19.5888 22 20.2046 21.7449 20.6586 21.2909C21.1127 20.8369 21.3677 20.2211 21.3677 19.579V10.5892C21.3676 10.2598 21.3003 9.93384 21.1699 9.63134C21.0394 9.32885 20.8486 9.05615 20.6091 8.82995L12.7927 1.43794V1.44117Z" fill="#751C49"/>
</svg>
