 
<svg width="150" height="98" viewBox="0 0 150 98" fill="none" xmlns="http://www.w3.org/2000/svg">
<path d="M108.126 63.8174H117.149V72.8408L108.126 69.5214V63.8174Z" fill="#91235B"/>
<path opacity="0.4" d="M108.126 63.8174H117.149V72.8408L108.126 69.5214V63.8174Z" fill="white"/>
<path d="M98.3884 34.4657C98.4414 31.5969 97.9221 28.7462 96.8608 26.0803C95.7996 23.4145 94.2177 20.9868 92.2076 18.9392C90.1975 16.8917 87.7994 15.2652 85.1536 14.155C82.5078 13.0447 79.6672 12.4728 76.7978 12.4728C73.9285 12.4728 71.0879 13.0447 68.4421 14.155C65.7963 15.2652 63.3982 16.8917 61.3881 18.9392C59.378 20.9868 57.7961 23.4145 56.7349 26.0803C55.6736 28.7462 55.1543 31.5969 55.2073 34.4657V63.8174H98.3884V34.4657Z" fill="#91235B"/>
<path opacity="0.3" d="M98.3884 34.4657C98.4414 31.5969 97.9221 28.7462 96.8608 26.0803C95.7996 23.4145 94.2177 20.9868 92.2076 18.9392C90.1975 16.8917 87.7994 15.2652 85.1536 14.155C82.5078 13.0447 79.6672 12.4728 76.7978 12.4728C73.9285 12.4728 71.0879 13.0447 68.4421 14.155C65.7963 15.2652 63.3982 16.8917 61.3881 18.9392C59.378 20.9868 57.7961 23.4145 56.7349 26.0803C55.6736 28.7462 55.1543 31.5969 55.2073 34.4657V63.8174H98.3884V34.4657Z" fill="#37474F"/>
<path d="M51.1154 76.4103C48.2303 88.3335 55.5314 97.9972 67.4841 97.9972C79.4367 97.9972 91.4114 88.3335 94.2965 76.4103L97.2994 63.994C97.3408 63.8267 97.3435 63.6522 97.3074 63.4837C97.2712 63.3152 97.197 63.1572 97.0906 63.0216C96.9841 62.8861 96.8482 62.7766 96.6931 62.7015C96.5379 62.6264 96.3678 62.5877 96.1954 62.5883H55.3548C55.0993 62.5895 54.8516 62.6765 54.6514 62.8353C54.4512 62.9941 54.3101 63.2156 54.2508 63.4641L51.1154 76.4103Z" fill="#91235B"/>
<path opacity="0.4" d="M51.1154 76.4103C48.2303 88.3335 55.5314 97.9972 67.4841 97.9972C79.4367 97.9972 91.4114 88.3335 94.2965 76.4103L97.2994 63.994C97.3408 63.8267 97.3435 63.6522 97.3074 63.4837C97.2712 63.3152 97.197 63.1572 97.0906 63.0216C96.9841 62.8861 96.8482 62.7766 96.6931 62.7015C96.5379 62.6264 96.3678 62.5877 96.1954 62.5883H55.3548C55.0993 62.5895 54.8516 62.6765 54.6514 62.8353C54.4512 62.9941 54.3101 63.2156 54.2508 63.4641L51.1154 76.4103Z" fill="white"/>
<path d="M49.3781 76.4103C46.493 88.3335 53.7941 97.9972 65.7468 97.9972C77.6994 97.9972 89.6741 88.3335 92.5592 76.4103L95.5916 63.994C95.633 63.8267 95.6357 63.6522 95.5995 63.4837C95.5633 63.3152 95.4892 63.1572 95.3827 63.0216C95.2763 62.8861 95.1403 62.7766 94.9852 62.7015C94.8301 62.6264 94.6599 62.5877 94.4876 62.5883H53.6396C53.384 62.5895 53.1363 62.6765 52.9361 62.8353C52.736 62.9941 52.5949 63.2156 52.5356 63.4641L49.3781 76.4103Z" fill="#91235B"/>
<path opacity="0.5" d="M49.3781 76.4103C46.493 88.3335 53.7941 97.9972 65.7468 97.9972C77.6994 97.9972 89.6741 88.3335 92.5592 76.4103L95.5916 63.994C95.633 63.8267 95.6357 63.6522 95.5995 63.4837C95.5633 63.3152 95.4892 63.1572 95.3827 63.0216C95.2763 62.8861 95.1403 62.7766 94.9852 62.7015C94.8301 62.6264 94.6599 62.5877 94.4876 62.5883H53.6396C53.384 62.5895 53.1363 62.6765 52.9361 62.8353C52.736 62.9941 52.5949 63.2156 52.5356 63.4641L49.3781 76.4103Z" fill="white"/>
<path d="M149.202 34.4583V63.8174H98.4179V34.4583C98.416 28.7337 96.141 23.2442 92.0931 19.1963C88.0452 15.1484 82.5557 12.8734 76.8311 12.8715H127.652C133.376 12.8734 138.866 15.1484 142.914 19.1963C146.962 23.2442 149.237 28.7337 149.239 34.4583H149.202Z" fill="#91235B"/>
<path opacity="0.5" d="M149.202 34.4583V63.8174H98.4179V34.4583C98.416 28.7337 96.141 23.2442 92.0931 19.1963C88.0452 15.1484 82.5557 12.8734 76.8311 12.8715H127.652C133.376 12.8734 138.866 15.1484 142.914 19.1963C146.962 23.2442 149.237 28.7337 149.239 34.4583H149.202Z" fill="white"/>
<path d="M149.202 34.4584V42.3115H98.4181V34.4584C98.4279 29.6577 96.8263 24.9926 93.8696 21.2104H144.69C147.634 24.9974 149.222 29.662 149.202 34.4584Z" fill="#91235B"/>
<path opacity="0.7" d="M149.202 34.4584V42.3115H98.4181V34.4584C98.4279 29.6577 96.8263 24.9926 93.8696 21.2104H144.69C147.634 24.9974 149.222 29.662 149.202 34.4584Z" fill="white"/>
<path d="M105.461 46.0945V2.67051C105.461 2.28336 105.544 1.90067 105.706 1.54908C105.868 1.19748 106.105 0.885421 106.4 0.634626C106.695 0.38383 107.041 0.200325 107.414 0.096877C107.787 -0.00657049 108.178 -0.0274733 108.56 0.035626L118.967 1.75786C119.34 1.81912 119.679 2.01132 119.923 2.29998C120.167 2.58864 120.301 2.95486 120.299 3.33291V6.02667C120.299 6.45025 120.131 6.85648 119.831 7.156C119.532 7.45552 119.126 7.62378 118.702 7.62378H108.773V46.0798C108.773 46.519 108.599 46.9402 108.288 47.2508C107.978 47.5613 107.557 47.7358 107.117 47.7358C106.681 47.7358 106.262 47.5634 105.952 47.256C105.642 46.9486 105.465 46.5312 105.461 46.0945Z" fill="#91235B"/>
<path opacity="0.3" d="M105.461 46.0945V2.67051C105.461 2.28336 105.544 1.90067 105.706 1.54908C105.868 1.19748 106.105 0.885421 106.4 0.634626C106.695 0.38383 107.041 0.200325 107.414 0.096877C107.787 -0.00657049 108.178 -0.0274733 108.56 0.035626L118.967 1.75786C119.34 1.81912 119.679 2.01132 119.923 2.29998C120.167 2.58864 120.301 2.95486 120.299 3.33291V6.02667C120.299 6.45025 120.131 6.85648 119.831 7.156C119.532 7.45552 119.126 7.62378 118.702 7.62378H108.773V46.0798C108.773 46.519 108.599 46.9402 108.288 47.2508C107.978 47.5613 107.557 47.7358 107.117 47.7358C106.681 47.7358 106.262 47.5634 105.952 47.256C105.642 46.9486 105.465 46.5312 105.461 46.0945Z" fill="#37474F"/>
<path d="M76.7941 18.6049V40.1844C76.7922 40.7467 76.5685 41.2855 76.1716 41.6838C75.7747 42.082 75.2367 42.3076 74.6744 42.3115H33.5836C33.0213 42.3076 32.4833 42.082 32.0864 41.6838C31.6895 41.2855 31.4658 40.7467 31.4639 40.1844V18.6049C31.4658 18.0427 31.6895 17.5039 32.0864 17.1056C32.4833 16.7073 33.0213 16.4817 33.5836 16.4779H74.6744C75.2367 16.4817 75.7747 16.7073 76.1716 17.1056C76.5685 17.5039 76.7922 18.0427 76.7941 18.6049Z" fill="#91235B"/>
<path opacity="0.8" d="M76.7941 18.6049V40.1844C76.7922 40.7467 76.5685 41.2855 76.1716 41.6838C75.7747 42.082 75.2367 42.3076 74.6744 42.3115H33.5836C33.0213 42.3076 32.4833 42.082 32.0864 41.6838C31.6895 41.2855 31.4658 40.7467 31.4639 40.1844V18.6049C31.4658 18.0427 31.6895 17.5039 32.0864 17.1056C32.4833 16.7073 33.0213 16.4817 33.5836 16.4779H74.6744C75.2367 16.4817 75.7747 16.7073 76.1716 17.1056C76.5685 17.5039 76.7922 18.0427 76.7941 18.6049Z" fill="white"/>
<path d="M76.1172 17.052L59.5278 30.3662C57.9897 31.5983 56.0778 32.2697 54.1071 32.2697C52.1364 32.2697 50.2245 31.5983 48.6865 30.3662L32.1191 17.052C32.5179 16.6787 33.045 16.4731 33.5911 16.4779H74.682C75.2155 16.4825 75.7278 16.6874 76.1172 17.052Z" fill="#91235B"/>
<path opacity="0.6" d="M76.1172 17.052L59.5278 30.3662C57.9897 31.5983 56.0778 32.2697 54.1071 32.2697C52.1364 32.2697 50.2245 31.5983 48.6865 30.3662L32.1191 17.052C32.5179 16.6787 33.045 16.4731 33.5911 16.4779H74.682C75.2155 16.4825 75.7278 16.6874 76.1172 17.052Z" fill="white"/>
<path d="M45.3082 51.011V72.5979C45.3082 73.1607 45.0851 73.7006 44.6878 74.0993C44.2905 74.498 43.7513 74.723 43.1885 74.7249H2.11968C1.55743 74.721 1.01942 74.4955 0.622527 74.0972C0.225636 73.6989 0.00192549 73.1601 0 72.5979V51.011C0 50.4488 0.223326 49.9097 0.620843 49.5122C1.01836 49.1146 1.55751 48.8913 2.11968 48.8913H43.1885C43.7507 48.8913 44.2898 49.1146 44.6873 49.5122C45.0848 49.9097 45.3082 50.4488 45.3082 51.011Z" fill="#91235B"/>
<path opacity="0.8" d="M45.3082 51.011V72.5979C45.3082 73.1607 45.0851 73.7006 44.6878 74.0993C44.2905 74.498 43.7513 74.723 43.1885 74.7249H2.11968C1.55743 74.721 1.01942 74.4955 0.622527 74.0972C0.225636 73.6989 0.00192549 73.1601 0 72.5979V51.011C0 50.4488 0.223326 49.9097 0.620843 49.5122C1.01836 49.1146 1.55751 48.8913 2.11968 48.8913H43.1885C43.7507 48.8913 44.2898 49.1146 44.6873 49.5122C45.0848 49.9097 45.3082 50.4488 45.3082 51.011Z" fill="white"/>
<path d="M44.6308 49.458L28.0635 62.7723C26.5271 64.0082 24.6146 64.682 22.6428 64.682C20.6711 64.682 18.7585 64.0082 17.2222 62.7723L0.647461 49.458C1.04696 49.0868 1.57416 48.8838 2.11946 48.8913H43.1883C43.7238 48.8891 44.2399 49.0919 44.6308 49.458Z" fill="#91235B"/>
<path opacity="0.6" d="M44.6308 49.458L28.0635 62.7723C26.5271 64.0082 24.6146 64.682 22.6428 64.682C20.6711 64.682 18.7585 64.0082 17.2222 62.7723L0.647461 49.458C1.04696 49.0868 1.57416 48.8838 2.11946 48.8913H43.1883C43.7238 48.8891 44.2399 49.0919 44.6308 49.458Z" fill="white"/>
<path d="M98.3887 34.8337V60.6673H83.0357C82.4722 60.6654 81.9323 60.4406 81.5338 60.0422C81.1354 59.6437 80.9106 59.1038 80.9087 58.5403V36.9607C80.9125 36.3978 81.1379 35.859 81.536 35.461C81.934 35.0629 82.4728 34.8376 83.0357 34.8337H98.3887Z" fill="#91235B"/>
<path opacity="0.8" d="M98.3887 34.8337V60.6673H83.0357C82.4722 60.6654 81.9323 60.4406 81.5338 60.0422C81.1354 59.6437 80.9106 59.1038 80.9087 58.5403V36.9607C80.9125 36.3978 81.1379 35.859 81.536 35.461C81.934 35.0629 82.4728 34.8376 83.0357 34.8337H98.3887Z" fill="white"/>
<path d="M98.3887 34.8337V48.8913C98.3096 48.8391 98.2335 48.7826 98.1605 48.722L81.6079 35.4078C82.005 35.0319 82.5332 34.8259 83.0799 34.8337H98.3887Z" fill="#91235B"/>
<path opacity="0.6" d="M98.3887 34.8337V48.8913C98.3096 48.8391 98.2335 48.7826 98.1605 48.722L81.6079 35.4078C82.005 35.0319 82.5332 34.8259 83.0799 34.8337H98.3887Z" fill="white"/>
<path opacity="0.5" d="M98.3811 34.8337H95.0176V60.6673H98.3811V34.8337Z" fill="#91235B"/>
</svg>

