<svg width="233" height="166" viewBox="0 0 233 166" fill="none" xmlns="http://www.w3.org/2000/svg">
<path d="M0 58.2669L205.434 92.0377L233 123.802L0 58.2669Z" fill="#91235B"/>
<path opacity="0.6" d="M0 58.2669L205.434 92.0377L233 123.802L0 58.2669Z" fill="white"/>
<path d="M0 58.2669L205.434 92.0377L195.9 137.971L0 58.2669Z" fill="#91235B"/>
<path opacity="0.2" d="M0 58.2669L205.434 92.0377L195.9 137.971L0 58.2669Z" fill="#91235B"/>
<path d="M191.683 5.0898L203.605 68.8859C203.915 70.5518 203.634 72.2901 202.823 73.7195C202.012 75.1489 200.737 76.1526 199.279 76.5105L92.872 102.441C91.4133 102.792 89.8921 102.47 88.6409 101.544C87.3897 100.619 86.5102 99.1652 86.1945 97.5015L74.2634 33.7054C73.956 32.0383 74.2395 30.3001 75.0518 28.8711C75.8642 27.4421 77.1392 26.4388 78.5979 26.0808L185.005 0.150748C186.465 -0.200273 187.987 0.123428 189.239 1.05101C190.49 1.97859 191.369 3.4345 191.683 5.10009V5.0898Z" fill="#4D112F"/>
<path opacity="0.4" d="M191.683 5.0898L203.605 68.8859C203.915 70.5518 203.634 72.2901 202.823 73.7195C202.012 75.1489 200.737 76.1526 199.279 76.5105L92.872 102.441C91.4133 102.792 89.8921 102.47 88.6409 101.544C87.3897 100.619 86.5102 99.1652 86.1945 97.5015L74.2634 33.7054C73.956 32.0383 74.2395 30.3001 75.0518 28.8711C75.8642 27.4421 77.1392 26.4388 78.5979 26.0808L185.005 0.150748C186.465 -0.200273 187.987 0.123428 189.239 1.05101C190.49 1.97859 191.369 3.4345 191.683 5.10009V5.0898Z" fill="#91235B"/>
<path d="M189.06 0.912184L153.51 50.7452C150.213 55.3654 145.634 58.562 140.529 59.8063C135.425 61.0506 130.101 60.2679 125.439 57.5878L75.1646 28.6738C75.9779 27.3396 77.2054 26.4089 78.5979 26.0705L185.005 0.140457C186.394 -0.196995 187.843 0.0787522 189.06 0.912184Z" fill="#91235B"/>
<path d="M0 58.2669L169.442 104.252L195.9 137.971L0 58.2669Z" fill="#91235B"/>
<path opacity="0.6" d="M0 58.2669L169.442 104.252L195.9 137.971L0 58.2669Z" fill="white"/>
<path d="M61.8087 102.59L61.3533 103.478L80.2093 116.09L80.6648 115.202L61.8087 102.59Z" fill="#91235B"/>
<path d="M88.9896 120.762L88.5342 121.65L95.3146 126.185L95.77 125.297L88.9896 120.762Z" fill="#91235B"/>
<path d="M0 58.2669L169.442 104.252L136.505 149.578L0 58.2669Z" fill="#91235B"/>
<path d="M226.638 166C226.41 166.001 226.183 165.952 225.971 165.856L198.378 153.385C197.937 153.182 197.583 152.788 197.396 152.288C197.208 151.789 197.2 151.225 197.375 150.72C197.55 150.214 197.893 149.808 198.329 149.591C198.765 149.373 199.259 149.361 199.703 149.557L227.305 162.028C227.695 162.204 228.02 162.531 228.222 162.951C228.424 163.371 228.492 163.859 228.413 164.33C228.333 164.8 228.113 165.225 227.789 165.53C227.465 165.835 227.058 166.001 226.638 166Z" fill="#91235B"/>
<path opacity="0.3" d="M226.638 166C226.41 166.001 226.183 165.952 225.971 165.856L198.378 153.385C197.937 153.182 197.583 152.788 197.396 152.288C197.208 151.789 197.2 151.225 197.375 150.72C197.55 150.214 197.893 149.808 198.329 149.591C198.765 149.373 199.259 149.361 199.703 149.557L227.305 162.028C227.695 162.204 228.02 162.531 228.222 162.951C228.424 163.371 228.492 163.859 228.413 164.33C228.333 164.8 228.113 165.225 227.789 165.53C227.465 165.835 227.058 166.001 226.638 166Z" fill="#91235B"/>
<path d="M225.007 147.931C224.781 147.93 224.557 147.877 224.349 147.777L209.525 141.037C209.303 140.939 209.101 140.792 208.929 140.604C208.758 140.416 208.62 140.192 208.525 139.943C208.43 139.694 208.379 139.427 208.374 139.155C208.37 138.884 208.413 138.614 208.5 138.362C208.588 138.11 208.718 137.879 208.883 137.685C209.049 137.49 209.247 137.335 209.465 137.227C209.683 137.12 209.918 137.064 210.156 137.061C210.393 137.057 210.629 137.108 210.85 137.209L225.674 143.918C226.118 144.118 226.475 144.511 226.665 145.01C226.856 145.51 226.866 146.076 226.692 146.583C226.565 146.978 226.336 147.318 226.034 147.559C225.733 147.8 225.375 147.93 225.007 147.931Z" fill="#91235B"/>
<path opacity="0.5" d="M225.007 147.931C224.781 147.93 224.557 147.877 224.349 147.777L209.525 141.037C209.303 140.939 209.101 140.792 208.929 140.604C208.758 140.416 208.62 140.192 208.525 139.943C208.43 139.694 208.379 139.427 208.374 139.155C208.37 138.884 208.413 138.614 208.5 138.362C208.588 138.11 208.718 137.879 208.883 137.685C209.049 137.49 209.247 137.335 209.465 137.227C209.683 137.12 209.918 137.064 210.156 137.061C210.393 137.057 210.629 137.108 210.85 137.209L225.674 143.918C226.118 144.118 226.475 144.511 226.665 145.01C226.856 145.51 226.866 146.076 226.692 146.583C226.565 146.978 226.336 147.318 226.034 147.559C225.733 147.8 225.375 147.93 225.007 147.931Z" fill="91235B"/>
<path d="M194.017 165.732C193.792 165.73 193.569 165.681 193.359 165.588L166.442 153.385C166.22 153.287 166.017 153.14 165.846 152.952C165.674 152.764 165.537 152.539 165.442 152.291C165.346 152.042 165.295 151.774 165.291 151.503C165.287 151.232 165.329 150.962 165.417 150.71C165.504 150.457 165.634 150.227 165.8 150.032C165.965 149.838 166.163 149.682 166.381 149.575C166.6 149.468 166.835 149.411 167.072 149.408C167.31 149.405 167.546 149.456 167.766 149.557L194.683 161.719C195.074 161.896 195.398 162.222 195.601 162.642C195.803 163.062 195.87 163.55 195.791 164.021C195.712 164.492 195.491 164.916 195.168 165.221C194.844 165.526 194.436 165.692 194.017 165.691V165.732Z" fill="#91235B"/>
<path opacity="0.3" d="M194.017 165.732C193.792 165.73 193.569 165.681 193.359 165.588L166.442 153.385C166.22 153.287 166.017 153.14 165.846 152.952C165.674 152.764 165.537 152.539 165.442 152.291C165.346 152.042 165.295 151.774 165.291 151.503C165.287 151.232 165.329 150.962 165.417 150.71C165.504 150.457 165.634 150.227 165.8 150.032C165.965 149.838 166.163 149.682 166.381 149.575C166.6 149.468 166.835 149.411 167.072 149.408C167.31 149.405 167.546 149.456 167.766 149.557L194.683 161.719C195.074 161.896 195.398 162.222 195.601 162.642C195.803 163.062 195.87 163.55 195.791 164.021C195.712 164.492 195.491 164.916 195.168 165.221C194.844 165.526 194.436 165.692 194.017 165.691V165.732Z" fill="91235B"/>
</svg>
