<svg width="48" height="48" viewBox="0 0 48 48" fill="none" xmlns="http://www.w3.org/2000/svg">
<g clip-path="url(#clip0_608_175)">
<path d="M2.18182 48H32.7273C33.9302 48 34.9091 46.9905 34.9091 45.75V34.5C34.9091 34.485 34.9018 34.473 34.9004 34.458C34.9804 34.4055 35.0633 34.356 35.1418 34.3005L46.7578 46.2795C46.8248 46.3512 46.905 46.4085 46.9937 46.4479C47.0823 46.4873 47.1777 46.5082 47.2743 46.5092C47.3709 46.5102 47.4666 46.4913 47.5561 46.4537C47.6455 46.4162 47.7268 46.3606 47.7952 46.2903C47.8635 46.22 47.9176 46.1363 47.9543 46.0442C47.991 45.9521 48.0096 45.8533 48.0089 45.7538C48.0082 45.6542 47.9883 45.5557 47.9503 45.4642C47.9123 45.3726 47.857 45.2898 47.7876 45.2205L36.2778 33.351C37.2223 32.4422 37.9755 31.3429 38.4907 30.1214C39.0059 28.8998 39.2721 27.5821 39.2727 26.25C39.2713 24.6132 38.87 23.0032 38.1058 21.5686C37.3416 20.134 36.2392 18.9211 34.9004 18.042C34.9018 18.027 34.9091 18.015 34.9091 18V14.25C34.9091 14.2245 34.8975 14.2035 34.896 14.1795C34.8931 14.145 34.8844 14.115 34.8771 14.082C34.8543 13.9778 34.8096 13.88 34.7462 13.7955C34.736 13.782 34.7375 13.7655 34.7273 13.752L23.0909 0.252C23.0865 0.2475 23.0807 0.2475 23.0764 0.243C22.9878 0.147083 22.8757 0.077635 22.752 0.042C22.7244 0.033 22.6996 0.03 22.6705 0.0255C22.6284 0.018 22.5891 0 22.5455 0H2.18182C0.978909 0 0 1.0095 0 2.25V45.75C0 46.9905 0.978909 48 2.18182 48ZM37.8182 26.25C37.8182 30.7995 34.2284 34.5 29.8182 34.5C25.408 34.5 21.8182 30.7995 21.8182 26.25C21.8182 21.7005 25.408 18 29.8182 18C34.2284 18 37.8182 21.7005 37.8182 26.25ZM23.2727 2.7225L32.5629 13.5H24C23.68 13.5 23.2727 12.87 23.2727 12.375V2.7225ZM1.45455 2.25C1.45455 2.05109 1.53117 1.86032 1.66756 1.71967C1.80395 1.57902 1.98893 1.5 2.18182 1.5H21.8182V12.375C21.8182 13.5885 22.7709 15 24 15H33.4545V17.2515C31.6976 16.4936 29.7592 16.3028 27.895 16.7042C26.0308 17.1056 24.3284 18.0804 23.0124 19.5H8C7.80712 19.5 7.62213 19.579 7.48574 19.7197C7.34935 19.8603 7.27273 20.0511 7.27273 20.25C7.27273 20.4489 7.34935 20.6397 7.48574 20.7803C7.62213 20.921 7.80712 21 8 21H21.8647C21.0218 22.3512 20.5188 23.8979 20.4015 25.5H8C7.80712 25.5 7.62213 25.579 7.48574 25.7197C7.34935 25.8603 7.27273 26.0511 7.27273 26.25C7.27273 26.4489 7.34935 26.6397 7.48574 26.7803C7.62213 26.921 7.80712 27 8 27H20.4C20.5181 28.602 21.021 30.1484 21.8633 31.5H8C7.80712 31.5 7.62213 31.579 7.48574 31.7197C7.34935 31.8603 7.27273 32.0511 7.27273 32.25C7.27273 32.4489 7.34935 32.6397 7.48574 32.7803C7.62213 32.921 7.80712 33 8 33H22.9091C22.9396 33 22.9658 32.9865 22.9964 32.982C24.3119 34.4076 26.0163 35.3874 27.8839 35.7919C29.7514 36.1964 31.694 36.0063 33.4545 35.247V45.75C33.4545 45.9489 33.3779 46.1397 33.2415 46.2803C33.1051 46.421 32.9202 46.5 32.7273 46.5H2.18182C1.77455 46.5 1.45455 46.17 1.45455 45.75V2.25Z" fill="#751C49"/>
<path d="M7.99999 15H16.7273C16.9201 15 17.1051 14.921 17.2415 14.7803C17.3779 14.6397 17.4545 14.4489 17.4545 14.25C17.4545 14.0511 17.3779 13.8603 17.2415 13.7197C17.1051 13.579 16.9201 13.5 16.7273 13.5H7.99999C7.80711 13.5 7.62212 13.579 7.48573 13.7197C7.34934 13.8603 7.27272 14.0511 7.27272 14.25C7.27272 14.4489 7.34934 14.6397 7.48573 14.7803C7.62212 14.921 7.80711 15 7.99999 15Z" fill="#751C49"/>
<path d="M7.99999 39H26.9091C27.102 39 27.287 38.921 27.4233 38.7803C27.5597 38.6397 27.6364 38.4489 27.6364 38.25C27.6364 38.0511 27.5597 37.8603 27.4233 37.7197C27.287 37.579 27.102 37.5 26.9091 37.5H7.99999C7.80711 37.5 7.62212 37.579 7.48573 37.7197C7.34934 37.8603 7.27272 38.0511 7.27272 38.25C7.27272 38.4489 7.34934 38.6397 7.48573 38.7803C7.62212 38.921 7.80711 39 7.99999 39Z" fill="#751C49"/>
</g>
<defs>
<clipPath id="clip0_608_175">
<rect width="48" height="48" fill="white"/>
</clipPath>
</defs>
</svg>
