<svg width="24" height="24" viewBox="0 0 24 24" fill="none" xmlns="http://www.w3.org/2000/svg">
<path d="M19.5905 8.8628C19.8493 9.59931 20.0092 10.3669 20.066 11.1455H10.8971L5.06977 18.1649C3.62602 16.7579 2.70417 14.9013 2.45589 12.9007C2.20762 10.9 2.6477 8.87448 3.70374 7.15722C4.75978 5.43995 6.36887 4.13328 8.26631 3.45216C10.1638 2.77103 12.2365 2.75603 14.1436 3.40962C14.2106 2.98904 14.3343 2.57949 14.5114 2.19216C12.3341 1.43931 9.96588 1.44697 7.79351 2.21388C5.62113 2.98078 3.77298 4.46162 2.55091 6.41454C1.32883 8.36746 0.80505 10.677 1.0651 12.9661C1.32516 15.2551 2.35368 17.3884 3.98269 19.0174C5.61171 20.6464 7.74494 21.6749 10.034 21.935C12.323 22.195 14.6326 21.6712 16.5855 20.4492C18.5385 19.2271 20.0193 17.3789 20.7862 15.2066C21.5531 13.0342 21.5608 10.666 20.8079 8.48869C20.4209 8.66792 20.0113 8.79378 19.5905 8.8628ZM11.2205 20.6569C9.36176 20.656 7.55087 20.0679 6.04627 18.9766L11.4931 12.4137H20.066C19.9058 14.6511 18.9046 16.7448 17.2636 18.274C15.6226 19.8033 13.4635 20.6546 11.2205 20.6569Z" fill="#4F4F4F"/>
<path d="M18.8296 7.34091C20.5806 7.34091 22 5.92145 22 4.17046C22 2.41946 20.5806 1 18.8296 1C17.0786 1 15.6591 2.41946 15.6591 4.17046C15.6591 5.92145 17.0786 7.34091 18.8296 7.34091Z" fill="#4F4F4F"/>
</svg>
