<svg width="12" height="15" viewBox="0 0 12 15" fill="none" xmlns="http://www.w3.org/2000/svg">
<path d="M11.8398 2.71453C11.7863 2.65347 11.7208 2.60411 11.6474 2.56952C11.5739 2.53493 11.4942 2.51587 11.413 2.51353C10.1526 2.48058 8.5578 1.13287 7.50336 0.603999C6.85202 0.27833 6.422 0.0635969 6.09908 0.00703041C6.03351 -0.00252407 5.96689 -0.00233901 5.90137 0.0075796C5.57845 0.0641461 5.14843 0.278879 4.49764 0.604549C3.4432 1.13287 1.84835 2.48058 0.587964 2.51353C0.506778 2.51599 0.426962 2.53511 0.353465 2.56968C0.279968 2.60426 0.214356 2.65356 0.160695 2.71453C0.0494693 2.84037 -0.00791751 3.00484 0.000880876 3.17256C0.271631 8.67708 2.24597 12.0837 5.71025 14.0635C5.80032 14.1146 5.90027 14.141 5.99967 14.141C6.09908 14.141 6.19903 14.1146 6.28965 14.0635C9.75393 12.0837 11.7277 8.67708 11.999 3.17256C12.0083 3.00487 11.9511 2.84028 11.8398 2.71453ZM9.08502 4.87944L6.16169 9.19332C6.05679 9.34819 5.89203 9.45089 5.72892 9.45089C5.56527 9.45089 5.38348 9.36137 5.2687 9.24659L3.20815 7.18549C3.14087 7.11796 3.1031 7.02653 3.1031 6.93121C3.1031 6.83589 3.14087 6.74446 3.20815 6.67694L3.71724 6.16674C3.78491 6.09973 3.87629 6.06214 3.97152 6.06214C4.06675 6.06214 4.15813 6.09973 4.22579 6.16674L5.56582 7.50676L7.89383 4.07048C7.94769 3.99185 8.03048 3.93772 8.12412 3.91992C8.21775 3.90212 8.31463 3.92209 8.39359 3.97547L8.98946 4.37968C9.06818 4.43346 9.12242 4.51621 9.14033 4.60985C9.15823 4.70349 9.13835 4.80041 9.08502 4.87944Z" fill="#751C49"/>
</svg>
