<svg width="24" height="24" viewBox="0 0 24 24" fill="none" xmlns="http://www.w3.org/2000/svg">
<path d="M8.94159 21.99C8.42946 21.987 7.93219 21.8175 7.52476 21.5072L5.3523 19.891C4.85096 19.5001 4.51832 18.9321 4.42268 18.3036C4.32704 17.6752 4.47567 17.0339 4.83804 16.5116C5.02977 16.2285 5.15162 15.904 5.19358 15.5646C5.23555 15.2253 5.19642 14.8808 5.07943 14.5595L5.01646 14.3916C4.93499 14.1008 4.7861 13.8333 4.58187 13.6108C4.37763 13.3884 4.12381 13.2172 3.84102 13.1112H3.6731C3.06005 12.9051 2.55308 12.4654 2.26226 11.8877C1.97145 11.31 1.92027 10.6409 2.11984 10.0257L2.98043 7.297C3.05965 6.98085 3.2055 6.68528 3.40822 6.43007C3.61094 6.17486 3.86584 5.96591 4.15587 5.8172C4.42596 5.67804 4.72148 5.59513 5.02454 5.57348C5.3276 5.55183 5.6319 5.5919 5.91903 5.69126C6.23166 5.79648 6.56525 5.82375 6.89082 5.77071C7.21639 5.71767 7.52407 5.58592 7.78714 5.38691L7.92357 5.28196C8.1617 5.09195 8.35415 4.85093 8.48675 4.57666C8.61934 4.30239 8.6887 4.00186 8.68971 3.69722V3.44533C8.68689 2.80318 8.93786 2.18591 9.38799 1.72792C9.83812 1.26992 10.451 1.0083 11.0931 1H13.7693C14.0817 1.00084 14.3909 1.06339 14.679 1.18406C14.9672 1.30473 15.2287 1.48115 15.4485 1.70317C15.9106 2.17312 16.1673 2.80727 16.1621 3.46632V3.76019C16.1568 4.04959 16.2196 4.33619 16.3454 4.59688C16.4712 4.85757 16.6565 5.08505 16.8863 5.26097L17.0017 5.34493C17.2373 5.52156 17.5121 5.63862 17.8026 5.68614C18.0932 5.73365 18.3909 5.7102 18.6705 5.6178L19.0273 5.50236C19.3296 5.40214 19.649 5.36384 19.9665 5.38974C20.2839 5.41564 20.5929 5.50521 20.875 5.65311C21.157 5.801 21.4065 6.0042 21.6083 6.25057C21.8102 6.49694 21.9603 6.78144 22.0498 7.0871L22.8789 9.73184C23.0708 10.3431 23.0184 11.0048 22.7326 11.5782C22.4469 12.1516 21.9502 12.592 21.3467 12.8069L21.1368 12.8803C20.8281 12.9814 20.5489 13.1568 20.3238 13.391C20.0987 13.6253 19.9346 13.9112 19.8459 14.2237C19.7624 14.5142 19.7425 14.8193 19.7878 15.1182C19.8331 15.4171 19.9424 15.7026 20.1083 15.9554L20.3811 16.3542C20.743 16.8794 20.8902 17.5231 20.7927 18.1534C20.6951 18.7837 20.3601 19.3528 19.8564 19.7441L17.7469 21.3708C17.492 21.5657 17.2 21.7064 16.8887 21.7842C16.5775 21.8619 16.2536 21.8752 15.937 21.8231C15.6204 21.771 15.3178 21.6546 15.0479 21.4812C14.778 21.3077 14.5464 21.0809 14.3675 20.8146L14.2416 20.6361C14.0697 20.3778 13.8351 20.1673 13.5599 20.0241C13.2846 19.881 12.9775 19.8099 12.6673 19.8175C12.3713 19.8252 12.0813 19.9023 11.8206 20.0427C11.5599 20.1831 11.3359 20.3828 11.1665 20.6257L10.9251 20.972C10.7461 21.2402 10.5141 21.4688 10.2434 21.6439C9.97263 21.819 9.66889 21.9368 9.35089 21.99C9.21478 22.0033 9.0777 22.0033 8.94159 21.99ZM4.52319 11.0962C5.11584 11.3075 5.65059 11.655 6.08443 12.1107C6.51826 12.5664 6.83906 13.1176 7.021 13.7199V13.8459C7.24763 14.472 7.32204 15.1431 7.23809 15.8037C7.15415 16.4643 6.91426 17.0955 6.53823 17.6451C6.47186 17.7184 6.4351 17.8138 6.4351 17.9127C6.4351 18.0116 6.47186 18.107 6.53823 18.1803L8.79466 19.891C8.8241 19.9141 8.85814 19.9307 8.89451 19.9396C8.93087 19.9484 8.96872 19.9494 9.0055 19.9425C9.04228 19.9355 9.07715 19.9208 9.10776 19.8992C9.13837 19.8777 9.16402 19.8498 9.18297 19.8175L9.42436 19.4712C9.78842 18.9452 10.2746 18.5152 10.8412 18.2183C11.4079 17.9213 12.0381 17.7662 12.6778 17.7662C13.3175 17.7662 13.9477 17.9213 14.5144 18.2183C15.081 18.5152 15.5672 18.9452 15.9313 19.4712L16.0572 19.6601C16.1023 19.7241 16.1697 19.769 16.2461 19.786C16.2812 19.7912 16.3169 19.7892 16.3512 19.7802C16.3855 19.7712 16.4175 19.7553 16.4455 19.7336L18.6075 18.0964C18.6832 18.0363 18.733 17.9495 18.7466 17.8539C18.7603 17.7582 18.7368 17.661 18.6809 17.5821L18.4081 17.1833C18.0525 16.6648 17.818 16.0732 17.7217 15.4519C17.6254 14.8307 17.6699 14.1957 17.8518 13.594C18.0363 12.9615 18.3699 12.3826 18.8247 11.906C19.2794 11.4293 19.842 11.0688 20.4651 10.8548L20.675 10.7813C20.7625 10.7463 20.8325 10.6781 20.8699 10.5916C20.9073 10.505 20.9089 10.4073 20.8744 10.3196L20.0558 7.70631C20.0361 7.66058 20.0074 7.61933 19.9713 7.58505C19.9352 7.55077 19.8926 7.52418 19.8459 7.5069C19.815 7.49123 19.7808 7.48306 19.7462 7.48306C19.7115 7.48306 19.6774 7.49123 19.6465 7.5069L19.2897 7.62235C18.686 7.82156 18.0431 7.8712 17.416 7.767C16.789 7.6628 16.1966 7.40787 15.6899 7.02413L15.6479 6.92968C15.1616 6.56143 14.7674 6.08547 14.496 5.53918C14.2247 4.99289 14.0837 4.39114 14.0841 3.78118V3.45583C14.086 3.35467 14.0484 3.25677 13.9792 3.18296C13.9188 3.12839 13.8402 3.09844 13.7588 3.099H11.0931C11.0503 3.10167 11.0085 3.11276 10.97 3.13162C10.9316 3.15049 10.8972 3.17677 10.8689 3.20895C10.8407 3.24113 10.819 3.27857 10.8053 3.31914C10.7915 3.35971 10.7859 3.40259 10.7887 3.44533V3.70771C10.7888 4.3343 10.645 4.95254 10.3684 5.51479C10.0918 6.07704 9.68986 6.56828 9.19347 6.95066L9.05703 7.05561C8.5215 7.46335 7.8939 7.7331 7.22953 7.84108C6.56517 7.94906 5.88444 7.89197 5.24735 7.67482C5.19968 7.65882 5.14809 7.65882 5.10042 7.67482C5.04119 7.7108 4.99658 7.76656 4.97448 7.83225L4.10339 10.5714C4.07303 10.6647 4.08014 10.7662 4.12323 10.8543C4.16632 10.9425 4.24201 11.0104 4.33428 11.0437L4.52319 11.0962Z" fill="#4F4F4F"/>
<path d="M12.4994 15.1683C11.7729 15.1683 11.0627 14.9528 10.4587 14.5492C9.85461 14.1456 9.3838 13.5719 9.10578 12.9007C8.82776 12.2295 8.75502 11.491 8.89675 10.7784C9.03849 10.0659 9.38833 9.41136 9.90204 8.89765C10.4158 8.38394 11.0703 8.03409 11.7828 7.89236C12.4953 7.75063 13.2339 7.82337 13.9051 8.10139C14.5763 8.37941 15.15 8.85022 15.5536 9.45428C15.9572 10.0583 16.1727 10.7685 16.1727 11.495C16.1727 12.4692 15.7857 13.4035 15.0968 14.0924C14.4079 14.7813 13.4736 15.1683 12.4994 15.1683ZM12.4994 9.92078C12.1881 9.92078 11.8837 10.0131 11.6248 10.1861C11.3659 10.3591 11.1642 10.6049 11.045 10.8926C10.9259 11.1802 10.8947 11.4968 10.9554 11.8022C11.0162 12.1075 11.1661 12.388 11.3863 12.6082C11.6064 12.8284 11.8869 12.9783 12.1923 13.039C12.4977 13.0998 12.8142 13.0686 13.1019 12.9494C13.3895 12.8303 13.6354 12.6285 13.8084 12.3696C13.9813 12.1108 14.0737 11.8064 14.0737 11.495C14.0737 11.0775 13.9078 10.6771 13.6126 10.3819C13.3174 10.0866 12.9169 9.92078 12.4994 9.92078Z" fill="#4F4F4F"/>
</svg>
