<?xml version="1.0" encoding="UTF-8" standalone="no"?> <svg id="Layer_1" data-name="Layer 1" xmlns="http://www.w3.org/2000/svg" viewBox="0 0 512 512"><title>Wallet</title><path d="M458.667,245.333V192a53.394,53.394,0,0,0-53.333-53.333H384V85.339a32,32,0,0,0-37.094-31.594L81.328,96.581A58.432,58.432,0,0,0,32,154.5V405.333a53.4,53.4,0,0,0,53.333,53.333h320a53.4,53.4,0,0,0,53.333-53.333V352A21.354,21.354,0,0,0,480,330.667v-64A21.356,21.356,0,0,0,458.667,245.333Zm-21.333,160a32.035,32.035,0,0,1-32,32h-320a32.035,32.035,0,0,1-32-32V154.5a37.184,37.184,0,0,1,31.391-36.857L350.3,74.807a10.664,10.664,0,0,1,12.365,10.531v53.328H85.333a10.667,10.667,0,1,0,0,21.333h320a32.035,32.035,0,0,1,32,32v53.333h-96a53.333,53.333,0,0,0,0,106.667h96Zm21.333-74.667H341.333a32,32,0,0,1,0-64H458.667Z"/></svg>